<svg width="203" height="190" viewBox="0 0 203 190" fill="none" xmlns="http://www.w3.org/2000/svg">
<g clip-path="url(#clip0_5_1969)">
<path d="M100.626 190C156.022 190 200.929 186.953 200.929 183.194C200.929 179.436 156.022 176.389 100.626 176.389C45.2304 176.389 0.323242 179.436 0.323242 183.194C0.323242 186.953 45.2304 190 100.626 190Z" fill="#3F3D56"/>
<path d="M102.307 108.898H98.9452V110.883H102.307V108.898Z" fill="#3F3D56"/>
<path d="M109.032 108.898H105.669V110.883H109.032V108.898Z" fill="#3F3D56"/>
<path d="M115.756 108.898H112.394V110.883H115.756V108.898Z" fill="#3F3D56"/>
<path d="M122.48 108.898H119.118V110.883H122.48V108.898Z" fill="#3F3D56"/>
<path d="M129.204 108.898H125.842V110.883H129.204V108.898Z" fill="#3F3D56"/>
<path d="M135.928 108.898H132.566V110.883H135.928V108.898Z" fill="#3F3D56"/>
<path d="M142.653 108.898H139.291V110.883H142.653V108.898Z" fill="#3F3D56"/>
<path d="M149.377 108.898H146.015V110.883H149.377V108.898Z" fill="#3F3D56"/>
<path d="M156.101 108.898H152.739V110.883H156.101V108.898Z" fill="#3F3D56"/>
<path d="M162.825 108.898H159.463V110.883H162.825V108.898Z" fill="#3F3D56"/>
<path d="M169.55 108.898H166.188V110.883H169.55V108.898Z" fill="#3F3D56"/>
<path d="M177.254 110.174C177.254 121.004 173.004 131.391 165.438 139.049C157.871 146.707 147.609 151.009 136.909 151.009C126.209 151.009 115.947 146.707 108.381 139.049C100.814 131.391 96.5637 121.004 96.5637 110.174H177.254Z" fill="#3F3D56"/>
<path d="M175.304 110.435L149.64 33.0087C154.663 31.2994 159.97 30.6091 165.256 30.9771C170.543 31.3452 175.706 32.7645 180.45 35.1538C185.195 37.5431 189.427 40.8555 192.905 44.9017C196.384 48.9479 199.04 53.6484 200.722 58.7344C200.994 59.5539 201.24 60.3791 201.459 61.2043C204.101 71.2379 202.867 81.9131 198.008 91.0586C193.149 100.204 185.031 107.133 175.304 110.435Z" fill="#3F3D56"/>
<path d="M176.274 116.555C179.059 116.555 181.317 114.27 181.317 111.45C181.317 108.631 179.059 106.346 176.274 106.346C173.489 106.346 171.231 108.631 171.231 111.45C171.231 114.27 173.489 116.555 176.274 116.555Z" fill="#3F3D56"/>
<path d="M125.002 120.808C124.63 120.808 124.274 120.958 124.011 121.224C123.748 121.49 123.601 121.85 123.601 122.226C123.601 122.602 123.748 122.963 124.011 123.229C124.274 123.495 124.63 123.644 125.002 123.644H149.097C149.468 123.644 149.825 123.495 150.087 123.229C150.35 122.963 150.498 122.602 150.498 122.226C150.498 121.85 150.35 121.49 150.087 121.224C149.825 120.958 149.468 120.808 149.097 120.808H125.002Z" fill="#FBAB7E"/>
<path d="M170.39 184.045L165.373 184.233L147.299 144.891L151.872 142.739L170.39 184.045Z" fill="#3F3D56"/>
<path d="M103.428 184.045L108.445 184.233L126.519 144.891L121.946 142.739L103.428 184.045Z" fill="#3F3D56"/>
<path d="M157.782 161.359H116.316V164.195H157.782V161.359Z" fill="#3F3D56"/>
<path d="M150.666 31.5632C150.469 31.5633 150.275 31.6101 150.099 31.6999C149.923 31.7897 149.77 31.9199 149.653 32.0802C149.536 32.2405 149.457 32.4264 149.424 32.6229C149.39 32.8194 149.403 33.0211 149.461 33.2119L150.523 36.7378C150.621 37.0612 150.842 37.3321 151.137 37.491C151.432 37.6498 151.777 37.6836 152.097 37.5849C152.417 37.4862 152.685 37.2631 152.842 36.9646C152.999 36.6661 153.033 36.3167 152.936 35.993L151.873 32.4671C151.793 32.2056 151.634 31.9768 151.416 31.8141C151.199 31.6514 150.936 31.5635 150.666 31.5632Z" fill="#FBAB7E"/>
<path d="M94.8827 110.883C94.5483 110.883 94.2276 111.018 93.9912 111.257C93.7547 111.496 93.6219 111.821 93.6219 112.159C93.6219 112.498 93.7547 112.823 93.9912 113.062C94.2276 113.301 94.5483 113.436 94.8827 113.436H98.525C98.8594 113.436 99.18 113.301 99.4165 113.062C99.6529 112.823 99.7858 112.498 99.7858 112.159C99.7858 111.821 99.6529 111.496 99.4165 111.257C99.18 111.018 98.8594 110.883 98.525 110.883H94.8827Z" fill="#FBAB7E"/>
<path d="M125.002 101.525H109.872C109.777 101.525 109.684 101.528 109.592 101.537C108.603 101.608 107.678 102.056 107.003 102.789C106.327 103.523 105.951 104.488 105.95 105.491C105.949 106.494 106.323 107.461 106.997 108.196C107.671 108.931 108.595 109.381 109.583 109.454C109.679 109.463 109.774 109.465 109.872 109.465H125.002C126.042 109.465 127.04 109.047 127.775 108.303C128.511 107.558 128.924 106.548 128.924 105.495C128.924 104.442 128.511 103.433 127.775 102.688C127.04 101.944 126.042 101.525 125.002 101.525Z" fill="#FF6584"/>
<path opacity="0.2" d="M108.348 109.151C110.926 108.816 112.954 105.524 112.954 101.525H112.394C112.394 105.436 110.382 108.615 107.911 108.615V108.932L108.348 109.151Z" fill="black"/>
<path opacity="0.2" d="M113.795 109.182V108.615C116.266 108.615 118.277 105.434 118.277 101.525H118.838C118.838 105.747 116.575 109.182 113.795 109.182Z" fill="black"/>
<path opacity="0.2" d="M119.678 109.182V108.615C122.15 108.615 124.161 105.434 124.161 101.525H124.721C124.721 105.747 122.459 109.182 119.678 109.182Z" fill="black"/>
<path d="M152.459 101.525H137.329C137.234 101.525 137.142 101.528 137.049 101.537C136.061 101.608 135.136 102.056 134.46 102.789C133.784 103.523 133.408 104.488 133.407 105.491C133.406 106.494 133.78 107.461 134.454 108.196C135.128 108.931 136.052 109.381 137.041 109.454C137.136 109.463 137.231 109.465 137.329 109.465H152.459C153.499 109.465 154.497 109.047 155.232 108.303C155.968 107.558 156.381 106.548 156.381 105.495C156.381 104.442 155.968 103.433 155.232 102.688C154.497 101.944 153.499 101.525 152.459 101.525Z" fill="#FF6584"/>
<path opacity="0.2" d="M135.805 109.151C138.383 108.816 140.411 105.524 140.411 101.525H139.851C139.851 105.436 137.839 108.615 135.368 108.615V108.932L135.805 109.151Z" fill="black"/>
<path opacity="0.2" d="M141.252 109.182V108.615C143.724 108.615 145.735 105.434 145.735 101.525H146.295C146.295 105.747 144.033 109.182 141.252 109.182Z" fill="black"/>
<path opacity="0.2" d="M147.135 109.182V108.615C149.607 108.615 151.618 105.434 151.618 101.525H152.179C152.179 105.747 149.916 109.182 147.135 109.182Z" fill="black"/>
<path d="M123.894 63.4011C121.912 62.3169 119.46 63.4993 118.472 65.4184C117.27 67.7528 118.266 70.5591 119.668 72.5544C121.124 74.6277 123.101 76.339 124.073 78.735C125.003 80.9898 125.113 83.5053 124.384 85.8347C123.655 88.164 122.134 90.1564 120.091 91.458C119.179 92.0419 120.021 93.5148 120.939 92.9272C122.943 91.6602 124.528 89.8176 125.493 87.6345C126.457 85.4515 126.757 83.0271 126.354 80.6708C126.149 79.4489 125.759 78.2663 125.197 77.1651C124.588 76.0413 123.854 74.9915 123.01 74.036C121.551 72.289 119.715 70.3632 119.624 67.9326C119.607 67.6173 119.629 67.3011 119.688 66.9912C119.732 66.7747 119.797 66.5632 119.882 66.3598C120.086 65.9231 120.389 65.5411 120.766 65.2446C121.115 64.9626 121.528 64.7733 121.968 64.6936C122.337 64.6382 122.713 64.6999 123.046 64.8702C123.998 65.3907 124.848 63.9223 123.894 63.4011Z" fill="#E6E6E6"/>
<path d="M149.19 73.6929C148.345 73.4183 147.443 73.3806 146.579 73.5838C145.716 73.787 144.922 74.2235 144.284 74.8468C143.955 75.1901 143.71 75.6079 143.572 76.0657C143.433 76.5236 143.404 77.0082 143.488 77.4795C143.648 78.5106 144.291 79.4263 144.989 80.1643C146.354 81.6083 148.265 82.542 149.41 84.1998C149.917 84.9062 150.236 85.7334 150.334 86.6012C150.393 87.3809 150.252 88.1628 149.924 88.8709C149.07 90.6279 147.375 91.8229 145.587 92.5922C145.169 92.772 145.077 93.3955 145.285 93.7562C145.402 93.9465 145.586 94.0844 145.8 94.1412C146.014 94.198 146.242 94.1694 146.435 94.0614C149.726 92.6457 152.77 89.4748 151.862 85.5791C151.385 83.5298 149.922 82.0835 148.346 80.8262C147.564 80.2456 146.825 79.6072 146.135 78.9163C145.59 78.3306 145.024 77.5309 145.124 76.7371C145.164 76.4611 145.298 76.2077 145.502 76.0202C145.749 75.7912 146.03 75.6023 146.335 75.46C146.708 75.279 147.113 75.1746 147.526 75.1529C147.939 75.1312 148.353 75.1926 148.743 75.3336C148.958 75.3914 149.186 75.3616 149.38 75.2505C149.573 75.1393 149.716 74.9558 149.777 74.7394C149.831 74.522 149.801 74.2916 149.691 74.0965C149.582 73.9014 149.402 73.7568 149.19 73.6929V73.6929Z" fill="#E6E6E6"/>
<path d="M136.392 49.4903C135.891 49.0572 135.259 48.8107 134.6 48.7919C133.976 48.8038 133.369 49.0025 132.855 49.363C131.696 50.2152 130.876 51.4587 130.543 52.8691C129.694 56.1624 130.802 59.7119 132.341 62.6123C133.12 64.0785 134.026 65.4703 134.81 66.9335C135.565 68.3331 136.145 69.8225 136.536 71.3674C137.334 74.535 137.405 77.8453 136.744 81.0451C136.071 84.23 134.656 87.3836 132.248 89.581C132.091 89.7406 132.002 89.9569 132.002 90.1826C132.002 90.4082 132.091 90.6246 132.248 90.7841C132.406 90.9437 132.62 91.0333 132.843 91.0333C133.066 91.0333 133.28 90.9437 133.437 90.7841C135.574 88.8337 137.003 86.1583 137.866 83.4072C138.818 80.3 139.096 77.0216 138.682 73.7956C138.495 72.1891 138.133 70.6084 137.604 69.082C137.031 67.5443 136.315 66.0651 135.466 64.6642C133.886 61.9604 132.204 59.2257 131.975 56.0063C131.863 54.4231 132.059 52.7729 133.026 51.4997C132.973 51.5694 133.069 51.449 133.069 51.4485C133.128 51.3774 133.189 51.3082 133.252 51.2409C133.372 51.1105 133.501 50.9889 133.638 50.877C133.609 50.9004 133.534 50.9507 133.67 50.8557C133.737 50.8084 133.806 50.7631 133.876 50.721C133.934 50.6868 133.993 50.6565 134.052 50.6249C134.087 50.6069 134.122 50.5899 134.158 50.5739C134.076 50.6096 134.081 50.6099 134.172 50.5749C134.238 50.5541 134.563 50.4829 134.383 50.506C134.443 50.4987 134.503 50.4947 134.564 50.494C134.59 50.4936 134.817 50.5053 134.706 50.4931C134.576 50.4787 134.808 50.5164 134.81 50.5168C134.882 50.5347 134.954 50.5576 135.023 50.5852C134.848 50.5144 135.31 50.7772 135.204 50.6933C135.365 50.8463 135.577 50.9315 135.798 50.9315C136.019 50.9315 136.231 50.8463 136.392 50.6933C136.682 50.3998 136.753 49.7738 136.392 49.4903L136.392 49.4903Z" fill="#E6E6E6"/>
<path d="M71.8488 177.346L65.5118 179.048L53.8724 124.596L66.9345 123.418L71.8488 177.346Z" fill="#FFB9B9"/>
<path d="M42.8551 178.183L36.3724 179.175L30.675 123.762L43.7858 124.034L42.8551 178.183Z" fill="#FFB9B9"/>
<path d="M39.5173 99.3333L40.1159 110.643C40.1379 111.059 40.0712 111.475 39.9204 111.862C39.7696 112.25 39.5381 112.6 39.2417 112.889C38.9453 113.178 38.591 113.399 38.2027 113.537C37.8144 113.675 37.4013 113.727 36.9914 113.69C36.3215 113.628 35.6943 113.33 35.2194 112.848C34.7445 112.366 34.4521 111.73 34.3933 111.052L33.3096 98.548L24.774 69.2277L25.0327 50.3789L35.1202 50.9025L39.5173 99.3333Z" fill="#FFB9B9"/>
<path d="M44.949 127.083C39.8961 125.307 34.0333 124.958 27.3606 126.036C28.3069 114.69 28.855 104.154 28.3952 95.6682H62.7961L44.949 127.083Z" fill="#2F2E41"/>
<path d="M69.0038 126.821C63.7958 129.609 56.2624 130.944 47.5356 131.533L36.6721 96.4536L63.3134 95.9301L69.0038 126.821Z" fill="#2F2E41"/>
<path d="M82.4142 183.039L63.6732 183.741C61.2725 183.831 61.1459 181.744 61.5991 179.357L63.8179 172.944C68.8133 177.898 69.2837 178.175 71.4251 171.128L77.9606 176.353L82.7982 177.192C83.4757 177.31 84.0901 177.666 84.5328 178.199C84.9754 178.731 85.2177 179.404 85.2166 180.1C85.2154 180.861 84.9229 181.593 84.4004 182.141C83.8779 182.689 83.166 183.011 82.4142 183.039Z" fill="#2F2E41"/>
<path d="M54.0297 183.039L35.2887 183.741C32.8881 183.831 32.7614 181.744 33.2146 179.357L35.4334 172.944C40.4288 177.898 40.8993 178.175 43.0407 171.128L49.5762 176.353L54.4138 177.192C55.0912 177.31 55.7057 177.666 56.1483 178.199C56.591 178.731 56.8332 179.404 56.8321 180.1C56.831 180.861 56.5384 181.593 56.0159 182.141C55.4934 182.689 54.7816 183.011 54.0297 183.039Z" fill="#2F2E41"/>
<path d="M58.399 22.6293C63.9701 22.6293 68.4865 18.0582 68.4865 12.4195C68.4865 6.78084 63.9701 2.20978 58.399 2.20978C52.8278 2.20978 48.3115 6.78084 48.3115 12.4195C48.3115 18.0582 52.8278 22.6293 58.399 22.6293Z" fill="#FFB9B9"/>
<path d="M53.2258 30.4829L41.3279 26.818L49.3462 14.7755L58.399 18.7024L53.2258 30.4829Z" fill="#FFB9B9"/>
<path d="M64.348 98.8098C52.1169 101.593 38.5394 100.489 26.8433 97.239C29.6442 81.4312 28.2919 64.4516 25.55 50.6407C23.4039 39.8306 29.0653 30.7595 38.4827 26.2944C40.5069 25.5596 42.6127 25.0797 44.7527 24.8654C51.3587 24.273 57.1713 29.2863 57.8605 35.9622L64.348 98.8098Z" fill="#FBAB7E"/>
<path d="M32.5337 55.8765L23.9982 54.8293L26.5848 41.2164H32.5337V55.8765Z" fill="#FBAB7E"/>
<path d="M58.2579 14.036L56.7125 13.3409C56.3624 13.1839 55.9827 13.1058 55.5998 13.1121C55.2168 13.1183 54.8398 13.2088 54.4949 13.3772C54.1499 13.5456 53.8453 13.7879 53.6021 14.0874C53.3589 14.3868 53.1829 14.7362 53.0863 15.1113L50.9327 19.0497L45.5687 18.1903L45.7561 9.85311C46.0003 8.27761 46.5614 6.76961 47.4047 5.42244C48.248 4.07528 49.3555 2.91762 50.6586 2.02111C51.9617 1.1246 53.4328 0.508331 54.9807 0.210436C56.5287 -0.0874583 58.1205 -0.0606357 59.6578 0.289244L59.8042 0.322767C62.4229 0.922335 65.8224 2.86826 67.5971 4.91099L70.9036 8.71696C71.0604 8.89753 71.1652 9.11813 71.2068 9.3548C71.2484 9.59146 71.2251 9.83514 71.1394 10.0593C71.0538 10.2835 70.909 10.4797 70.7209 10.6264C70.5328 10.7732 70.3086 10.865 70.0726 10.8918L65.5504 11.3969L58.2579 14.036Z" fill="#2F2E41"/>
<path d="M91.717 83.6644L85.9246 88.8066C85.8408 88.8809 85.7313 88.9184 85.6201 88.911C85.509 88.9036 85.4053 88.8518 85.3318 88.7671C85.2584 88.6823 85.2212 88.5715 85.2284 88.459C85.2356 88.3465 85.2867 88.2415 85.3704 88.1671L91.1627 83.0248L90.0542 81.7457L84.2619 86.888C84.178 86.9622 84.0685 86.9998 83.9574 86.9924C83.8462 86.985 83.7425 86.9332 83.6691 86.8484C83.5956 86.7637 83.5584 86.6529 83.5656 86.5404C83.5729 86.4278 83.6239 86.3228 83.7076 86.2484L89.5 81.1062L88.3914 79.8271L82.5991 84.9693C82.5576 85.0062 82.5093 85.0345 82.4571 85.0525C82.4048 85.0705 82.3495 85.0779 82.2944 85.0743C82.2393 85.0706 82.1854 85.0561 82.1359 85.0314C82.0864 85.0067 82.0421 84.9723 82.0057 84.9303C81.9693 84.8883 81.9414 84.8394 81.9237 84.7865C81.9059 84.7335 81.8987 84.6776 81.9023 84.6218C81.9059 84.566 81.9204 84.5115 81.9448 84.4614C81.9693 84.4113 82.0033 84.3666 82.0448 84.3298L87.8372 79.1875L86.4516 77.5886L78.266 84.8555C77.5353 85.5045 77.047 86.3877 76.8828 87.3574C76.7187 88.3271 76.8885 89.3245 77.364 90.1827L52.6507 112.122L54.8677 114.681L79.565 92.7552C80.3183 93.3571 81.2562 93.673 82.2157 93.648C83.1752 93.623 84.0957 93.2588 84.8175 92.6185L93.1026 85.2633L91.717 83.6644Z" fill="#E6E6E6"/>
<path d="M63.572 99.3333L64.1706 110.643C64.1926 111.059 64.126 111.475 63.9751 111.862C63.8243 112.25 63.5928 112.6 63.2965 112.889C63.0001 113.178 62.6457 113.399 62.2574 113.537C61.8692 113.675 61.4561 113.727 61.0462 113.69C60.3763 113.628 59.749 113.33 59.2741 112.848C58.7992 112.366 58.5068 111.73 58.448 111.052L57.3644 98.548L48.8288 69.2277L49.0875 50.3789L59.1749 50.9025L63.572 99.3333Z" fill="#FFB9B9"/>
<path d="M59.9509 53.7821C56.8816 50.8022 52.8302 50.6928 48.3115 51.9496V37.8805C48.3115 36.1963 48.9726 34.581 50.1492 33.3901C51.3259 32.1992 52.9218 31.5301 54.5859 31.5301C55.3518 31.5301 56.1099 31.6851 56.8158 31.9859C57.5216 32.2868 58.1609 32.7274 58.6961 33.282C59.2313 33.8365 59.6515 34.4937 59.932 35.215C60.2126 35.9363 60.3479 36.7071 60.3298 37.4821L59.9509 53.7821Z" fill="#FBAB7E"/>
</g>
<defs>
<clipPath id="clip0_5_1969">
<rect width="202.506" height="190" fill="white" transform="translate(0.323242)"/>
</clipPath>
</defs>
</svg>
