<svg width="351" height="185" viewBox="0 0 351 185" fill="none" xmlns="http://www.w3.org/2000/svg">
<g clip-path="url(#clip0_5_1730)">
<path d="M47.1765 96.4251H35.9794C35.5857 96.4251 35.2081 96.5764 34.9297 96.8456C34.6513 97.1149 34.4949 97.4801 34.4949 97.8608V102.614C34.4949 102.995 34.6513 103.36 34.9297 103.629C35.2081 103.899 35.5857 104.05 35.9794 104.05H37.8349V111.172H45.321V104.05H47.1765C47.5702 104.05 47.9478 103.899 48.2262 103.629C48.5046 103.36 48.661 102.995 48.661 102.614V97.8608C48.661 97.4801 48.5046 97.1149 48.2262 96.8456C47.9478 96.5764 47.5702 96.4251 47.1765 96.4251Z" fill="#FBAB7E"/>
<path d="M58.3917 139.927C51.5342 130.222 48.0286 118.668 48.3769 106.918C48.3831 106.647 48.2922 106.382 48.1194 106.169C47.9467 105.955 47.7028 105.806 47.4292 105.746V103.693H35.6036V105.718H35.4407C35.2739 105.718 35.1089 105.752 34.9561 105.816C34.8033 105.881 34.6659 105.975 34.5525 106.093C34.4391 106.212 34.3521 106.351 34.297 106.504C34.2419 106.656 34.2198 106.817 34.2322 106.978C35.1638 119.539 32.0179 130.802 24.7944 140.77C24.3787 141.342 24.1663 142.03 24.1892 142.729L25.4822 181.414C25.5133 182.277 25.8878 183.095 26.5274 183.697C27.1671 184.299 28.0225 184.639 28.9152 184.646H55.663C56.5659 184.639 57.4302 184.291 58.0718 183.677C58.7134 183.062 59.0816 182.23 59.098 181.357L59.5963 143.797C59.6111 142.419 59.1908 141.069 58.3917 139.927Z" fill="#3F3D56"/>
<path opacity="0.2" d="M44.8423 97.9739C44.8423 98.7954 44.5049 99.5833 43.9043 100.164C43.3036 100.745 42.489 101.071 41.6395 101.071C40.7901 101.071 39.9755 100.745 39.3748 100.164C38.7742 99.5833 38.4368 98.7954 38.4368 97.9739" fill="black"/>
<path d="M54.1574 152.777H50.9185C50.6092 150.836 49.5921 149.067 48.0511 147.788C46.51 146.51 44.5468 145.807 42.5166 145.807C40.4863 145.807 38.5231 146.51 36.9821 147.788C35.4411 149.067 34.4239 150.836 34.1147 152.777H30.8755C30.5309 152.777 30.1903 152.849 29.8772 152.988C29.5641 153.127 29.2858 153.33 29.0614 153.583C28.837 153.836 28.6718 154.133 28.5771 154.454C28.4825 154.774 28.4606 155.111 28.513 155.44L32.0312 177.557H52.2334L56.5068 155.515C56.5715 155.181 56.5594 154.837 56.4712 154.508C56.3831 154.18 56.2211 153.874 55.9968 153.612C55.7725 153.351 55.4914 153.141 55.1735 152.996C54.8555 152.852 54.5086 152.777 54.1574 152.777Z" fill="#FBAB7E"/>
<path d="M326.343 117.227L325.566 147.26L324.604 184.502H291.853L290.726 140.868L290.114 117.227H326.343Z" fill="#E6E6E6"/>
<path d="M310.402 101.249H305.765V160.675H310.402V101.249Z" fill="#FBAB7E"/>
<path d="M324.025 139.856L323.148 182.542H293.295L292.268 132.531C294.957 131.8 297.773 131.613 300.541 131.981C303.308 132.349 305.968 133.265 308.353 134.671C313.341 137.524 318.944 139.059 324.025 139.856Z" fill="#3F3D56"/>
<path d="M300.685 144.662H296.43V148.777H300.685V144.662Z" fill="#E6E6E6"/>
<path d="M303.584 136.252H299.329V140.368H303.584V136.252Z" fill="#E6E6E6"/>
<path d="M312.721 142.074L309.303 139.622L306.768 142.928L310.186 145.379L312.721 142.074Z" fill="#E6E6E6"/>
<path d="M320.409 149.366L316.991 146.914L314.457 150.22L317.874 152.671L320.409 149.366Z" fill="#E6E6E6"/>
<path d="M307.367 153.57L303.949 151.119L301.414 154.424L304.832 156.876L307.367 153.57Z" fill="#E6E6E6"/>
<path d="M317.358 134.606C317.839 134.606 318.228 134.23 318.228 133.765C318.228 133.301 317.839 132.924 317.358 132.924C316.878 132.924 316.489 133.301 316.489 133.765C316.489 134.23 316.878 134.606 317.358 134.606Z" fill="#3F3D56"/>
<path d="M299.679 129C300.159 129 300.548 128.623 300.548 128.159C300.548 127.694 300.159 127.318 299.679 127.318C299.198 127.318 298.809 127.694 298.809 128.159C298.809 128.623 299.198 129 299.679 129Z" fill="#3F3D56"/>
<path d="M314.46 123.113C314.94 123.113 315.33 122.737 315.33 122.272C315.33 121.808 314.94 121.431 314.46 121.431C313.98 121.431 313.591 121.808 313.591 122.272C313.591 122.737 313.98 123.113 314.46 123.113Z" fill="#3F3D56"/>
<path d="M175.265 184.245C227.871 184.245 270.517 143 270.517 92.1226C270.517 41.2447 227.871 0 175.265 0C122.659 0 80.0135 41.2447 80.0135 92.1226C80.0135 143 122.659 184.245 175.265 184.245Z" fill="#FBAB7E"/>
<path opacity="0.2" d="M175.265 159.363C159.181 159.363 143.593 153.969 131.16 144.1C118.726 134.231 110.215 120.498 107.077 105.241C103.939 89.9832 106.369 74.1455 113.951 60.426C121.533 46.7066 133.8 35.9543 148.66 30.0012C163.521 24.0481 180.056 23.2625 195.448 27.7783C210.84 32.2941 224.137 41.8319 233.073 54.7665C242.009 67.7012 246.032 83.2323 244.455 98.7138C242.879 114.195 235.8 128.669 224.427 139.669C217.986 145.932 210.324 150.898 201.886 154.279C193.447 157.659 184.399 159.387 175.265 159.363ZM175.265 29.029C139.294 29.029 110.029 57.3326 110.029 92.1226C110.029 126.912 139.294 155.216 175.265 155.216C211.237 155.216 240.502 126.912 240.502 92.1226C240.502 57.3326 211.237 29.029 175.265 29.029Z" fill="black"/>
<path d="M175.265 157.29C212.479 157.29 242.646 128.113 242.646 92.1226C242.646 56.1318 212.479 26.9555 175.265 26.9555C138.052 26.9555 107.885 56.1318 107.885 92.1226C107.885 128.113 138.052 157.29 175.265 157.29Z" fill="#3F3D56"/>
<path d="M125.156 66.065C124.645 65.097 124.336 64.0411 124.247 62.9577C124.158 61.8743 124.291 60.7845 124.638 59.7508C124.985 58.717 125.539 57.7596 126.269 56.9331C126.999 56.1067 127.89 55.4274 128.891 54.9342C129.893 54.441 130.985 54.1436 132.105 54.0588C133.225 53.9741 134.352 54.1037 135.421 54.4403C136.489 54.777 137.478 55.314 138.332 56.0206C139.186 56.7273 139.887 57.5898 140.396 58.5588L159.433 94.7131C159.944 95.681 160.253 96.7369 160.342 97.8204C160.43 98.9038 160.298 99.9935 159.951 101.027C159.604 102.061 159.049 103.018 158.32 103.845C157.59 104.671 156.699 105.351 155.697 105.844C154.696 106.337 153.604 106.634 152.484 106.719C151.363 106.804 150.237 106.674 149.168 106.338C148.1 106.001 147.11 105.464 146.257 104.757C145.403 104.051 144.701 103.188 144.193 102.219L125.156 66.065Z" fill="#FF6584"/>
<path opacity="0.2" d="M127.279 70.0976L126.4 68.4289C130.785 65.1337 135.934 62.7103 141.641 60.9227L142.52 62.5914C136.343 63.8353 131.089 66.1372 127.279 70.0976Z" fill="black"/>
<path opacity="0.2" d="M131.379 77.8846L130.501 76.2159C134.886 72.9208 140.035 70.4974 145.741 68.7098L146.62 70.3784C140.444 71.6223 135.189 73.9243 131.379 77.8846Z" fill="black"/>
<path opacity="0.2" d="M135.48 85.6717L134.601 84.003C138.986 80.7079 144.135 78.2844 149.841 76.4968L150.72 78.1655C144.544 79.4094 139.289 81.7113 135.48 85.6717Z" fill="black"/>
<path opacity="0.2" d="M139.58 93.4588L138.701 91.7901C143.086 88.495 148.235 86.0716 153.942 84.2839L154.82 85.9526C148.644 87.1965 143.39 89.4984 139.58 93.4588Z" fill="black"/>
<path opacity="0.2" d="M143.68 101.246L142.801 99.5772C147.186 96.282 152.335 93.8586 158.042 92.071L158.921 93.7396C152.744 94.9835 147.49 97.2855 143.68 101.246Z" fill="black"/>
<path d="M110.874 79.5998C110.363 78.6318 110.054 77.576 109.966 76.4926C109.877 75.4093 110.01 74.3196 110.357 73.286C110.704 72.2523 111.258 71.2949 111.988 70.4685C112.718 69.6422 113.609 68.963 114.61 68.4698C115.611 67.9766 116.703 67.6792 117.823 67.5944C118.944 67.5096 120.07 67.6392 121.139 67.9758C122.207 68.3123 123.196 68.8492 124.05 69.5558C124.904 70.2624 125.605 71.1247 126.114 72.0936L145.151 108.248C146.177 110.202 146.36 112.471 145.658 114.555C144.956 116.639 143.427 118.368 141.407 119.363C139.388 120.358 137.042 120.536 134.887 119.86C132.731 119.183 130.941 117.706 129.911 115.754L110.874 79.5998Z" fill="#FF6584"/>
<path opacity="0.2" d="M112.997 83.6323L112.119 81.9637C116.503 78.6685 121.653 76.2451 127.359 74.4575L128.238 76.1262C122.062 77.3701 116.807 79.672 112.997 83.6323Z" fill="black"/>
<path opacity="0.2" d="M117.097 91.4195L116.219 89.7508C120.604 86.4556 125.753 84.0322 131.459 82.2446L132.338 83.9133C126.162 85.1572 120.907 87.4591 117.097 91.4195Z" fill="black"/>
<path opacity="0.2" d="M121.198 99.2065L120.319 97.5379C124.704 94.2427 129.853 91.8193 135.559 90.0317L136.438 91.7003C130.262 92.9442 125.007 95.2462 121.198 99.2065Z" fill="black"/>
<path opacity="0.2" d="M125.298 106.994L124.419 105.325C128.804 102.03 133.953 99.6063 139.66 97.8187L140.538 99.4874C134.362 100.731 129.108 103.033 125.298 106.994Z" fill="black"/>
<path opacity="0.2" d="M129.398 114.781L128.519 113.112C132.904 109.817 138.053 107.393 143.76 105.606L144.639 107.274C138.462 108.518 133.208 110.82 129.398 114.781Z" fill="black"/>
<path d="M220.288 94.1961L220.348 94.1961C222.398 94.2127 224.407 93.6313 226.11 92.5276C227.814 91.424 229.134 89.8493 229.898 88.0092C231.471 84.1656 232.263 80.0652 232.232 75.9319C232.125 58.4372 217.409 44.0848 199.321 43.8428C191.618 43.7385 184.115 46.2137 178.083 50.8487C172.051 55.4836 167.862 61.9933 166.226 69.2741C164.59 76.5549 165.608 84.1589 169.106 90.7971C172.605 97.4352 178.369 102.699 185.422 105.696C187.286 106.495 189.356 106.729 191.36 106.37C193.364 106.01 195.209 105.074 196.653 103.682C199.751 100.671 203.434 98.2822 207.49 96.6541C211.547 95.026 215.896 94.1906 220.288 94.1961Z" fill="#E6E6E6"/>
<path d="M203.136 84.421C209.226 84.421 214.162 79.6467 214.162 73.7573C214.162 67.8679 209.226 63.0936 203.136 63.0936C197.047 63.0936 192.111 67.8679 192.111 73.7573C192.111 79.6467 197.047 84.421 203.136 84.421Z" fill="#F9A825"/>
<path d="M179.173 72.5582C179.89 72.5582 180.472 71.9957 180.472 71.3019C180.472 70.6082 179.89 70.0457 179.173 70.0457C178.456 70.0457 177.874 70.6082 177.874 71.3019C177.874 71.9957 178.456 72.5582 179.173 72.5582Z" fill="#3F3D56"/>
<path d="M136.295 73.743C137.012 73.743 137.593 73.1806 137.593 72.4868C137.593 71.793 137.012 71.2305 136.295 71.2305C135.577 71.2305 134.996 71.793 134.996 72.4868C134.996 73.1806 135.577 73.743 136.295 73.743Z" fill="#3F3D56"/>
<path d="M186.096 59.539C186.813 59.539 187.395 58.9766 187.395 58.2828C187.395 57.589 186.813 57.0266 186.096 57.0266C185.378 57.0266 184.797 57.589 184.797 58.2828C184.797 58.9766 185.378 59.539 186.096 59.539Z" fill="#3F3D56"/>
<path d="M186.059 95.7485C186.776 95.7485 187.358 95.1861 187.358 94.4923C187.358 93.7985 186.776 93.236 186.059 93.236C185.341 93.236 184.76 93.7985 184.76 94.4923C184.76 95.1861 185.341 95.7485 186.059 95.7485Z" fill="#3F3D56"/>
<path d="M211.786 56.9445C212.503 56.9445 213.085 56.382 213.085 55.6882C213.085 54.9944 212.503 54.432 211.786 54.432C211.069 54.432 210.487 54.9944 210.487 55.6882C210.487 56.382 211.069 56.9445 211.786 56.9445Z" fill="#3F3D56"/>
<path d="M127.866 91.3053C128.584 91.3053 129.165 90.7429 129.165 90.0491C129.165 89.3553 128.584 88.7928 127.866 88.7928C127.149 88.7928 126.567 89.3553 126.567 90.0491C126.567 90.7429 127.149 91.3053 127.866 91.3053Z" fill="#3F3D56"/>
<path d="M137.361 109.374C138.078 109.374 138.66 108.812 138.66 108.118C138.66 107.424 138.078 106.862 137.361 106.862C136.644 106.862 136.062 107.424 136.062 108.118C136.062 108.812 136.644 109.374 137.361 109.374Z" fill="#3F3D56"/>
<path d="M197.011 115.227C199.717 115.227 201.911 113.105 201.911 110.488C201.911 107.87 199.717 105.748 197.011 105.748C194.305 105.748 192.111 107.87 192.111 110.488C192.111 113.105 194.305 115.227 197.011 115.227Z" fill="#FF6584"/>
<path opacity="0.2" d="M200.686 110.784C200.686 111.727 200.299 112.631 199.61 113.298C198.921 113.964 197.986 114.339 197.011 114.339C196.036 114.339 195.101 113.964 194.412 113.298C193.723 112.631 193.336 111.727 193.336 110.784" fill="black"/>
<path opacity="0.2" d="M193.336 110.192C193.336 109.249 193.723 108.345 194.412 107.678C195.101 107.012 196.036 106.637 197.011 106.637C197.986 106.637 198.921 107.012 199.61 107.678C200.299 108.345 200.686 109.249 200.686 110.192" fill="black"/>
<path d="M195.173 109.303C195.342 109.303 195.48 109.104 195.48 108.859C195.48 108.613 195.342 108.414 195.173 108.414C195.004 108.414 194.867 108.613 194.867 108.859C194.867 109.104 195.004 109.303 195.173 109.303Z" fill="#FF6584"/>
<path d="M197.011 108.711C197.18 108.711 197.317 108.512 197.317 108.266C197.317 108.021 197.18 107.822 197.011 107.822C196.842 107.822 196.705 108.021 196.705 108.266C196.705 108.512 196.842 108.711 197.011 108.711Z" fill="#FF6584"/>
<path d="M197.011 112.561C197.18 112.561 197.317 112.362 197.317 112.117C197.317 111.872 197.18 111.673 197.011 111.673C196.842 111.673 196.705 111.872 196.705 112.117C196.705 112.362 196.842 112.561 197.011 112.561Z" fill="#FF6584"/>
<path d="M198.849 110.192C199.018 110.192 199.155 109.993 199.155 109.747C199.155 109.502 199.018 109.303 198.849 109.303C198.679 109.303 198.542 109.502 198.542 109.747C198.542 109.993 198.679 110.192 198.849 110.192Z" fill="#FF6584"/>
<path d="M198.542 113.45C198.711 113.45 198.849 113.251 198.849 113.006C198.849 112.76 198.711 112.561 198.542 112.561C198.373 112.561 198.236 112.76 198.236 113.006C198.236 113.251 198.373 113.45 198.542 113.45Z" fill="#FF6584"/>
<path d="M194.867 111.969C195.036 111.969 195.173 111.77 195.173 111.525C195.173 111.279 195.036 111.08 194.867 111.08C194.698 111.08 194.561 111.279 194.561 111.525C194.561 111.77 194.698 111.969 194.867 111.969Z" fill="#FF6584"/>
<path d="M206.812 102.49C209.518 102.49 211.712 100.368 211.712 97.7507C211.712 95.1331 209.518 93.0112 206.812 93.0112C204.105 93.0112 201.911 95.1331 201.911 97.7507C201.911 100.368 204.105 102.49 206.812 102.49Z" fill="#FF6584"/>
<path opacity="0.2" d="M210.487 98.0469C210.487 98.9896 210.1 99.8937 209.411 100.56C208.721 101.227 207.787 101.601 206.812 101.601C205.837 101.601 204.902 101.227 204.213 100.56C203.524 99.8937 203.136 98.9896 203.136 98.0469" fill="black"/>
<path opacity="0.2" d="M203.136 97.4544C203.136 96.5117 203.524 95.6076 204.213 94.941C204.902 94.2743 205.837 93.8998 206.812 93.8998C207.787 93.8998 208.721 94.2743 209.411 94.941C210.1 95.6076 210.487 96.5117 210.487 97.4544" fill="black"/>
<path d="M204.974 96.5658C205.143 96.5658 205.28 96.3668 205.28 96.1214C205.28 95.8761 205.143 95.6771 204.974 95.6771C204.805 95.6771 204.668 95.8761 204.668 96.1214C204.668 96.3668 204.805 96.5658 204.974 96.5658Z" fill="#FF6584"/>
<path d="M206.812 95.9734C206.981 95.9734 207.118 95.7744 207.118 95.529C207.118 95.2836 206.981 95.0847 206.812 95.0847C206.643 95.0847 206.505 95.2836 206.505 95.529C206.505 95.7744 206.643 95.9734 206.812 95.9734Z" fill="#FF6584"/>
<path d="M206.812 99.8241C206.981 99.8241 207.118 99.6252 207.118 99.3798C207.118 99.1344 206.981 98.9355 206.812 98.9355C206.643 98.9355 206.505 99.1344 206.505 99.3798C206.505 99.6252 206.643 99.8241 206.812 99.8241Z" fill="#FF6584"/>
<path d="M208.649 97.4544C208.819 97.4544 208.956 97.2555 208.956 97.0101C208.956 96.7647 208.819 96.5658 208.649 96.5658C208.48 96.5658 208.343 96.7647 208.343 97.0101C208.343 97.2555 208.48 97.4544 208.649 97.4544Z" fill="#FF6584"/>
<path d="M208.343 100.713C208.512 100.713 208.649 100.514 208.649 100.268C208.649 100.023 208.512 99.8242 208.343 99.8242C208.174 99.8242 208.037 100.023 208.037 100.268C208.037 100.514 208.174 100.713 208.343 100.713Z" fill="#FF6584"/>
<path d="M204.668 99.2317C204.837 99.2317 204.974 99.0328 204.974 98.7874C204.974 98.542 204.837 98.3431 204.668 98.3431C204.499 98.3431 204.362 98.542 204.362 98.7874C204.362 99.0328 204.499 99.2317 204.668 99.2317Z" fill="#FF6584"/>
<path d="M216.613 109.007C219.319 109.007 221.513 106.885 221.513 104.267C221.513 101.65 219.319 99.5279 216.613 99.5279C213.906 99.5279 211.712 101.65 211.712 104.267C211.712 106.885 213.906 109.007 216.613 109.007Z" fill="#FBAB7E"/>
<path opacity="0.2" d="M220.288 104.564C220.288 105.506 219.901 106.41 219.211 107.077C218.522 107.744 217.587 108.118 216.613 108.118C215.638 108.118 214.703 107.744 214.014 107.077C213.324 106.41 212.937 105.506 212.937 104.564" fill="black"/>
<path opacity="0.2" d="M212.937 103.971C212.937 103.028 213.324 102.124 214.014 101.458C214.703 100.791 215.638 100.417 216.613 100.417C217.587 100.417 218.522 100.791 219.211 101.458C219.901 102.124 220.288 103.028 220.288 103.971" fill="black"/>
<path d="M214.775 103.082C214.944 103.082 215.081 102.884 215.081 102.638C215.081 102.393 214.944 102.194 214.775 102.194C214.606 102.194 214.469 102.393 214.469 102.638C214.469 102.884 214.606 103.082 214.775 103.082Z" fill="#FBAB7E"/>
<path d="M216.613 102.49C216.782 102.49 216.919 102.291 216.919 102.046C216.919 101.8 216.782 101.601 216.613 101.601C216.443 101.601 216.306 101.8 216.306 102.046C216.306 102.291 216.443 102.49 216.613 102.49Z" fill="#FBAB7E"/>
<path d="M216.613 106.341C216.782 106.341 216.919 106.142 216.919 105.897C216.919 105.651 216.782 105.452 216.613 105.452C216.443 105.452 216.306 105.651 216.306 105.897C216.306 106.142 216.443 106.341 216.613 106.341Z" fill="#FBAB7E"/>
<path d="M218.45 103.971C218.619 103.971 218.757 103.772 218.757 103.527C218.757 103.281 218.619 103.082 218.45 103.082C218.281 103.082 218.144 103.281 218.144 103.527C218.144 103.772 218.281 103.971 218.45 103.971Z" fill="#FBAB7E"/>
<path d="M218.144 107.229C218.313 107.229 218.45 107.031 218.45 106.785C218.45 106.54 218.313 106.341 218.144 106.341C217.975 106.341 217.838 106.54 217.838 106.785C217.838 107.031 217.975 107.229 218.144 107.229Z" fill="#FBAB7E"/>
<path d="M214.469 105.748C214.638 105.748 214.775 105.549 214.775 105.304C214.775 105.059 214.638 104.86 214.469 104.86C214.299 104.86 214.162 105.059 214.162 105.304C214.162 105.549 214.299 105.748 214.469 105.748Z" fill="#FBAB7E"/>
<path d="M192.11 109.599C194.817 109.599 197.011 107.477 197.011 104.86C197.011 102.242 194.817 100.12 192.11 100.12C189.404 100.12 187.21 102.242 187.21 104.86C187.21 107.477 189.404 109.599 192.11 109.599Z" fill="#FBAB7E"/>
<path opacity="0.2" d="M195.786 105.156C195.786 106.099 195.399 107.003 194.709 107.669C194.02 108.336 193.085 108.711 192.11 108.711C191.136 108.711 190.201 108.336 189.512 107.669C188.822 107.003 188.435 106.099 188.435 105.156" fill="black"/>
<path opacity="0.2" d="M188.435 104.564C188.435 103.621 188.822 102.717 189.512 102.05C190.201 101.383 191.136 101.009 192.11 101.009C193.085 101.009 194.02 101.383 194.709 102.05C195.399 102.717 195.786 103.621 195.786 104.564" fill="black"/>
<path d="M190.273 103.675C190.442 103.675 190.579 103.476 190.579 103.231C190.579 102.985 190.442 102.786 190.273 102.786C190.104 102.786 189.967 102.985 189.967 103.231C189.967 103.476 190.104 103.675 190.273 103.675Z" fill="#FBAB7E"/>
<path d="M192.111 103.082C192.28 103.082 192.417 102.884 192.417 102.638C192.417 102.393 192.28 102.194 192.111 102.194C191.941 102.194 191.804 102.393 191.804 102.638C191.804 102.884 191.941 103.082 192.111 103.082Z" fill="#FBAB7E"/>
<path d="M192.111 106.933C192.28 106.933 192.417 106.734 192.417 106.489C192.417 106.244 192.28 106.045 192.111 106.045C191.941 106.045 191.804 106.244 191.804 106.489C191.804 106.734 191.941 106.933 192.111 106.933Z" fill="#FBAB7E"/>
<path d="M193.948 104.564C194.117 104.564 194.254 104.365 194.254 104.119C194.254 103.874 194.117 103.675 193.948 103.675C193.779 103.675 193.642 103.874 193.642 104.119C193.642 104.365 193.779 104.564 193.948 104.564Z" fill="#FBAB7E"/>
<path d="M193.642 107.822C193.811 107.822 193.948 107.623 193.948 107.378C193.948 107.132 193.811 106.933 193.642 106.933C193.473 106.933 193.336 107.132 193.336 107.378C193.336 107.623 193.473 107.822 193.642 107.822Z" fill="#FBAB7E"/>
<path d="M189.967 106.341C190.136 106.341 190.273 106.142 190.273 105.897C190.273 105.651 190.136 105.452 189.967 105.452C189.797 105.452 189.66 105.651 189.66 105.897C189.66 106.142 189.797 106.341 189.967 106.341Z" fill="#FBAB7E"/>
<path d="M203.136 111.673C205.843 111.673 208.037 109.551 208.037 106.933C208.037 104.316 205.843 102.194 203.136 102.194C200.43 102.194 198.236 104.316 198.236 106.933C198.236 109.551 200.43 111.673 203.136 111.673Z" fill="#FBAB7E"/>
<path opacity="0.2" d="M206.812 107.229C206.812 107.696 206.717 108.158 206.532 108.59C206.347 109.021 206.077 109.413 205.735 109.743C205.394 110.073 204.989 110.335 204.543 110.513C204.097 110.692 203.619 110.784 203.136 110.784C202.654 110.784 202.176 110.692 201.73 110.513C201.284 110.335 200.879 110.073 200.538 109.743C200.196 109.413 199.926 109.021 199.741 108.59C199.556 108.158 199.461 107.696 199.461 107.229" fill="black"/>
<path opacity="0.2" d="M199.461 106.637C199.461 106.17 199.556 105.708 199.741 105.277C199.926 104.845 200.196 104.454 200.538 104.124C200.879 103.793 201.284 103.532 201.73 103.353C202.176 103.174 202.654 103.082 203.136 103.082C203.619 103.082 204.097 103.174 204.543 103.353C204.989 103.532 205.394 103.793 205.735 104.124C206.077 104.454 206.347 104.845 206.532 105.277C206.717 105.708 206.812 106.17 206.812 106.637" fill="black"/>
<path d="M201.299 105.748C201.468 105.748 201.605 105.549 201.605 105.304C201.605 105.059 201.468 104.86 201.299 104.86C201.13 104.86 200.993 105.059 200.993 105.304C200.993 105.549 201.13 105.748 201.299 105.748Z" fill="#FBAB7E"/>
<path d="M203.136 105.156C203.306 105.156 203.443 104.957 203.443 104.712C203.443 104.466 203.306 104.267 203.136 104.267C202.967 104.267 202.83 104.466 202.83 104.712C202.83 104.957 202.967 105.156 203.136 105.156Z" fill="#FBAB7E"/>
<path d="M203.136 109.007C203.306 109.007 203.443 108.808 203.443 108.562C203.443 108.317 203.306 108.118 203.136 108.118C202.967 108.118 202.83 108.317 202.83 108.562C202.83 108.808 202.967 109.007 203.136 109.007Z" fill="#FBAB7E"/>
<path d="M204.974 106.637C205.143 106.637 205.28 106.438 205.28 106.193C205.28 105.947 205.143 105.748 204.974 105.748C204.805 105.748 204.668 105.947 204.668 106.193C204.668 106.438 204.805 106.637 204.974 106.637Z" fill="#FBAB7E"/>
<path d="M204.668 109.895C204.837 109.895 204.974 109.696 204.974 109.451C204.974 109.206 204.837 109.007 204.668 109.007C204.499 109.007 204.362 109.206 204.362 109.451C204.362 109.696 204.499 109.895 204.668 109.895Z" fill="#FBAB7E"/>
<path d="M200.993 108.414C201.162 108.414 201.299 108.215 201.299 107.97C201.299 107.725 201.162 107.526 200.993 107.526C200.823 107.526 200.686 107.725 200.686 107.97C200.686 108.215 200.823 108.414 200.993 108.414Z" fill="#FBAB7E"/>
<path d="M210.793 116.708C213.5 116.708 215.694 114.586 215.694 111.969C215.694 109.351 213.5 107.229 210.793 107.229C208.087 107.229 205.893 109.351 205.893 111.969C205.893 114.586 208.087 116.708 210.793 116.708Z" fill="#FF6584"/>
<path opacity="0.2" d="M214.469 112.265C214.469 113.208 214.081 114.112 213.392 114.779C212.703 115.445 211.768 115.82 210.793 115.82C209.819 115.82 208.884 115.445 208.195 114.779C207.505 114.112 207.118 113.208 207.118 112.265" fill="black"/>
<path opacity="0.2" d="M207.118 111.673C207.118 110.73 207.505 109.826 208.195 109.159C208.884 108.493 209.819 108.118 210.793 108.118C211.768 108.118 212.703 108.493 213.392 109.159C214.081 109.826 214.469 110.73 214.469 111.673" fill="black"/>
<path d="M208.956 110.784C209.125 110.784 209.262 110.585 209.262 110.34C209.262 110.094 209.125 109.895 208.956 109.895C208.787 109.895 208.649 110.094 208.649 110.34C208.649 110.585 208.787 110.784 208.956 110.784Z" fill="#FF6584"/>
<path d="M210.793 110.192C210.962 110.192 211.1 109.993 211.1 109.747C211.1 109.502 210.962 109.303 210.793 109.303C210.624 109.303 210.487 109.502 210.487 109.747C210.487 109.993 210.624 110.192 210.793 110.192Z" fill="#FF6584"/>
<path d="M210.793 114.042C210.962 114.042 211.1 113.843 211.1 113.598C211.1 113.353 210.962 113.154 210.793 113.154C210.624 113.154 210.487 113.353 210.487 113.598C210.487 113.843 210.624 114.042 210.793 114.042Z" fill="#FF6584"/>
<path d="M212.631 111.673C212.8 111.673 212.937 111.474 212.937 111.228C212.937 110.983 212.8 110.784 212.631 110.784C212.462 110.784 212.325 110.983 212.325 111.228C212.325 111.474 212.462 111.673 212.631 111.673Z" fill="#FF6584"/>
<path d="M212.325 114.931C212.494 114.931 212.631 114.732 212.631 114.487C212.631 114.241 212.494 114.042 212.325 114.042C212.156 114.042 212.018 114.241 212.018 114.487C212.018 114.732 212.156 114.931 212.325 114.931Z" fill="#FF6584"/>
<path d="M208.649 113.45C208.819 113.45 208.956 113.251 208.956 113.006C208.956 112.76 208.819 112.561 208.649 112.561C208.48 112.561 208.343 112.76 208.343 113.006C208.343 113.251 208.48 113.45 208.649 113.45Z" fill="#FF6584"/>
<path d="M147.774 95.1561C148.492 95.1561 149.073 94.5936 149.073 93.8999C149.073 93.2061 148.492 92.6436 147.774 92.6436C147.057 92.6436 146.475 93.2061 146.475 93.8999C146.475 94.5936 147.057 95.1561 147.774 95.1561Z" fill="#3F3D56"/>
<path d="M183.081 139.498L151.886 131.131L153.081 126.838L184.276 135.205L183.081 139.498Z" fill="#F9A825"/>
<path d="M178.508 138.063C167.825 140.041 156.852 140.041 146.169 138.063V133.613C156.876 135.329 167.801 135.329 178.508 133.613V138.063Z" fill="#F9A825"/>
<path d="M181.833 124.713C171.15 126.691 160.176 126.691 149.494 124.713V120.263C160.2 121.979 171.126 121.979 181.833 120.263V124.713Z" fill="#F9A825"/>
<path d="M193.015 130.053C182.333 132.031 171.359 132.031 160.676 130.053V125.603C171.383 127.319 182.309 127.319 193.015 125.603V130.053Z" fill="#F9A825"/>
<path d="M195.735 135.097C185.053 137.074 174.079 137.074 163.396 135.097V130.646C174.103 132.363 185.029 132.363 195.735 130.646V135.097Z" fill="#F9A825"/>
<path d="M205.219 141.687L173.313 146.87L172.573 142.48L204.478 137.296L205.219 141.687Z" fill="#F9A825"/>
<path d="M200.453 142.257C191.607 148.424 181.638 152.921 171.068 155.512L169.175 151.469C179.652 148.631 189.579 144.154 198.56 138.214L200.453 142.257Z" fill="#F9A825"/>
<path d="M197.795 128.764C188.949 134.931 178.98 139.428 168.41 142.019L166.517 137.975C176.994 135.138 186.921 130.66 195.902 124.72L197.795 128.764Z" fill="#F9A825"/>
<path d="M210.227 129.033C201.382 135.2 191.412 139.697 180.843 142.288L178.95 138.244C189.427 135.407 199.353 130.929 208.334 124.989L210.227 129.033Z" fill="#F9A825"/>
<path d="M214.844 132.501C205.999 138.667 196.029 143.164 185.46 145.756L183.567 141.712C194.044 138.875 203.97 134.397 212.951 128.457L214.844 132.501Z" fill="#F9A825"/>
<path d="M176.184 123.817H174.653V125.299H176.184V123.817Z" fill="#00BF71"/>
<path d="M180.778 149.588H179.247V151.069H180.778V149.588Z" fill="#00BF71"/>
<path d="M156.276 123.817H154.745V125.299H156.276V123.817Z" fill="#00BF71"/>
<path d="M191.804 142.183H190.273V143.664H191.804V142.183Z" fill="#00BF71"/>
<path d="M192.723 133.593H191.192V135.074H192.723V133.593Z" fill="#00BF71"/>
<path d="M167.461 129.537L165.687 128.373L164.999 129.354L166.773 130.518L167.461 129.537Z" fill="#00BF71"/>
<path d="M185.531 132.796L183.757 131.632L183.069 132.612L184.844 133.776L185.531 132.796Z" fill="#00BF71"/>
<path d="M163.48 138.424L161.705 137.26L161.018 138.24L162.792 139.404L163.48 138.424Z" fill="#00BF71"/>
<path d="M174.711 138.338L175.915 136.622L174.901 135.957L173.697 137.672L174.711 138.338Z" fill="#00BF71"/>
<path d="M182.98 140.411L184.184 138.695L183.17 138.03L181.967 139.746L182.98 140.411Z" fill="#00BF71"/>
<path d="M205.034 133.302L206.238 131.586L205.224 130.921L204.021 132.636L205.034 133.302Z" fill="#00BF71"/>
<path d="M350.003 184.146H0.127808V185H350.003V184.146Z" fill="#3F3D56"/>
</g>
<defs>
<clipPath id="clip0_5_1730">
<rect width="349.875" height="185" fill="white" transform="translate(0.127808)"/>
</clipPath>
</defs>
</svg>
