<svg width="309" height="199" viewBox="0 0 309 199" fill="none" xmlns="http://www.w3.org/2000/svg">
<g clip-path="url(#clip0_5_2188)">
<path d="M23.8505 160.133L21.6705 151.526C17.805 149.886 13.8501 148.465 9.82475 147.271L9.54948 151.271L8.43332 146.864C3.44123 145.437 0.045105 144.809 0.045105 144.809C0.045105 144.809 4.63248 162.271 14.2542 175.622L25.4655 177.593L16.7557 178.85C17.9665 180.308 19.2678 181.689 20.6517 182.983C34.6486 195.989 50.2384 201.956 55.4726 196.311C60.7068 190.666 53.6033 175.547 39.6065 162.541C35.2673 158.51 29.8164 155.274 24.3601 152.728L23.8505 160.133Z" fill="#E6E6E6"/>
<path d="M44.5845 150.785L47.1628 142.289C44.7006 138.885 42.0484 135.623 39.2191 132.518L36.9179 135.8L38.238 131.449C34.7014 127.645 32.1188 125.349 32.1188 125.349C32.1188 125.349 27.0287 142.672 28.3717 159.079L36.9512 166.568L28.8461 163.137C29.1297 165.012 29.5308 166.867 30.0471 168.691C35.3134 187.067 45.5778 200.242 52.9734 198.118C60.3689 195.994 62.095 179.376 56.8287 161C55.1961 155.303 52.2006 149.713 48.8446 144.71L44.5845 150.785Z" fill="#E6E6E6"/>
<path d="M284.694 169.093L289.582 166.017C289.822 163.293 289.908 160.557 289.841 157.823L287.311 158.453L289.814 156.879C289.696 153.498 289.405 151.267 289.405 151.267C289.405 151.267 279.522 157.609 273.191 166.247L274.218 173.591L271.695 168.444C271.036 169.487 270.443 170.57 269.919 171.687C264.678 182.968 264.11 193.827 268.65 195.941C273.191 198.054 281.12 190.623 286.361 179.342C287.986 175.844 288.895 171.817 289.377 167.925L284.694 169.093Z" fill="#E6E6E6"/>
<path d="M294.63 180.072L300.402 179.969C302.014 177.761 303.501 175.463 304.855 173.087L302.364 172.318L305.319 172.265C306.964 169.311 307.866 167.25 307.866 167.25C307.866 167.25 296.132 167.565 286.252 171.684L283.338 178.502L283.837 172.791C282.734 173.342 281.667 173.963 280.642 174.648C270.33 181.593 264.237 190.595 267.032 194.753C269.827 198.912 280.452 196.653 290.764 189.708C293.961 187.555 296.819 184.578 299.241 181.496L294.63 180.072Z" fill="#E6E6E6"/>
<path d="M308.349 198.094H0.748016V198.871H308.349V198.094Z" fill="#3F3D56"/>
<path d="M88.0739 21.439L87.2773 21.0389L85.119 25.3452L85.9156 25.7453L88.0739 21.439Z" fill="white"/>
<path d="M83.4827 129.2L83.2195 129.23L83.3856 130.657L83.6488 130.626L83.4827 129.2Z" fill="#3F3D56"/>
<path d="M85.059 141.789L84.9753 141.537L83.6136 141.989L83.6972 142.242L85.059 141.789Z" fill="white"/>
<path d="M83.824 134.394L83.5594 134.41L83.6456 135.844L83.9101 135.828L83.824 134.394Z" fill="white"/>
<path d="M82.5841 126.533L82.3195 126.549L82.4056 127.982L82.6702 127.967L82.5841 126.533Z" fill="white"/>
<path d="M101.536 132.397L101.437 132.15L100.106 132.688L100.206 132.934L101.536 132.397Z" fill="#FF6584"/>
<path d="M85.852 131.977L85.596 131.908L85.2247 133.295L85.4808 133.364L85.852 131.977Z" fill="#FF6584"/>
<path d="M100.118 24.4838H99.2806V29.0116H100.118V24.4838Z" fill="#3F3D56"/>
<path d="M99.6157 35.3841H98.7781V39.9119H99.6157V35.3841Z" fill="white"/>
<path d="M98.9812 130.015L98.8046 129.839L97.8512 130.793L98.0278 130.97L98.9812 130.015Z" fill="white"/>
<path d="M101.488 144.473L101.312 144.296L100.358 145.251L100.535 145.427L101.488 144.473Z" fill="white"/>
<path d="M99.4876 138.48L99.2469 138.416L98.898 139.719L99.1387 139.784L99.4876 138.48Z" fill="#FF6584"/>
<path d="M100.111 133.55L99.9346 133.374L98.9812 134.328L99.1577 134.505L100.111 133.55Z" fill="#FF6584"/>
<path d="M96.2764 133.388C96.4912 133.173 96.6119 132.881 96.6119 132.577C96.6119 132.273 96.4912 131.981 96.2764 131.766C96.0616 131.551 95.7702 131.43 95.4664 131.43C95.1626 131.43 94.8713 131.551 94.6565 131.766L58.1058 168.355C57.891 168.57 57.7703 168.861 57.7703 169.166C57.7703 169.47 57.891 169.761 58.1058 169.976C58.3206 170.191 58.612 170.312 58.9158 170.312C59.2196 170.312 59.5109 170.191 59.7257 169.976L96.0412 133.623" fill="#3F3D56"/>
<path d="M100.012 128.77C97.35 126.108 93.89 124.392 90.1613 123.885C86.4327 123.378 82.6408 124.108 79.3655 125.962C76.0903 127.817 73.5121 130.694 72.0252 134.154C70.5383 137.615 70.2245 141.467 71.132 145.123C72.0394 148.779 74.1181 152.036 77.05 154.397C79.9819 156.758 83.6058 158.093 87.3672 158.197C91.1286 158.301 94.8206 157.169 97.8785 154.974C100.936 152.779 103.192 149.641 104.3 146.042C105.221 143.044 105.309 139.853 104.554 136.809C103.798 133.766 102.228 130.986 100.012 128.77V128.77ZM85.9132 147.528C84.7278 147.198 83.6478 146.567 82.7782 145.696C82.6024 145.52 82.4397 145.334 82.2834 145.145C81.2095 143.821 80.644 142.156 80.689 140.45C80.7341 138.745 81.3866 137.112 82.529 135.846C83.6713 134.58 85.2281 133.765 86.9184 133.547C88.6086 133.329 90.3208 133.724 91.746 134.659C93.1712 135.595 94.2153 137.009 94.69 138.648C95.1646 140.286 95.0385 142.04 94.3344 143.594C93.6302 145.147 92.3944 146.398 90.8502 147.119C89.3059 147.84 87.5549 147.985 85.9132 147.528Z" fill="#FBAB7E"/>
<path d="M60.9854 32.9231C60.9854 31.9029 60.5806 30.9245 59.8599 30.2031C59.1393 29.4817 58.1619 29.0765 57.1428 29.0765C56.1237 29.0765 55.1463 29.4817 54.4257 30.2031C53.7051 30.9245 53.3002 31.9029 53.3002 32.9231V195.046C53.3002 195.551 53.3996 196.051 53.5927 196.518C53.7858 196.985 54.0689 197.409 54.4257 197.766C54.7825 198.123 55.2061 198.407 55.6723 198.6C56.1385 198.793 56.6382 198.893 57.1428 198.893C57.6474 198.893 58.1471 198.793 58.6133 198.6C59.0795 198.407 59.5031 198.123 59.8599 197.766C60.2168 197.409 60.4998 196.985 60.6929 196.518C60.886 196.051 60.9854 195.551 60.9854 195.046V34.0403" fill="#3F3D56"/>
<path d="M110.001 31.486C103.403 18.9926 92.4662 9.34794 79.2534 4.37105C66.0406 -0.605845 51.4653 -0.570932 38.2764 4.4692C25.0876 9.50933 14.1969 19.2063 7.65851 31.7311C1.1201 44.256 -0.614072 58.7429 2.78307 72.4596C6.1802 86.1762 14.4738 98.1745 26.0997 106.191C37.7255 114.208 51.88 117.689 65.8933 115.978C79.9067 114.267 92.8103 107.482 102.17 96.9034C111.531 86.3243 116.7 72.6823 116.704 58.5504C116.708 49.1167 114.407 39.8253 110.001 31.486V31.486ZM70.6824 79.4394C66.0982 82.0297 60.7893 83.0366 55.5762 82.3045C50.3631 81.5723 45.536 79.1418 41.8408 75.3887C38.1456 71.6355 35.7881 66.7686 35.1324 61.54C34.4768 56.3114 35.5597 51.0122 38.2136 46.4612C40.8676 41.9103 44.9449 38.361 49.8155 36.3618C54.6861 34.3626 60.0789 34.0249 65.1605 35.4007C70.242 36.7766 74.7295 39.7894 77.9295 43.9737C81.1294 48.158 82.8636 53.2807 82.8642 58.5504C82.8769 62.8029 81.7543 66.9816 79.6126 70.6541C77.4709 74.3267 74.3878 77.3597 70.6824 79.4394H70.6824Z" fill="#FBAB7E"/>
<path opacity="0.2" d="M58.7402 112.715C43.7244 112.715 29.2982 106.864 18.5164 96.4025C7.73455 85.9405 1.44359 71.6885 0.975611 56.6644C0.955601 57.2902 0.94537 57.9184 0.944918 58.5491C0.943059 66.148 2.43661 73.6728 5.34026 80.6938C8.24391 87.7148 12.5008 94.0944 17.8678 99.4683C23.2347 104.842 29.6067 109.105 36.6196 112.013C43.6326 114.922 51.1492 116.419 58.7402 116.419C66.3312 116.419 73.8478 114.922 80.8608 112.013C87.8737 109.105 94.2457 104.842 99.6126 99.4683C104.98 94.0944 109.236 87.7148 112.14 80.6938C115.044 73.6728 116.537 66.148 116.535 58.5491C116.535 57.9176 116.525 57.2886 116.505 56.6621C116.037 71.6867 109.747 85.9392 98.9648 96.4017C88.1829 106.864 73.7564 112.715 58.7402 112.715V112.715Z" fill="black"/>
<path opacity="0.2" d="M58.9076 29.6806C53.2041 29.6809 47.6287 31.3742 42.8866 34.5464C38.1444 37.7186 34.4485 42.2273 32.266 47.5022C30.0835 52.7771 29.5125 58.5813 30.6253 64.1811C31.7381 69.7808 34.4846 74.9244 38.5176 78.9616C42.5506 82.9988 47.6889 85.7482 53.2828 86.8621C58.8767 87.9761 64.6749 87.4045 69.9443 85.2198C75.2137 83.035 79.7176 79.3351 82.8865 74.588C86.0554 69.841 87.747 64.2598 87.7473 58.5504C87.7388 50.8962 84.6976 43.558 79.2909 38.1457C73.8843 32.7335 66.5537 29.6891 58.9076 29.6806V29.6806ZM70.6824 79.4393C66.0981 82.0297 60.7893 83.0366 55.5762 82.3044C50.3631 81.5723 45.536 79.1418 41.8408 75.3887C38.1456 71.6355 35.788 66.7686 35.1324 61.54C34.4768 56.3114 35.5596 51.0121 38.2136 46.4612C40.8675 41.9103 44.9449 38.361 49.8155 36.3618C54.6861 34.3626 60.0789 34.0249 65.1604 35.4007C70.242 36.7765 74.7295 39.7894 77.9294 43.9737C81.1293 48.158 82.8636 53.2807 82.8641 58.5504C82.8768 62.8029 81.7543 66.9816 79.6126 70.6541C77.4709 74.3266 74.3878 77.3596 70.6824 79.4393V79.4393Z" fill="black"/>
<path d="M110.002 30.7908V40.415C110.003 41.1177 109.793 41.8044 109.4 42.3868C109.007 42.9692 108.449 43.4205 107.798 43.6826C107.147 43.9448 106.432 44.0057 105.746 43.8576C105.06 43.7095 104.433 43.3591 103.948 42.8516V43.9484C103.948 45.0572 103.508 46.1205 102.725 46.9046C101.941 47.6886 100.879 48.1291 99.7715 48.1291C98.6639 48.1291 97.6016 47.6886 96.8184 46.9046C96.0352 46.1205 95.5952 45.0572 95.5952 43.9484V43.0344C95.09 43.4893 94.4639 43.7878 93.7927 43.8937C93.1215 43.9997 92.434 43.9085 91.8135 43.6313C91.193 43.3541 90.6661 42.9027 90.2967 42.3319C89.9272 41.761 89.731 41.0952 89.7319 40.415L89.5644 30.1855V27.826C89.5638 27.4483 89.4135 27.0863 89.1465 26.8195C88.8795 26.5526 88.5177 26.4028 88.1404 26.4028C87.7631 26.4028 87.4013 26.5526 87.1343 26.8195C86.8673 27.0863 86.7171 27.4483 86.7165 27.826V30.1855L86.5489 38.738C86.5489 39.672 86.1783 40.5678 85.5186 41.2282C84.8588 41.8887 83.964 42.2597 83.031 42.2597C82.0979 42.2597 81.2031 41.8887 80.5434 41.2282C79.8836 40.5678 79.513 39.672 79.513 38.738L79.0825 30.1855V25.8136C79.0825 25.194 78.8366 24.5999 78.399 24.1618C77.9613 23.7237 77.3678 23.4776 76.7489 23.4776C76.13 23.4776 75.5364 23.7237 75.0988 24.1618C74.6611 24.5999 74.4153 25.194 74.4153 25.8136V30.1855L74.1523 38.738C74.1528 39.4704 73.9251 40.1848 73.5008 40.7815C73.0765 41.3781 72.4768 41.8274 71.7852 42.0666C71.0937 42.3059 70.3449 42.3232 69.6431 42.1161C68.9413 41.909 68.3215 41.4878 67.8702 40.9114C67.3138 41.6234 66.5046 42.0932 65.611 42.2232C64.7173 42.3531 63.8081 42.1331 63.0723 41.609V43.9484C63.0723 45.0572 62.6323 46.1205 61.8491 46.9046C61.0659 47.6886 60.0036 48.1291 58.896 48.1291C57.7884 48.1291 56.7261 47.6886 55.9429 46.9046C55.1597 46.1205 54.7197 45.0572 54.7197 43.9484V36.7257C54.72 37.5313 54.4442 38.3127 53.9385 38.9393C53.4327 39.566 52.7275 40 51.9406 40.169C51.1537 40.338 50.3327 40.2316 49.6147 39.8677C48.8967 39.5038 48.3251 38.9044 47.9953 38.1695V43.9484C47.9953 45.0572 47.5553 46.1205 46.7721 46.9046C45.9889 47.6886 44.9266 48.1291 43.819 48.1291C42.7113 48.1291 41.6491 47.6886 40.8658 46.9046C40.0826 46.1205 39.6426 45.0572 39.6426 43.9484V30.1855H39.6192V43.9484C39.6192 45.0572 39.1792 46.1205 38.3959 46.9046C37.6127 47.6886 36.5505 48.1291 35.4428 48.1291C34.3352 48.1291 33.2729 47.6886 32.4897 46.9046C31.7065 46.1205 31.2665 45.0572 31.2665 43.9484V38.2182C30.9276 38.9438 30.3517 39.532 29.6338 39.8857C28.9158 40.2393 28.0989 40.3372 27.3178 40.1633C26.5368 39.9893 25.8384 39.5539 25.338 38.9288C24.8376 38.3038 24.5651 37.5266 24.5656 36.7257V30.1855H24.2071V41.936C24.2071 43.0448 23.7671 44.1082 22.9839 44.8922C22.2006 45.6762 21.1384 46.1167 20.0307 46.1167C18.9231 46.1167 17.8608 45.6762 17.0776 44.8922C16.2944 44.1082 15.8544 43.0448 15.8544 41.936V36.7257C15.8549 37.1884 15.7642 37.6467 15.5876 38.0744C15.411 38.5021 15.152 38.8907 14.8252 39.2181C14.4985 39.5455 14.1105 39.8052 13.6835 39.9824C13.2565 40.1596 12.7987 40.2508 12.3364 40.2508C11.8741 40.2508 11.4164 40.1596 10.9893 39.9824C10.5623 39.8052 10.1743 39.5455 9.84761 39.2181C9.52089 38.8907 9.26183 38.5021 9.08524 38.0744C8.90865 37.6467 8.81799 37.1884 8.81845 36.7257V28.973C13.978 20.0126 21.4418 12.6 30.4334 7.5062C39.425 2.41243 49.6159 -0.176325 59.9458 0.0092599C70.2758 0.194845 80.3673 3.14799 89.1706 8.56146C97.9738 13.9749 105.167 21.6509 110.002 30.7908V30.7908Z" fill="#E6E6E6"/>
<path opacity="0.2" d="M35.4428 46.1167C34.8944 46.1168 34.3513 46.0087 33.8446 45.7986C33.3379 45.5885 32.8774 45.2805 32.4896 44.8923C32.1018 44.5041 31.7942 44.0432 31.5843 43.536C31.3745 43.0287 31.2665 42.4851 31.2665 41.936V44.1161C31.2665 45.2249 31.7065 46.2883 32.4897 47.0723C33.2729 47.8563 34.3352 48.2968 35.4428 48.2968C36.5505 48.2968 37.6128 47.8563 38.396 47.0723C39.1792 46.2883 39.6192 45.2249 39.6192 44.1161V41.936C39.6192 42.4851 39.5112 43.0287 39.3014 43.536C39.0915 44.0432 38.7839 44.5041 38.3961 44.8923C38.0082 45.2806 37.5478 45.5885 37.0411 45.7986C36.5344 46.0087 35.9913 46.1168 35.4428 46.1167Z" fill="black"/>
<path opacity="0.2" d="M43.819 46.1167C43.2705 46.1168 42.7274 46.0087 42.2207 45.7986C41.714 45.5885 41.2536 45.2805 40.8658 44.8923C40.4779 44.5041 40.1703 44.0432 39.9605 43.536C39.7506 43.0287 39.6426 42.4851 39.6426 41.936V44.1161C39.6426 45.2249 40.0826 46.2883 40.8659 47.0723C41.6491 47.8563 42.7114 48.2968 43.819 48.2968C44.9266 48.2968 45.9889 47.8563 46.7721 47.0723C47.5553 46.2883 47.9953 45.2249 47.9953 44.1161V41.936C47.9954 42.4851 47.8874 43.0287 47.6775 43.536C47.4676 44.0432 47.16 44.5041 46.7722 44.8923C46.3844 45.2806 45.924 45.5885 45.4172 45.7986C44.9105 46.0087 44.3674 46.1168 43.819 46.1167V46.1167Z" fill="black"/>
<path opacity="0.2" d="M31.2665 36.2058C30.9277 36.9314 30.3517 37.5197 29.6338 37.8733C28.9159 38.227 28.0989 38.3249 27.3179 38.1509C26.5368 37.977 25.8384 37.5415 25.338 36.9165C24.8376 36.2915 24.5651 35.5143 24.5656 34.7133V36.8934C24.5651 37.6944 24.8376 38.4716 25.338 39.0966C25.8384 39.7216 26.5368 40.1571 27.3179 40.331C28.0989 40.505 28.9159 40.407 29.6338 40.0534C30.3517 39.6997 30.9277 39.1115 31.2665 38.3859V36.2058Z" fill="black"/>
<path opacity="0.2" d="M39.6426 28.1732H39.6192V30.3532H39.6426V28.1732Z" fill="black"/>
<path opacity="0.2" d="M15.8544 34.7133C15.8535 35.6467 15.4825 36.5416 14.8228 37.2012C14.1632 37.8609 13.2689 38.2315 12.3365 38.2315C11.404 38.2315 10.5098 37.8609 9.8501 37.2012C9.19046 36.5416 8.81941 35.6467 8.81848 34.7133V36.8934C8.81941 37.8268 9.19046 38.7216 9.8501 39.3813C10.5098 40.041 11.404 40.4115 12.3365 40.4115C13.2689 40.4115 14.1632 40.041 14.8228 39.3813C15.4825 38.7216 15.8535 37.8268 15.8544 36.8934V34.7133Z" fill="black"/>
<path opacity="0.2" d="M24.5647 28.1732H24.2071V30.3532H24.5647V28.1732Z" fill="black"/>
<path opacity="0.2" d="M20.0308 44.1043C19.4823 44.1044 18.9392 43.9963 18.4325 43.7862C17.9258 43.5761 17.4654 43.2682 17.0775 42.8799C16.6897 42.4917 16.3821 42.0308 16.1722 41.5236C15.9624 41.0163 15.8544 40.4727 15.8544 39.9236V42.1037C15.8544 43.2125 16.2944 44.2759 17.0777 45.0599C17.8609 45.844 18.9231 46.2844 20.0308 46.2844C21.1384 46.2844 22.2007 45.844 22.9839 45.0599C23.7671 44.2759 24.2071 43.2125 24.2071 42.1037V39.9236C24.2072 40.4727 24.0992 41.0163 23.8893 41.5236C23.6794 42.0308 23.3718 42.4917 22.984 42.8799C22.5962 43.2682 22.1357 43.5761 21.629 43.7862C21.1223 43.9963 20.5792 44.1044 20.0308 44.1043V44.1043Z" fill="black"/>
<path opacity="0.2" d="M58.896 46.1167C58.3475 46.1168 57.8044 46.0087 57.2977 45.7986C56.791 45.5885 56.3306 45.2805 55.9428 44.8923C55.555 44.5041 55.2473 44.0432 55.0375 43.536C54.8276 43.0287 54.7196 42.4851 54.7197 41.936V44.1161C54.7197 45.2249 55.1597 46.2883 55.9429 47.0723C56.7261 47.8563 57.7884 48.2968 58.896 48.2968C60.0036 48.2968 61.0659 47.8563 61.8491 47.0723C62.6323 46.2883 63.0723 45.2249 63.0723 44.1161V41.936C63.0724 42.4851 62.9644 43.0287 62.7545 43.536C62.5447 44.0432 62.237 44.5041 61.8492 44.8923C61.4614 45.2806 61.001 45.5885 60.4943 45.7986C59.9875 46.0087 59.4444 46.1168 58.896 46.1167Z" fill="black"/>
<path opacity="0.2" d="M89.5643 25.8136C89.5643 25.4356 89.4143 25.073 89.1473 24.8057C88.8802 24.5384 88.5181 24.3882 88.1404 24.3882C87.7628 24.3882 87.4006 24.5384 87.1335 24.8057C86.8665 25.073 86.7165 25.4356 86.7165 25.8136V27.9937C86.7162 27.8063 86.7528 27.6207 86.8242 27.4475C86.8956 27.2743 87.0005 27.1169 87.1327 26.9843C87.265 26.8517 87.4221 26.7465 87.595 26.6747C87.7679 26.603 87.9532 26.566 88.1404 26.566C88.3276 26.566 88.5129 26.603 88.6858 26.6747C88.8587 26.7465 89.0158 26.8517 89.1481 26.9843C89.2803 27.1169 89.3852 27.2743 89.4566 27.4475C89.528 27.6207 89.5646 27.8063 89.5643 27.9937V25.8136Z" fill="black"/>
<path opacity="0.2" d="M54.7197 34.7133C54.72 35.519 54.4442 36.3003 53.9385 36.927C53.4327 37.5537 52.7275 37.9877 51.9406 38.1567C51.1537 38.3256 50.3327 38.2193 49.6147 37.8554C48.8967 37.4915 48.3251 36.8921 47.9953 36.1572V38.3373C48.3251 39.0722 48.8967 39.6716 49.6147 40.0355C50.3327 40.3994 51.1537 40.5057 51.9406 40.3367C52.7275 40.1678 53.4327 39.7337 53.9385 39.1071C54.4442 38.4804 54.72 37.699 54.7197 36.8934V34.7133Z" fill="black"/>
<path opacity="0.2" d="M83.031 40.2473C82.569 40.2474 82.1115 40.1564 81.6846 39.9794C81.2578 39.8024 80.87 39.543 80.5433 39.216C80.2166 38.889 79.9575 38.5007 79.7807 38.0734C79.6039 37.6462 79.5129 37.1882 79.513 36.7257L79.0825 28.1732V30.3532L79.513 38.9058C79.513 39.8398 79.8837 40.7355 80.5434 41.396C81.2031 42.0564 82.098 42.4274 83.031 42.4274C83.964 42.4274 84.8588 42.0564 85.5186 41.396C86.1783 40.7355 86.549 39.8398 86.549 38.9058L86.7165 30.3532V28.1732L86.549 36.7257C86.549 37.1882 86.458 37.6462 86.2813 38.0734C86.1045 38.5007 85.8454 38.889 85.5187 39.216C85.192 39.543 84.8042 39.8024 84.3773 39.9794C83.9505 40.1564 83.493 40.2474 83.031 40.2473V40.2473Z" fill="black"/>
<path opacity="0.2" d="M106.484 41.9243C106.01 41.9245 105.541 41.8284 105.105 41.6419C104.669 41.4554 104.275 41.1824 103.948 40.8393V41.9361C103.948 43.0448 103.508 44.1082 102.725 44.8922C101.941 45.6763 100.879 46.1167 99.7715 46.1167C98.6638 46.1167 97.6016 45.6763 96.8184 44.8922C96.0351 44.1082 95.5951 43.0448 95.5951 41.9361V41.0221C95.0899 41.477 94.4638 41.7755 93.7927 41.8814C93.1215 41.9873 92.434 41.8962 91.8135 41.619C91.193 41.3418 90.6661 40.8904 90.2967 40.3196C89.9272 39.7487 89.731 39.0829 89.7319 38.4027L89.5643 28.1732V30.3532L89.7319 40.5828C89.731 41.2629 89.9272 41.9288 90.2967 42.4996C90.6661 43.0705 91.193 43.5218 91.8135 43.799C92.434 44.0763 93.1215 44.1674 93.7927 44.0615C94.4639 43.9555 95.09 43.6571 95.5951 43.2022V44.1161C95.5951 45.2249 96.0352 46.2883 96.8184 47.0723C97.6016 47.8564 98.6639 48.2968 99.7715 48.2968C100.879 48.2968 101.941 47.8564 102.725 47.0723C103.508 46.2883 103.948 45.2249 103.948 44.1161V43.0194C104.433 43.5269 105.06 43.8772 105.746 44.0254C106.432 44.1735 107.147 44.1125 107.798 43.8504C108.449 43.5883 109.007 43.1369 109.4 42.5546C109.793 41.9722 110.003 41.2855 110.002 40.5828V38.4027C110.002 38.8652 109.911 39.3231 109.734 39.7504C109.558 40.1777 109.299 40.566 108.972 40.893C108.645 41.22 108.257 41.4794 107.83 41.6564C107.404 41.8333 106.946 41.9244 106.484 41.9243V41.9243Z" fill="black"/>
<path opacity="0.2" d="M70.6343 40.2473C70.1015 40.2473 69.5758 40.1259 69.0969 39.8923C68.618 39.6587 68.1984 39.319 67.8702 38.899C67.3138 39.611 66.5046 40.0809 65.611 40.2108C64.7173 40.3408 63.8081 40.1208 63.0723 39.5966V41.7767C63.8081 42.3008 64.7173 42.5208 65.611 42.3909C66.5046 42.2609 67.3138 41.7911 67.8702 41.0791C68.3215 41.6555 68.9412 42.0767 69.643 42.2838C70.3448 42.4909 71.0937 42.4736 71.7852 42.2343C72.4767 41.9951 73.0765 41.5458 73.5008 40.9492C73.9251 40.3525 74.1528 39.6381 74.1523 38.9057L74.4153 30.3532V28.1731L74.1523 36.7257C74.1523 37.1881 74.0614 37.6461 73.8846 38.0734C73.7078 38.5007 73.4487 38.8889 73.122 39.216C72.7953 39.543 72.4075 39.8024 71.9806 39.9793C71.5538 40.1563 71.0963 40.2474 70.6343 40.2473Z" fill="black"/>
<path opacity="0.2" d="M79.0824 23.8013C79.0824 23.1817 78.8366 22.5876 78.3989 22.1495C77.9613 21.7114 77.3678 21.4653 76.7489 21.4653C76.13 21.4653 75.5364 21.7114 75.0988 22.1495C74.6611 22.5876 74.4153 23.1817 74.4153 23.8013V25.9813C74.4153 25.3618 74.6611 24.7676 75.0988 24.3295C75.5364 23.8915 76.13 23.6453 76.7489 23.6453C77.3678 23.6453 77.9613 23.8915 78.3989 24.3295C78.8366 24.7676 79.0824 25.3618 79.0824 25.9813V23.8013Z" fill="black"/>
<path d="M40.0614 24.2322H39.2238V28.7601H40.0614V24.2322Z" fill="#3F3D56"/>
<path d="M55.8923 21.8007H55.0547V26.3285H55.8923V21.8007Z" fill="#3F3D56"/>
<path d="M35.7896 39.5765H34.952V44.1044H35.7896V39.5765Z" fill="#3F3D56"/>
<path d="M70.0032 31.6648L69.3144 31.1877L66.7409 34.9111L67.4297 35.3882L70.0032 31.6648Z" fill="#3F3D56"/>
<path d="M25.6485 24.5111L25.1288 25.1686L28.6759 27.9781L29.1956 27.3206L25.6485 24.5111Z" fill="#3F3D56"/>
<path d="M74.9002 7.5737L74.3804 8.23126L77.9275 11.0407L78.4473 10.3832L74.9002 7.5737Z" fill="#3F3D56"/>
<path d="M16.4348 29.2066L15.9151 29.8642L19.4622 32.6737L19.9819 32.0161L16.4348 29.2066Z" fill="#3F3D56"/>
<path d="M43.1606 13.5835H42.323V18.1113H43.1606V13.5835Z" fill="white"/>
<path d="M20.21 36.8934H19.3724V41.4212H20.21V36.8934Z" fill="white"/>
<path d="M59.4103 7.04327H58.5727V11.5711H59.4103V7.04327Z" fill="white"/>
<path d="M64.0655 22.8998L63.3168 22.5238L61.2885 26.5708L62.0371 26.9468L64.0655 22.8998Z" fill="white"/>
<path d="M60.2125 39.6695L59.4638 39.2935L57.4354 43.3405L58.1841 43.7165L60.2125 39.6695Z" fill="white"/>
<path d="M48.6984 30.4661L48.1427 31.0936L51.5272 34.0973L52.0829 33.4699L48.6984 30.4661Z" fill="white"/>
<path d="M32.1136 10.8455L31.558 11.473L34.9425 14.4767L35.4982 13.8493L32.1136 10.8455Z" fill="white"/>
<path d="M87.2285 18.3919L86.6729 19.0193L90.0574 22.0231L90.6131 21.3957L87.2285 18.3919Z" fill="white"/>
<path d="M66.9583 3.63455L66.4026 4.26196L69.7872 7.26569L70.3428 6.63828L66.9583 3.63455Z" fill="white"/>
<path d="M49.5265 21.8007H48.6888V26.3285H49.5265V21.8007Z" fill="#FF6584"/>
<path d="M96.7807 24.6599L96.0097 24.3323L94.2421 28.5L95.0131 28.8277L96.7807 24.6599Z" fill="#FF6584"/>
<path d="M32.76 29.1053L32.0346 29.5245L34.2961 33.4457L35.0215 33.0265L32.76 29.1053Z" fill="#FF6584"/>
<path d="M80.6714 25.9191L79.946 26.3383L82.2076 30.2595L82.933 29.8403L80.6714 25.9191Z" fill="#FF6584"/>
<path d="M50.8529 9.31733L50.1275 9.73657L52.3891 13.6578L53.1145 13.2386L50.8529 9.31733Z" fill="#FF6584"/>
<path d="M86.3672 8.47852L85.6418 8.89777L87.9034 12.819L88.6288 12.3997L86.3672 8.47852Z" fill="#FF6584"/>
<path d="M40.2985 4.78919L39.5731 5.20844L41.8347 9.12965L42.5601 8.71041L40.2985 4.78919Z" fill="#FF6584"/>
<path d="M70.4668 12.745H69.6292V17.2728H70.4668V12.745Z" fill="#FF6584"/>
<path d="M22.2203 20.2914H21.3827V24.8192H22.2203V20.2914Z" fill="#FF6584"/>
<path opacity="0.2" d="M76.3884 152.349C73.2233 149.18 71.4144 144.903 71.3447 140.423C71.275 135.943 72.9499 131.611 76.0149 128.345C75.8789 128.473 75.7444 128.603 75.6116 128.736C74.0106 130.337 72.7405 132.239 71.8738 134.331C71.0071 136.424 70.5608 138.667 70.5603 140.933C70.5598 143.198 71.0052 145.442 71.8711 147.535C72.7369 149.628 74.0062 151.53 75.6065 153.132C77.2067 154.734 79.1066 156.004 81.1975 156.871C83.2885 157.738 85.5295 158.184 87.7926 158.183C90.0557 158.183 92.2966 157.736 94.3871 156.868C96.4777 156.001 98.377 154.729 99.9766 153.127C100.11 152.994 100.24 152.859 100.368 152.722C97.1053 155.791 92.7782 157.468 88.3024 157.398C83.8266 157.328 79.5537 155.517 76.3884 152.349V152.349Z" fill="black"/>
<path opacity="0.2" d="M94.6051 134.183C93.2647 132.84 91.5567 131.926 89.697 131.555C87.8373 131.184 85.9095 131.374 84.1575 132.1C82.4055 132.826 80.9079 134.056 79.8543 135.634C78.8007 137.212 78.2383 139.068 78.2383 140.966C78.2383 142.864 78.8007 144.72 79.8543 146.298C80.9079 147.876 82.4055 149.106 84.1575 149.832C85.9095 150.558 87.8373 150.748 89.697 150.377C91.5567 150.006 93.2647 149.092 94.6051 147.749C96.3985 145.948 97.4056 143.509 97.4056 140.966C97.4056 138.423 96.3985 135.984 94.6051 134.183V134.183ZM92.8797 145.696C91.5399 147.037 89.7232 147.79 87.829 147.79C85.9347 147.79 84.118 147.037 82.7782 145.696C82.6024 145.52 82.4396 145.334 82.2834 145.145C81.4135 144.072 80.8731 142.769 80.7277 141.394C80.5823 140.02 80.8382 138.633 81.4642 137.401C82.0903 136.168 83.0597 135.145 84.2551 134.453C85.4506 133.761 86.8207 133.431 88.1997 133.503C89.5787 133.574 90.9073 134.045 92.0248 134.857C93.1422 135.669 94.0005 136.788 94.4957 138.078C94.991 139.368 95.1019 140.774 94.8151 142.127C94.5283 143.479 93.856 144.719 92.8797 145.696V145.696Z" fill="black"/>
<path d="M104.645 145.696L102.618 147.725C102.47 147.873 102.282 147.974 102.076 148.014C101.871 148.053 101.658 148.031 101.466 147.949C101.273 147.866 101.11 147.728 100.996 147.552C100.883 147.376 100.825 147.17 100.829 146.961L100.598 147.192C100.365 147.426 100.048 147.557 99.7178 147.557C99.3876 147.557 99.071 147.426 98.8375 147.192C98.604 146.959 98.4728 146.642 98.4728 146.311C98.4728 145.98 98.604 145.663 98.8375 145.43L99.0299 145.237C98.8277 145.226 98.6328 145.157 98.4691 145.038C98.3053 144.919 98.1796 144.754 98.1071 144.565C98.0347 144.376 98.0187 144.169 98.061 143.971C98.1033 143.773 98.2022 143.591 98.3456 143.448L100.464 141.256L100.961 140.759C101.041 140.679 101.085 140.571 101.085 140.458C101.085 140.346 101.041 140.238 100.961 140.158C100.882 140.078 100.774 140.033 100.661 140.033C100.548 140.033 100.44 140.078 100.361 140.158L99.864 140.655L98.0278 142.423C97.8311 142.62 97.5644 142.73 97.2862 142.73C97.0081 142.73 96.7414 142.62 96.5447 142.423C96.348 142.226 96.2375 141.959 96.2375 141.68C96.2375 141.402 96.348 141.135 96.5447 140.938L98.2548 139.044L99.1754 138.123C99.3049 137.992 99.3774 137.815 99.377 137.631C99.3766 137.447 99.3034 137.27 99.1733 137.14C99.0432 137.01 98.8669 136.937 98.6829 136.936C98.4989 136.936 98.3223 137.008 98.1916 137.138L97.2711 138.06L95.4147 139.807C94.5821 139.313 93.6928 138.921 92.7663 138.64C92.6127 138.487 92.5107 138.289 92.4747 138.074L91.9821 138.567C91.7486 138.801 91.4319 138.932 91.1018 138.932C90.7716 138.932 90.4549 138.801 90.2214 138.567C89.988 138.333 89.8568 138.016 89.8568 137.686C89.8568 137.355 89.988 137.038 90.2214 136.805L91.7423 135.282C91.5727 135.452 91.3501 135.559 91.1115 135.584C90.873 135.609 90.6329 135.552 90.4315 135.422C90.23 135.291 90.0794 135.096 90.0046 134.867C89.9299 134.639 89.9356 134.392 90.0209 134.168L88.804 135.386C88.5705 135.62 88.2538 135.751 87.9237 135.751C87.5935 135.751 87.2768 135.62 87.0433 135.386C86.8099 135.152 86.6787 134.835 86.6787 134.505C86.6787 134.174 86.8099 133.857 87.0433 133.623L89.9414 130.722L89.9364 130.717L87.0384 133.618C86.8049 133.852 86.4883 133.983 86.1581 133.983C85.8279 133.983 85.5112 133.852 85.2778 133.618C85.0443 133.385 84.9131 133.068 84.9131 132.737C84.9131 132.407 85.0443 132.09 85.2778 131.856L86.4844 130.648C86.2601 130.73 86.0149 130.732 85.7891 130.655C85.5633 130.578 85.3704 130.426 85.2424 130.225C85.1144 130.023 85.0589 129.784 85.085 129.547C85.1112 129.31 85.2174 129.088 85.3862 128.92L86.7633 127.541L86.6878 127.465L84.2135 129.942C83.98 130.176 83.6633 130.307 83.3331 130.307C83.0029 130.307 82.6863 130.176 82.4528 129.942C82.2193 129.708 82.0882 129.391 82.0882 129.061C82.0882 128.73 82.2193 128.413 82.4528 128.18L83.5499 127.081C83.3533 127.278 83.0865 127.389 82.8084 127.389C82.5303 127.389 82.2635 127.278 82.0669 127.081C81.8702 126.885 81.7597 126.618 81.7597 126.339C81.7597 126.061 81.8702 125.794 82.0669 125.597L83.6993 123.963C86.6737 123.163 89.8078 123.175 92.7757 123.999C95.7436 124.822 98.4369 126.427 100.575 128.646C102.714 130.864 104.219 133.616 104.935 136.615C105.65 139.614 105.55 142.749 104.645 145.696V145.696Z" fill="#E6E6E6"/>
<path opacity="0.2" d="M85.7015 133.194C85.5859 133.079 85.4942 132.941 85.4316 132.79C85.369 132.639 85.3368 132.477 85.3368 132.313C85.3368 132.149 85.369 131.987 85.4316 131.836C85.4942 131.685 85.5859 131.547 85.7015 131.432L85.2425 131.891C85.009 132.125 84.8778 132.442 84.8778 132.773C84.8778 133.103 85.009 133.42 85.2425 133.654C85.4759 133.887 85.7926 134.019 86.1228 134.019C86.453 134.019 86.7696 133.887 87.0031 133.654L87.4621 133.194C87.3465 133.31 87.2093 133.402 87.0583 133.464C86.9072 133.527 86.7453 133.559 86.5818 133.559C86.4183 133.559 86.2564 133.527 86.1054 133.464C85.9543 133.402 85.8171 133.31 85.7015 133.194V133.194Z" fill="black"/>
<path opacity="0.2" d="M87.4671 134.962C87.3515 134.846 87.2597 134.709 87.1972 134.557C87.1346 134.406 87.1024 134.244 87.1024 134.08C87.1024 133.917 87.1346 133.755 87.1972 133.604C87.2597 133.452 87.3515 133.315 87.4671 133.199L87.008 133.659C86.8924 133.774 86.8007 133.912 86.7381 134.063C86.6756 134.214 86.6434 134.376 86.6434 134.54C86.6434 134.704 86.6756 134.866 86.7381 135.017C86.8007 135.168 86.8924 135.306 87.008 135.421C87.1236 135.537 87.2609 135.629 87.4119 135.691C87.563 135.754 87.7248 135.786 87.8883 135.786C88.0518 135.786 88.2137 135.754 88.3648 135.691C88.5158 135.629 88.6531 135.537 88.7687 135.421L89.2277 134.962C89.1121 135.077 88.9749 135.169 88.8238 135.232C88.6728 135.295 88.5109 135.327 88.3474 135.327C88.1839 135.327 88.022 135.295 87.871 135.232C87.7199 135.169 87.5827 135.077 87.4671 134.962V134.962Z" fill="black"/>
<path opacity="0.2" d="M86.9081 130.224C86.6839 130.305 86.4386 130.308 86.2128 130.231C85.987 130.154 85.7942 130.002 85.6662 129.801C85.5382 129.599 85.4827 129.36 85.5088 129.123C85.5349 128.885 85.6411 128.664 85.8099 128.495L85.3509 128.955C85.1821 129.124 85.0759 129.345 85.0497 129.582C85.0236 129.82 85.0791 130.059 85.2071 130.26C85.3351 130.462 85.528 130.613 85.7538 130.69C85.9796 130.767 86.2248 130.765 86.449 130.683L86.9081 130.224Z" fill="black"/>
<path opacity="0.2" d="M90.3596 130.294L89.9011 130.753L89.9061 130.758L90.3645 130.299L90.3596 130.294Z" fill="black"/>
<path opacity="0.2" d="M83.9737 126.657C83.8763 126.755 83.7607 126.832 83.6335 126.885C83.5062 126.938 83.3699 126.965 83.2322 126.965C83.0944 126.965 82.9581 126.938 82.8308 126.885C82.7036 126.832 82.588 126.755 82.4906 126.657C82.3932 126.56 82.316 126.444 82.2633 126.317C82.2106 126.189 82.1835 126.053 82.1835 125.915C82.1835 125.777 82.2106 125.641 82.2633 125.513C82.316 125.386 82.3932 125.27 82.4906 125.173L82.0316 125.632C81.8349 125.829 81.7244 126.096 81.7244 126.374C81.7244 126.653 81.8349 126.92 82.0316 127.117C82.2282 127.314 82.495 127.424 82.7731 127.424C83.0512 127.424 83.318 127.314 83.5146 127.117L83.9737 126.657Z" fill="black"/>
<path opacity="0.2" d="M87.1109 127.042L86.6524 127.501L86.7279 127.576L87.1864 127.117L87.1109 127.042Z" fill="black"/>
<path opacity="0.2" d="M82.8765 129.518C82.7609 129.402 82.6692 129.265 82.6066 129.114C82.5441 128.962 82.5119 128.8 82.5119 128.637C82.5119 128.473 82.5441 128.311 82.6066 128.16C82.6692 128.009 82.7609 127.871 82.8765 127.755L82.4175 128.215C82.3019 128.331 82.2102 128.468 82.1476 128.619C82.0851 128.771 82.0529 128.933 82.0529 129.096C82.0529 129.26 82.0851 129.422 82.1476 129.573C82.2102 129.724 82.3019 129.862 82.4175 129.978C82.5331 130.093 82.6703 130.185 82.8214 130.248C82.9724 130.31 83.1343 130.343 83.2978 130.343C83.4613 130.343 83.6232 130.31 83.7742 130.248C83.9253 130.185 84.0625 130.093 84.1781 129.978L84.6372 129.518C84.5216 129.634 84.3843 129.726 84.2333 129.788C84.0822 129.851 83.9204 129.883 83.7569 129.883C83.5934 129.883 83.4315 129.851 83.2804 129.788C83.1294 129.726 82.9921 129.634 82.8765 129.518V129.518Z" fill="black"/>
<path opacity="0.2" d="M90.6451 138.143C90.5295 138.027 90.4378 137.89 90.3752 137.739C90.3127 137.588 90.2805 137.426 90.2805 137.262C90.2805 137.098 90.3127 136.936 90.3752 136.785C90.4378 136.634 90.5295 136.496 90.6451 136.381L90.1861 136.84C90.0705 136.956 89.9788 137.093 89.9162 137.244C89.8537 137.396 89.8215 137.558 89.8215 137.721C89.8215 137.885 89.8537 138.047 89.9162 138.198C89.9788 138.35 90.0705 138.487 90.1861 138.603C90.3017 138.718 90.439 138.81 90.59 138.873C90.7411 138.935 90.9029 138.968 91.0664 138.968C91.2299 138.968 91.3918 138.935 91.5429 138.873C91.6939 138.81 91.8311 138.718 91.9468 138.603L92.4058 138.143C92.2902 138.259 92.153 138.351 92.0019 138.413C91.8509 138.476 91.689 138.508 91.5255 138.508C91.362 138.508 91.2001 138.476 91.049 138.413C90.898 138.351 90.7607 138.259 90.6451 138.143Z" fill="black"/>
<path opacity="0.2" d="M101.385 140.335C101.464 140.255 101.509 140.147 101.509 140.034C101.509 139.921 101.464 139.813 101.385 139.734C101.305 139.654 101.197 139.609 101.085 139.609C100.972 139.609 100.864 139.654 100.785 139.734L100.326 140.193C100.405 140.114 100.513 140.069 100.626 140.069C100.738 140.069 100.846 140.114 100.926 140.193C101.005 140.273 101.05 140.381 101.05 140.494C101.05 140.606 101.005 140.714 100.926 140.794L101.385 140.335Z" fill="black"/>
<path opacity="0.2" d="M92.166 134.858C91.9964 135.028 91.7738 135.134 91.5352 135.16C91.2966 135.185 91.0566 135.128 90.8552 134.998C90.6537 134.867 90.503 134.671 90.4283 134.443C90.3536 134.215 90.3593 133.968 90.4446 133.744L89.9855 134.203C89.9003 134.428 89.8945 134.675 89.9693 134.903C90.044 135.131 90.1946 135.327 90.3961 135.457C90.5975 135.587 90.8376 135.645 91.0762 135.619C91.3147 135.594 91.5374 135.488 91.7069 135.318L92.166 134.858Z" fill="black"/>
<path opacity="0.2" d="M96.9684 141.998C96.871 141.901 96.7938 141.785 96.7411 141.658C96.6883 141.531 96.6612 141.394 96.6612 141.256C96.6612 141.118 96.6883 140.982 96.7411 140.854C96.7938 140.727 96.871 140.611 96.9684 140.514L98.6786 138.62L98.2195 139.08L96.5094 140.973C96.412 141.071 96.3347 141.187 96.282 141.314C96.2293 141.441 96.2022 141.578 96.2022 141.716C96.2022 141.854 96.2293 141.99 96.282 142.117C96.3347 142.245 96.412 142.361 96.5094 142.458C96.6067 142.556 96.7224 142.633 96.8496 142.686C96.9768 142.738 97.1132 142.766 97.2509 142.766C97.3886 142.766 97.525 142.738 97.6522 142.686C97.7795 142.633 97.8951 142.556 97.9925 142.458L99.8287 140.691L100.288 140.231L98.4515 141.998C98.3541 142.096 98.2385 142.173 98.1113 142.226C97.9841 142.279 97.8477 142.306 97.71 142.306C97.5722 142.306 97.4359 142.279 97.3086 142.226C97.1814 142.173 97.0658 142.096 96.9684 141.998V141.998Z" fill="black"/>
<path opacity="0.2" d="M101.559 147.301C101.459 147.201 101.38 147.082 101.328 146.95C101.275 146.819 101.25 146.678 101.253 146.537L101.022 146.768C100.906 146.884 100.769 146.976 100.618 147.038C100.467 147.101 100.305 147.133 100.142 147.133C99.978 147.133 99.8161 147.101 99.6651 147.038C99.5141 146.976 99.3768 146.884 99.2612 146.768C99.1456 146.652 99.0539 146.515 98.9913 146.364C98.9288 146.213 98.8966 146.051 98.8966 145.887C98.8966 145.723 98.9288 145.561 98.9913 145.41C99.0539 145.259 99.1456 145.121 99.2612 145.006L99.4537 144.813C99.2514 144.802 99.0566 144.733 98.8928 144.614C98.729 144.494 98.6033 144.33 98.5309 144.141C98.4584 143.951 98.4424 143.745 98.4847 143.547C98.5271 143.349 98.6259 143.167 98.7693 143.024L100.888 140.832L100.429 141.292L98.3103 143.483C98.1669 143.626 98.068 143.808 98.0257 144.006C97.9834 144.205 97.9994 144.411 98.0718 144.6C98.1442 144.79 98.2699 144.954 98.4337 145.073C98.5975 145.193 98.7923 145.262 98.9946 145.273L98.8022 145.465C98.5687 145.699 98.4375 146.016 98.4375 146.346C98.4375 146.677 98.5687 146.994 98.8022 147.228C99.0356 147.461 99.3523 147.593 99.6825 147.593C100.013 147.593 100.329 147.461 100.563 147.228L100.794 146.996C100.789 147.206 100.847 147.412 100.961 147.588C101.074 147.764 101.238 147.902 101.43 147.984C101.623 148.066 101.835 148.089 102.041 148.049C102.246 148.009 102.435 147.909 102.583 147.76L103.042 147.301C102.945 147.398 102.829 147.476 102.702 147.528C102.575 147.581 102.438 147.608 102.3 147.608C102.163 147.608 102.026 147.581 101.899 147.528C101.772 147.476 101.656 147.398 101.559 147.301V147.301Z" fill="black"/>
<path opacity="0.2" d="M94.3553 139.383C94.3746 139.225 94.3577 139.065 94.3059 138.915C94.2542 138.764 94.1689 138.628 94.0566 138.515C93.9443 138.403 93.8079 138.318 93.6578 138.266C93.5076 138.214 93.3477 138.197 93.1901 138.216C93.0364 138.062 92.9344 137.865 92.8984 137.65L92.4393 138.11C92.8279 138.219 93.1746 138.442 93.4344 138.751C93.6943 139.06 93.8552 139.44 93.8963 139.842C93.9937 139.94 94.1093 140.017 94.2365 140.07C94.3637 140.123 94.5001 140.15 94.6378 140.15C94.7756 140.15 94.9119 140.123 95.0392 140.07C95.1664 140.017 95.282 139.94 95.3794 139.842L97.2357 138.095L97.6948 137.635L95.8384 139.383C95.7411 139.48 95.6255 139.558 95.4982 139.61C95.371 139.663 95.2346 139.69 95.0969 139.69C94.9592 139.69 94.8228 139.663 94.6956 139.61C94.5683 139.558 94.4527 139.48 94.3553 139.383V139.383Z" fill="black"/>
<path opacity="0.2" d="M99.5991 137.699C99.6642 137.634 99.7158 137.557 99.7511 137.473C99.7864 137.388 99.8047 137.297 99.8049 137.206C99.8051 137.114 99.7872 137.023 99.7522 136.938C99.7173 136.854 99.6659 136.777 99.6011 136.712C99.5364 136.647 99.4595 136.596 99.3748 136.561C99.2902 136.526 99.1994 136.508 99.1078 136.508C99.0162 136.508 98.9256 136.526 98.8411 136.562C98.7566 136.597 98.6799 136.649 98.6154 136.714L98.1563 137.173C98.2208 137.108 98.2975 137.057 98.382 137.021C98.4665 136.986 98.5572 136.968 98.6488 136.967C98.7404 136.967 98.8311 136.985 98.9158 137.02C99.0004 137.055 99.0773 137.107 99.1421 137.171C99.2069 137.236 99.2582 137.313 99.2932 137.398C99.3281 137.483 99.346 137.574 99.3458 137.665C99.3456 137.757 99.3274 137.848 99.2921 137.932C99.2568 138.017 99.2051 138.094 99.1401 138.158L99.5991 137.699Z" fill="black"/>
<path d="M91.2832 129.556L91.1067 129.379L90.1533 130.334L90.3298 130.51L91.2832 129.556Z" fill="#3F3D56"/>
<path d="M95.1322 132.384L94.9556 132.207L94.0022 133.161L94.1788 133.338L95.1322 132.384Z" fill="#3F3D56"/>
<path d="M98.9426 130.303L98.766 130.126L97.8126 131.081L97.9892 131.258L98.9426 130.303Z" fill="#3F3D56"/>
<path d="M87.1517 131.889L86.9752 131.712L86.0218 132.667L86.1983 132.843L87.1517 131.889Z" fill="#3F3D56"/>
<path d="M96.0297 137.441L95.985 137.195L94.6584 137.437L94.7032 137.682L96.0297 137.441Z" fill="#3F3D56"/>
<path d="M101.572 135.013L101.527 134.767L100.201 135.009L100.246 135.255L101.572 135.013Z" fill="#3F3D56"/>
<path d="M88.1858 126.573L87.9384 126.602L88.0945 127.943L88.3419 127.914L88.1858 126.573Z" fill="#3F3D56"/>
<path d="M85.2549 125.619L85.0075 125.648L85.1636 126.989L85.411 126.96L85.2549 125.619Z" fill="#3F3D56"/>
<path d="M94.1788 127.965L94.0022 127.788L93.0488 128.743L93.2254 128.92L94.1788 127.965Z" fill="white"/>
<path d="M101.453 132.82L101.277 132.643L100.323 133.597L100.5 133.774L101.453 132.82Z" fill="white"/>
<path d="M104.224 139.755L104.048 139.578L103.094 140.533L103.271 140.709L104.224 139.755Z" fill="white"/>
<path d="M84.4327 128.036L84.2562 127.859L83.3027 128.814L83.4793 128.99L84.4327 128.036Z" fill="white"/>
<path d="M96.6235 134.34L96.5449 134.103L95.2652 134.528L95.3438 134.765L96.6235 134.34Z" fill="white"/>
<path d="M92.2802 137.062L92.2016 136.825L90.9218 137.25L91.0005 137.487L92.2802 137.062Z" fill="white"/>
<path d="M91.7905 132.692L91.5419 132.707L91.6228 134.055L91.8714 134.04L91.7905 132.692Z" fill="white"/>
<path d="M92.4261 125.057L92.1775 125.072L92.2584 126.419L92.507 126.404L92.4261 125.057Z" fill="white"/>
<path d="M93.7904 131.041L93.6138 130.864L92.6604 131.818L92.8369 131.995L93.7904 131.041Z" fill="#FF6584"/>
<path d="M102.104 142.83L101.927 142.654L100.974 143.608L101.15 143.785L102.104 142.83Z" fill="#FF6584"/>
<path d="M103.489 136.935L103.313 136.759L102.36 137.713L102.536 137.89L103.489 136.935Z" fill="#FF6584"/>
<path d="M88.7175 129.042L88.4769 128.978L88.128 130.281L88.3686 130.346L88.7175 129.042Z" fill="#FF6584"/>
<path d="M96.6979 128.689L96.4573 128.624L96.1084 129.928L96.349 129.992L96.6979 128.689Z" fill="#FF6584"/>
<path d="M95.4267 125.507L95.1861 125.443L94.8372 126.746L95.0778 126.811L95.4267 125.507Z" fill="#FF6584"/>
<path d="M88.3523 124.961L88.1758 124.784L87.2224 125.738L87.3989 125.915L88.3523 124.961Z" fill="#FF6584"/>
<path d="M268.635 71.7547C268.635 71.0189 268.343 70.3133 267.823 69.7931C267.304 69.2729 266.599 68.9806 265.864 68.9806C265.129 68.9806 264.424 69.2729 263.904 69.7931C263.385 70.3133 263.093 71.0189 263.093 71.7547V196.119C263.093 196.854 263.385 197.56 263.904 198.08C264.424 198.6 265.129 198.893 265.864 198.893C266.599 198.893 267.304 198.6 267.823 198.08C268.343 197.56 268.635 196.854 268.635 196.119V72.5604" fill="#3F3D56"/>
<path d="M303.985 78.3548C299.116 69.1638 290.995 62.1241 281.211 58.6156C271.428 55.107 260.688 55.3824 251.097 59.3879C241.506 63.3934 233.755 70.8401 229.363 80.2686C224.971 89.6971 224.255 100.428 227.355 110.357H232.527C233.566 110.357 234.418 111.515 234.418 112.934H235.367C236.41 112.934 237.262 114.092 237.262 115.51C237.262 116.925 236.41 118.086 235.367 118.086H234.418C234.416 118.302 234.394 118.517 234.352 118.728H238.682C239.725 118.728 240.577 119.889 240.577 121.304C240.577 122.723 239.725 123.881 238.682 123.881H234.546C241.02 132.004 250.29 137.417 260.541 139.06C270.792 140.703 281.286 138.458 289.971 132.765C298.655 127.071 304.905 118.338 307.497 108.275C310.089 98.2115 308.836 87.5423 303.985 78.3548H303.985ZM275.629 112.94C273.037 114.405 270.111 115.172 267.135 115.167C266.539 115.166 265.944 115.136 265.351 115.077C261.254 114.648 257.445 112.767 254.612 109.774C251.778 106.781 250.107 102.872 249.9 98.7535C249.693 94.6351 250.964 90.5782 253.482 87.3152C256.001 84.0522 259.602 81.7982 263.636 80.9599C267.669 80.1216 271.869 80.7544 275.477 82.744C279.085 84.7336 281.864 87.9489 283.312 91.8095C284.76 95.6701 284.781 99.9216 283.372 103.797C281.963 107.672 279.217 110.915 275.629 112.94V112.94Z" fill="#FBAB7E"/>
<path opacity="0.2" d="M240.463 120.438C240.539 120.155 240.577 119.864 240.577 119.571C240.577 118.154 239.724 116.995 238.682 116.995H236.91C236.777 117.301 236.563 117.564 236.291 117.757C236.019 117.949 235.699 118.062 235.367 118.085H234.419C234.417 118.301 234.395 118.517 234.352 118.729H238.682C239.5 118.729 240.2 119.445 240.463 120.438Z" fill="black"/>
<path opacity="0.2" d="M235.367 112.933C236.185 112.933 236.884 113.649 237.148 114.642C237.223 114.359 237.261 114.068 237.261 113.775C237.261 112.358 236.409 111.199 235.367 111.199H234.419C234.419 109.782 233.567 108.623 232.525 108.623H227.355C226.176 104.841 225.541 100.909 225.472 96.9473C225.465 97.2557 225.456 97.5637 225.456 97.8738C225.452 102.107 226.092 106.317 227.355 110.357H232.525C233.567 110.357 234.419 111.516 234.419 112.933H235.367Z" fill="black"/>
<path opacity="0.2" d="M267.137 137.864C261.255 137.87 255.438 136.627 250.072 134.217C244.706 131.806 239.911 128.283 236.006 123.881H234.545C239.932 130.646 247.287 135.568 255.592 137.965C263.897 140.362 272.741 140.115 280.899 137.258C289.057 134.401 296.127 129.076 301.129 122.02C306.13 114.964 308.817 106.526 308.817 97.8738C308.817 97.613 308.81 97.3538 308.805 97.0941C308.556 107.992 304.057 118.359 296.27 125.979C288.482 133.598 278.026 137.864 267.137 137.864Z" fill="black"/>
<path opacity="0.2" d="M267.135 77.1133C263.033 77.114 259.024 78.3321 255.614 80.6137C252.204 82.8954 249.546 86.1379 247.977 89.9315C246.408 93.725 245.998 97.8991 246.799 101.926C247.599 105.953 249.575 109.652 252.475 112.555C255.376 115.458 259.071 117.435 263.094 118.236C267.117 119.036 271.286 118.625 275.076 117.054C278.865 115.482 282.104 112.821 284.382 109.407C286.661 105.993 287.877 101.98 287.877 97.8737C287.871 92.3691 285.683 87.0919 281.795 83.1998C277.906 79.3078 272.634 77.1189 267.135 77.1133V77.1133ZM275.629 112.94C273.037 114.405 270.111 115.172 267.135 115.167C266.539 115.166 265.944 115.136 265.351 115.076C261.254 114.648 257.445 112.767 254.612 109.774C251.778 106.781 250.107 102.872 249.9 98.7534C249.693 94.635 250.963 90.5781 253.482 87.3151C256.001 84.0521 259.602 81.7981 263.636 80.9598C267.669 80.1215 271.869 80.7543 275.477 82.7439C279.085 84.7335 281.864 87.9488 283.312 91.8094C284.76 95.67 284.781 99.9215 283.372 103.796C281.963 107.671 279.217 110.915 275.629 112.94Z" fill="black"/>
<path d="M303.985 77.6619V84.6026C303.985 85.1094 303.834 85.6046 303.55 86.0246C303.267 86.4446 302.865 86.7701 302.395 86.9591C301.925 87.1482 301.41 87.1921 300.915 87.0853C300.42 86.9785 299.969 86.7258 299.618 86.3598V87.1508C299.618 87.9504 299.301 88.7173 298.736 89.2827C298.171 89.8481 297.405 90.1658 296.606 90.1658C295.808 90.1658 295.042 89.8481 294.477 89.2827C293.912 88.7173 293.595 87.9504 293.595 87.1508V86.4917C293.23 86.8197 292.779 87.035 292.295 87.1114C291.811 87.1878 291.315 87.1221 290.867 86.9221C290.42 86.7222 290.04 86.3967 289.773 85.985C289.507 85.5733 289.366 85.0931 289.366 84.6026L289.245 77.2253V75.5237C289.245 75.251 289.137 74.9896 288.945 74.7968C288.752 74.604 288.491 74.4957 288.218 74.4957C287.946 74.4957 287.685 74.604 287.492 74.7968C287.3 74.9896 287.192 75.251 287.192 75.5237V77.2253L287.071 83.3932C287.071 84.0668 286.803 84.7128 286.328 85.189C285.852 85.6653 285.206 85.9329 284.534 85.9329C283.861 85.9329 283.215 85.6653 282.74 85.189C282.264 84.7128 281.997 84.0668 281.997 83.3932L281.686 77.2253V74.0724C281.686 73.6256 281.509 73.1971 281.193 72.8812C280.878 72.5652 280.449 72.3878 280.003 72.3878C279.557 72.3878 279.129 72.5652 278.813 72.8812C278.498 73.1971 278.32 73.6256 278.32 74.0724V77.2253L278.131 83.3932C278.131 83.9214 277.967 84.4366 277.661 84.8669C277.355 85.2972 276.922 85.6212 276.423 85.7937C275.925 85.9662 275.385 85.9787 274.879 85.8293C274.372 85.68 273.926 85.3763 273.6 84.9605C273.199 85.474 272.615 85.8129 271.971 85.9066C271.326 86.0003 270.671 85.8417 270.14 85.4637V87.1508C270.14 87.9504 269.823 88.7173 269.258 89.2827C268.693 89.8481 267.927 90.1658 267.128 90.1658C266.329 90.1658 265.563 89.8481 264.998 89.2827C264.434 88.7173 264.116 87.9504 264.116 87.1508V81.9419C264.116 82.5229 263.918 83.0864 263.553 83.5384C263.188 83.9903 262.68 84.3033 262.112 84.4252C261.545 84.547 260.952 84.4703 260.435 84.2079C259.917 83.9455 259.505 83.5132 259.267 82.9832V87.1508C259.266 87.9498 258.948 88.7159 258.383 89.2806C257.819 89.8453 257.053 90.1626 256.255 90.1626C255.457 90.1626 254.691 89.8453 254.126 89.2806C253.562 88.7159 253.244 87.9498 253.243 87.1508V77.2253H253.226V87.1508C253.226 87.9504 252.909 88.7173 252.344 89.2827C251.779 89.8481 251.013 90.1658 250.214 90.1658C249.415 90.1658 248.649 89.8481 248.085 89.2827C247.52 88.7173 247.202 87.9504 247.202 87.1508V83.0183C246.958 83.5416 246.543 83.9658 246.025 84.2208C245.507 84.4759 244.918 84.5465 244.355 84.4211C243.791 84.2956 243.288 83.9816 242.927 83.5308C242.566 83.0801 242.37 82.5196 242.37 81.9419V77.2253H242.111V85.6995C242.111 86.4992 241.794 87.266 241.229 87.8315C240.664 88.3969 239.898 88.7145 239.099 88.7145C238.301 88.7145 237.535 88.3969 236.97 87.8315C236.405 87.266 236.088 86.4992 236.088 85.6995V81.9419C236.088 82.6155 235.82 83.2615 235.345 83.7378C234.869 84.2141 234.223 84.4816 233.551 84.4816C232.878 84.4816 232.232 84.2141 231.757 83.7378C231.281 83.2615 231.013 82.6155 231.013 81.9419V76.3509C234.734 69.8889 240.117 64.5431 246.602 60.8696C253.086 57.1961 260.436 55.3292 267.885 55.463C275.335 55.5969 282.613 57.7266 288.961 61.6306C295.31 65.5347 300.498 71.0704 303.985 77.6619V77.6619Z" fill="#E6E6E6"/>
<path opacity="0.2" d="M250.214 88.7146C249.819 88.7146 249.427 88.6367 249.062 88.4851C248.696 88.3336 248.364 88.1116 248.085 87.8316C247.805 87.5516 247.583 87.2192 247.432 86.8534C247.28 86.4876 247.202 86.0955 247.202 85.6996V87.2718C247.202 88.0714 247.52 88.8383 248.085 89.4037C248.649 89.9691 249.415 90.2868 250.214 90.2868C251.013 90.2868 251.779 89.9691 252.344 89.4037C252.909 88.8383 253.226 88.0714 253.226 87.2718V85.6996C253.226 86.0955 253.148 86.4876 252.997 86.8534C252.846 87.2192 252.624 87.5516 252.344 87.8316C252.064 88.1116 251.732 88.3336 251.367 88.4851C251.001 88.6367 250.61 88.7146 250.214 88.7146V88.7146Z" fill="black"/>
<path opacity="0.2" d="M256.255 88.7146C255.859 88.7146 255.468 88.6367 255.102 88.4851C254.737 88.3336 254.405 88.1116 254.125 87.8316C253.845 87.5516 253.624 87.2192 253.472 86.8534C253.321 86.4876 253.243 86.0955 253.243 85.6996V87.2718C253.243 88.0714 253.56 88.8383 254.125 89.4037C254.69 89.9691 255.456 90.2868 256.255 90.2868C257.054 90.2868 257.82 89.9691 258.385 89.4037C258.949 88.8383 259.267 88.0714 259.267 87.2718V85.6996C259.267 86.0955 259.189 86.4876 259.038 86.8534C258.886 87.2192 258.664 87.5516 258.385 87.8316C258.105 88.1116 257.773 88.3336 257.408 88.4851C257.042 88.6367 256.65 88.7146 256.255 88.7146Z" fill="black"/>
<path opacity="0.2" d="M247.202 81.5671C246.958 82.0904 246.543 82.5146 246.025 82.7696C245.507 83.0247 244.918 83.0953 244.355 82.9698C243.791 82.8444 243.288 82.5303 242.927 82.0796C242.566 81.6289 242.37 81.0684 242.37 80.4907V82.0629C242.37 82.6406 242.566 83.2011 242.927 83.6518C243.288 84.1025 243.791 84.4166 244.355 84.542C244.918 84.6675 245.507 84.5969 246.025 84.3418C246.543 84.0868 246.958 83.6626 247.202 83.1393V81.5671Z" fill="black"/>
<path opacity="0.2" d="M253.243 75.774H253.226V77.3463H253.243V75.774Z" fill="black"/>
<path opacity="0.2" d="M236.088 80.4907C236.088 81.1643 235.82 81.8103 235.345 82.2866C234.869 82.7629 234.223 83.0304 233.551 83.0304C232.878 83.0304 232.232 82.7629 231.757 82.2866C231.281 81.8103 231.013 81.1643 231.013 80.4907V82.0629C231.013 82.7365 231.281 83.3825 231.757 83.8588C232.232 84.3351 232.878 84.6026 233.551 84.6026C234.223 84.6026 234.869 84.3351 235.345 83.8588C235.82 83.3825 236.088 82.7365 236.088 82.0629V80.4907Z" fill="black"/>
<path opacity="0.2" d="M242.369 75.774H242.111V77.3463H242.369V75.774Z" fill="black"/>
<path opacity="0.2" d="M239.099 87.2633C238.704 87.2633 238.312 87.1854 237.947 87.0339C237.581 86.8824 237.249 86.6603 236.97 86.3803C236.69 86.1003 236.468 85.7679 236.317 85.4021C236.165 85.0363 236.088 84.6442 236.088 84.2483V85.8205C236.088 86.6201 236.405 87.387 236.97 87.9524C237.535 88.5178 238.301 88.8355 239.099 88.8355C239.898 88.8355 240.664 88.5178 241.229 87.9524C241.794 87.387 242.111 86.6201 242.111 85.8205V84.2483C242.111 84.6442 242.034 85.0363 241.882 85.4021C241.731 85.7679 241.509 86.1003 241.229 86.3803C240.95 86.6603 240.618 86.8824 240.252 87.0339C239.887 87.1854 239.495 87.2633 239.099 87.2633V87.2633Z" fill="black"/>
<path opacity="0.2" d="M267.128 88.7146C266.733 88.7146 266.341 88.6367 265.975 88.4851C265.61 88.3336 265.278 88.1116 264.998 87.8316C264.719 87.5516 264.497 87.2192 264.345 86.8534C264.194 86.4876 264.116 86.0955 264.116 85.6996V87.2718C264.116 88.0714 264.434 88.8383 264.998 89.4037C265.563 89.9691 266.329 90.2868 267.128 90.2868C267.927 90.2868 268.693 89.9691 269.258 89.4037C269.823 88.8383 270.14 88.0714 270.14 87.2718V85.6996C270.14 86.0955 270.062 86.4876 269.911 86.8534C269.759 87.2192 269.538 87.5516 269.258 87.8316C268.978 88.1116 268.646 88.3336 268.281 88.4851C267.915 88.6367 267.524 88.7146 267.128 88.7146Z" fill="black"/>
<path opacity="0.2" d="M289.245 74.0724C289.245 73.7998 289.137 73.5383 288.945 73.3455C288.752 73.1527 288.491 73.0444 288.218 73.0444C287.946 73.0444 287.685 73.1527 287.492 73.3455C287.3 73.5383 287.191 73.7998 287.191 74.0724V75.6446C287.191 75.372 287.3 75.1105 287.492 74.9177C287.685 74.7249 287.946 74.6166 288.218 74.6166C288.491 74.6166 288.752 74.7249 288.945 74.9177C289.137 75.1105 289.245 75.372 289.245 75.6446V74.0724Z" fill="black"/>
<path opacity="0.2" d="M264.116 80.4907C264.116 81.0717 263.918 81.6352 263.553 82.0872C263.188 82.5391 262.68 82.8521 262.112 82.974C261.545 83.0958 260.953 83.0191 260.435 82.7567C259.917 82.4943 259.505 82.062 259.267 81.532V83.1042C259.505 83.6342 259.917 84.0665 260.435 84.3289C260.953 84.5913 261.545 84.668 262.112 84.5462C262.68 84.4243 263.188 84.1113 263.553 83.6594C263.918 83.2074 264.116 82.6439 264.116 82.0629V80.4907Z" fill="black"/>
<path opacity="0.2" d="M284.534 84.4817C284.2 84.4817 283.871 84.416 283.563 84.2884C283.255 84.1608 282.975 83.9737 282.74 83.7379C282.504 83.502 282.317 83.222 282.19 82.9139C282.062 82.6057 281.997 82.2755 281.997 81.9419L281.686 75.774V77.3463L281.997 83.5141C281.997 84.1877 282.264 84.8337 282.74 85.31C283.215 85.7863 283.861 86.0539 284.534 86.0539C285.207 86.0539 285.852 85.7863 286.328 85.31C286.803 84.8337 287.071 84.1877 287.071 83.5141L287.192 77.3463V75.774L287.071 81.9419C287.071 82.2755 287.005 82.6057 286.878 82.9139C286.75 83.222 286.563 83.502 286.328 83.7379C286.092 83.9737 285.812 84.1608 285.505 84.2884C285.197 84.416 284.867 84.4817 284.534 84.4817V84.4817Z" fill="black"/>
<path opacity="0.2" d="M301.447 85.691C301.106 85.6912 300.767 85.6219 300.453 85.4874C300.138 85.3529 299.855 85.156 299.618 84.9086V85.6995C299.618 86.4992 299.301 87.266 298.736 87.8315C298.171 88.3969 297.405 88.7145 296.606 88.7145C295.808 88.7145 295.042 88.3969 294.477 87.8315C293.912 87.266 293.595 86.4992 293.595 85.6995V85.0404C293.23 85.3685 292.779 85.5837 292.295 85.6601C291.811 85.7365 291.315 85.6708 290.867 85.4709C290.42 85.271 290.04 84.9455 289.773 84.5338C289.507 84.1221 289.366 83.6419 289.366 83.1513L289.245 75.774V77.3463L289.366 84.7235C289.366 85.2141 289.507 85.6943 289.773 86.106C290.04 86.5177 290.42 86.8432 290.867 87.0431C291.315 87.243 291.811 87.3087 292.295 87.2323C292.779 87.1559 293.23 86.9407 293.595 86.6126V87.2717C293.595 88.0714 293.912 88.8382 294.477 89.4037C295.042 89.9691 295.808 90.2867 296.606 90.2867C297.405 90.2867 298.171 89.9691 298.736 89.4037C299.301 88.8382 299.618 88.0714 299.618 87.2717V86.4808C299.969 86.8468 300.42 87.0994 300.915 87.2062C301.41 87.3131 301.925 87.2691 302.395 87.0801C302.865 86.891 303.267 86.5656 303.55 86.1456C303.834 85.7256 303.985 85.2303 303.985 84.7235V83.1513C303.985 83.4849 303.919 83.8151 303.792 84.1233C303.664 84.4314 303.477 84.7114 303.242 84.9473C303.006 85.1831 302.726 85.3702 302.418 85.4978C302.111 85.6254 301.781 85.6911 301.447 85.691V85.691Z" fill="black"/>
<path opacity="0.2" d="M275.594 84.4816C275.209 84.4817 274.83 84.3941 274.485 84.2256C274.139 84.0572 273.837 83.8122 273.6 83.5093C273.199 84.0228 272.615 84.3616 271.971 84.4553C271.326 84.549 270.671 84.3904 270.14 84.0124V85.5846C270.671 85.9626 271.326 86.1212 271.971 86.0275C272.615 85.9338 273.199 85.595 273.6 85.0815C273.926 85.4972 274.373 85.8009 274.879 85.9503C275.385 86.0996 275.925 86.0872 276.424 85.9146C276.922 85.7421 277.355 85.4181 277.661 84.9878C277.967 84.5575 278.131 84.0423 278.131 83.5141L278.32 77.3463V75.774L278.131 81.9419C278.131 82.2755 278.065 82.6057 277.938 82.9139C277.81 83.222 277.623 83.502 277.388 83.7379C277.152 83.9737 276.872 84.1608 276.564 84.2884C276.257 84.416 275.927 84.4817 275.594 84.4816V84.4816Z" fill="black"/>
<path opacity="0.2" d="M281.686 72.6212C281.686 72.1744 281.509 71.7459 281.193 71.43C280.878 71.114 280.45 70.9365 280.003 70.9365C279.557 70.9365 279.129 71.114 278.813 71.43C278.498 71.7459 278.32 72.1744 278.32 72.6212V74.1934C278.32 73.7466 278.498 73.3181 278.813 73.0022C279.129 72.6862 279.557 72.5087 280.003 72.5087C280.45 72.5087 280.878 72.6862 281.193 73.0022C281.509 73.3181 281.686 73.7466 281.686 74.1934V72.6212Z" fill="black"/>
<path d="M253.545 72.932H252.941V76.1974H253.545V72.932Z" fill="#3F3D56"/>
<path d="M264.962 71.1783H264.358V74.4437H264.962V71.1783Z" fill="#3F3D56"/>
<path d="M296.857 73.1134H296.253V76.3788H296.857V73.1134Z" fill="#3F3D56"/>
<path d="M250.464 83.9979H249.86V87.2633H250.464V83.9979Z" fill="#3F3D56"/>
<path d="M275.139 78.2921L274.642 77.948L272.786 80.6333L273.283 80.9773L275.139 78.2921Z" fill="#3F3D56"/>
<path d="M243.151 73.1331L242.776 73.6073L245.334 75.6334L245.709 75.1592L243.151 73.1331Z" fill="#3F3D56"/>
<path d="M278.67 60.9182L278.295 61.3925L280.853 63.4186L281.228 62.9444L278.67 60.9182Z" fill="#3F3D56"/>
<path d="M236.506 76.5207L236.131 76.9949L238.689 79.021L239.064 78.5468L236.506 76.5207Z" fill="#3F3D56"/>
<path d="M255.78 65.2524H255.176V68.5178H255.78V65.2524Z" fill="white"/>
<path d="M239.229 82.0629H238.625V85.3282H239.229V82.0629Z" fill="white"/>
<path d="M267.499 60.5358H266.895V63.8011H267.499V60.5358Z" fill="white"/>
<path d="M296.494 80.9745H295.89V84.2398H296.494V80.9745Z" fill="white"/>
<path d="M270.856 71.9711L270.316 71.7L268.853 74.6186L269.393 74.8897L270.856 71.9711Z" fill="white"/>
<path d="M268.077 84.065L267.538 83.7938L266.075 86.7124L266.615 86.9836L268.077 84.065Z" fill="white"/>
<path d="M301.422 78.6227L300.882 78.3516L299.419 81.2702L299.959 81.5413L301.422 78.6227Z" fill="white"/>
<path d="M259.774 77.4277L259.373 77.8801L261.814 80.0463L262.215 79.5939L259.774 77.4277Z" fill="white"/>
<path d="M247.813 63.2779L247.413 63.7303L249.853 65.8966L250.254 65.4441L247.813 63.2779Z" fill="white"/>
<path d="M287.561 68.7201L287.16 69.1726L289.601 71.3388L290.002 70.8863L287.561 68.7201Z" fill="white"/>
<path d="M272.942 58.0774L272.542 58.5299L274.983 60.6961L275.383 60.2436L272.942 58.0774Z" fill="white"/>
<path d="M260.371 71.1783H259.767V74.4437H260.371V71.1783Z" fill="#FF6584"/>
<path d="M294.45 73.2405L293.894 73.0042L292.619 76.0098L293.175 76.2462L294.45 73.2405Z" fill="#FF6584"/>
<path d="M248.279 76.4463L247.756 76.7487L249.387 79.5765L249.91 79.2742L248.279 76.4463Z" fill="#FF6584"/>
<path d="M282.832 74.1485L282.309 74.4508L283.94 77.2787L284.463 76.9763L282.832 74.1485Z" fill="#FF6584"/>
<path d="M261.327 62.1756L260.804 62.4779L262.435 65.3058L262.958 65.0034L261.327 62.1756Z" fill="#FF6584"/>
<path d="M286.94 61.5708L286.417 61.8732L288.047 64.7011L288.571 64.3987L286.94 61.5708Z" fill="#FF6584"/>
<path d="M253.716 58.9102L253.193 59.2125L254.824 62.0404L255.347 61.7381L253.716 58.9102Z" fill="#FF6584"/>
<path d="M275.473 64.6477H274.869V67.9131H275.473V64.6477Z" fill="#FF6584"/>
<path d="M240.679 70.09H240.074V73.3553H240.679V70.09Z" fill="#FF6584"/>
<path d="M122.759 189.396C130.796 189.396 137.312 182.874 137.312 174.828C137.312 166.782 130.796 160.26 122.759 160.26C114.722 160.26 108.206 166.782 108.206 174.828C108.206 182.874 114.722 189.396 122.759 189.396Z" fill="#2F2E41"/>
<path d="M128.38 193.487L132.73 192.698L131.319 184.896L126.969 185.684L128.38 193.487Z" fill="#2F2E41"/>
<path d="M119.679 195.063L124.029 194.275L122.618 186.472L118.268 187.261L119.679 195.063Z" fill="#2F2E41"/>
<path d="M121.988 196.705C123.541 195.389 124.4 193.849 123.907 193.266C123.414 192.684 121.755 193.278 120.203 194.595C118.65 195.911 117.791 197.451 118.284 198.034C118.777 198.616 120.436 198.022 121.988 196.705Z" fill="#2F2E41"/>
<path d="M130.508 195.162C132.061 193.845 132.92 192.306 132.427 191.723C131.933 191.14 130.275 191.734 128.722 193.051C127.169 194.367 126.31 195.907 126.804 196.49C127.297 197.073 128.955 196.478 130.508 195.162Z" fill="#2F2E41"/>
<path d="M121.74 176.243C124.487 176.243 126.714 174.014 126.714 171.264C126.714 168.515 124.487 166.285 121.74 166.285C118.993 166.285 116.766 168.515 116.766 171.264C116.766 174.014 118.993 176.243 121.74 176.243Z" fill="white"/>
<path d="M119.696 171.139C120.612 171.139 121.354 170.396 121.354 169.48C121.354 168.563 120.612 167.82 119.696 167.82C118.78 167.82 118.038 168.563 118.038 169.48C118.038 170.396 118.78 171.139 119.696 171.139Z" fill="#3F3D56"/>
<path d="M134.239 158.979C134.458 153.586 129.815 149.018 123.868 148.776C117.921 148.534 112.923 152.71 112.704 158.104C112.485 163.497 116.619 164.722 122.566 164.964C128.513 165.206 134.02 164.373 134.239 158.979Z" fill="#CFCCE0"/>
<path d="M116.414 173.801C116.696 172.57 113.749 170.844 109.832 169.945C105.915 169.046 102.511 169.315 102.229 170.546C101.947 171.777 104.894 173.504 108.811 174.403C112.728 175.301 116.132 175.032 116.414 173.801Z" fill="#2F2E41"/>
<path d="M144.981 178.557C145.263 177.326 142.316 175.599 138.399 174.701C134.482 173.802 131.078 174.071 130.796 175.302C130.514 176.533 133.461 178.26 137.378 179.158C141.295 180.057 144.699 179.788 144.981 178.557Z" fill="#2F2E41"/>
<path d="M126.756 180.569C126.834 180.998 126.827 181.438 126.734 181.864C126.642 182.291 126.467 182.694 126.219 183.053C125.971 183.411 125.655 183.717 125.288 183.953C124.922 184.189 124.513 184.351 124.084 184.428C123.656 184.506 123.216 184.498 122.79 184.406C122.364 184.313 121.961 184.138 121.603 183.889C121.245 183.641 120.94 183.324 120.704 182.957C120.469 182.59 120.308 182.181 120.23 181.752C119.904 179.948 121.297 179.309 123.099 178.983C124.901 178.656 126.43 178.765 126.756 180.569Z" fill="white"/>
<path d="M205.477 124.287C206.947 120.435 207.16 116.937 205.952 116.475C204.744 116.013 202.573 118.761 201.102 122.613C199.631 126.465 199.418 129.963 200.626 130.425C201.834 130.887 204.006 128.139 205.477 124.287Z" fill="#2F2E41"/>
<path d="M194.599 192.573C202.838 192.573 209.517 185.887 209.517 177.639C209.517 169.391 202.838 162.705 194.599 162.705C186.36 162.705 179.68 169.391 179.68 177.639C179.68 185.887 186.36 192.573 194.599 192.573Z" fill="#2F2E41"/>
<path d="M192.333 189.359H187.801V197.488H192.333V189.359Z" fill="#2F2E41"/>
<path d="M201.397 189.359H196.865V197.488H201.397V189.359Z" fill="#2F2E41"/>
<path d="M191.577 199C193.663 199 195.354 198.365 195.354 197.582C195.354 196.799 193.663 196.164 191.577 196.164C189.492 196.164 187.801 196.799 187.801 197.582C187.801 198.365 189.492 199 191.577 199Z" fill="#2F2E41"/>
<path d="M200.642 198.811C202.728 198.811 204.419 198.176 204.419 197.393C204.419 196.61 202.728 195.975 200.642 195.975C198.556 195.975 196.865 196.61 196.865 197.393C196.865 198.176 198.556 198.811 200.642 198.811Z" fill="#2F2E41"/>
<path d="M194.977 178.962C197.793 178.962 200.075 176.677 200.075 173.858C200.075 171.039 197.793 168.754 194.977 168.754C192.161 168.754 189.878 171.039 189.878 173.858C189.878 176.677 192.161 178.962 194.977 178.962Z" fill="white"/>
<path d="M194.977 175.559C195.915 175.559 196.676 174.798 196.676 173.858C196.676 172.918 195.915 172.157 194.977 172.157C194.038 172.157 193.277 172.918 193.277 173.858C193.277 174.798 194.038 175.559 194.977 175.559Z" fill="#3F3D56"/>
<path d="M180.128 163.751C178.923 158.35 182.774 152.893 188.728 151.562C194.683 150.231 200.486 153.53 201.691 158.931C202.895 164.331 198.949 166.323 192.995 167.654C187.04 168.985 181.332 169.151 180.128 163.751Z" fill="#CFCCE0"/>
<path d="M189.5 149.661C197.739 149.661 204.419 142.975 204.419 134.727C204.419 126.479 197.739 119.793 189.5 119.793C181.261 119.793 174.582 126.479 174.582 134.727C174.582 142.975 181.261 149.661 189.5 149.661Z" fill="#2F2E41"/>
<path d="M187.234 146.448H182.702V154.576H187.234V146.448Z" fill="#2F2E41"/>
<path d="M196.298 146.448H191.766V154.576H196.298V146.448Z" fill="#2F2E41"/>
<path d="M186.479 156.089C188.565 156.089 190.256 155.454 190.256 154.671C190.256 153.888 188.565 153.253 186.479 153.253C184.393 153.253 182.702 153.888 182.702 154.671C182.702 155.454 184.393 156.089 186.479 156.089Z" fill="#2F2E41"/>
<path d="M195.543 155.899C197.629 155.899 199.32 155.265 199.32 154.482C199.32 153.699 197.629 153.064 195.543 153.064C193.457 153.064 191.766 153.699 191.766 154.482C191.766 155.265 193.457 155.899 195.543 155.899Z" fill="#2F2E41"/>
<path d="M189.878 136.05C192.694 136.05 194.977 133.765 194.977 130.946C194.977 128.128 192.694 125.842 189.878 125.842C187.062 125.842 184.779 128.128 184.779 130.946C184.779 133.765 187.062 136.05 189.878 136.05Z" fill="white"/>
<path d="M189.878 132.648C190.817 132.648 191.577 131.886 191.577 130.946C191.577 130.007 190.817 129.245 189.878 129.245C188.939 129.245 188.178 130.007 188.178 130.946C188.178 131.886 188.939 132.648 189.878 132.648Z" fill="#3F3D56"/>
<path d="M175.029 120.839C173.824 115.439 177.675 109.982 183.629 108.651C189.584 107.32 195.388 110.619 196.592 116.019C197.797 121.419 193.85 123.411 187.896 124.742C181.941 126.073 176.233 126.239 175.029 120.839Z" fill="#CFCCE0"/>
<path d="M179.437 130.998C179.991 129.828 177.423 127.447 173.701 125.68C169.978 123.913 166.512 123.428 165.957 124.598C165.403 125.768 167.971 128.149 171.694 129.916C175.416 131.683 178.882 132.167 179.437 130.998Z" fill="#2F2E41"/>
<path d="M182.172 140.115C182.172 141.576 185.932 144.463 190.104 144.463C194.275 144.463 198.187 140.348 198.187 138.886C198.187 137.424 194.275 139.17 190.104 139.17C185.932 139.17 182.172 138.653 182.172 140.115Z" fill="white"/>
<path d="M233.066 155.24C234.214 155.24 235.144 154.309 235.144 153.16C235.144 152.011 234.214 151.079 233.066 151.079C231.918 151.079 230.987 152.011 230.987 153.16C230.987 154.309 231.918 155.24 233.066 155.24Z" fill="#FBAB7E"/>
<path d="M238.727 138.445C239.875 138.445 240.805 137.513 240.805 136.364C240.805 135.215 239.875 134.283 238.727 134.283C237.579 134.283 236.648 135.215 236.648 136.364C236.648 137.513 237.579 138.445 238.727 138.445Z" fill="#FBAB7E"/>
<path d="M233.551 129.859C234.698 129.859 235.629 128.928 235.629 127.779C235.629 126.63 234.698 125.698 233.551 125.698C232.403 125.698 231.472 126.63 231.472 127.779C231.472 128.928 232.403 129.859 233.551 129.859Z" fill="#FBAB7E"/>
<path d="M215.609 186.021L216.727 190.069L223.973 188.064L222.855 184.016L215.609 186.021Z" fill="#2F2E41"/>
<path d="M216.111 190.783C216.809 190.59 216.958 188.923 216.443 187.06C215.929 185.197 214.946 183.843 214.248 184.036C213.55 184.229 213.401 185.896 213.916 187.759C214.43 189.623 215.413 190.977 216.111 190.783Z" fill="#2F2E41"/>
<path d="M238.481 172.097C238.994 168.314 238.447 165.117 237.261 164.956C236.074 164.795 234.697 167.731 234.185 171.514C233.673 175.298 234.219 178.495 235.406 178.656C236.592 178.817 237.969 175.881 238.481 172.097Z" fill="#2F2E41"/>
<path d="M234.981 198.573C242.609 198.573 248.792 192.383 248.792 184.747C248.792 177.112 242.609 170.922 234.981 170.922C227.353 170.922 221.17 177.112 221.17 184.747C221.17 192.383 227.353 198.573 234.981 198.573Z" fill="#2F2E41"/>
<path d="M215.609 183.571L216.727 187.619L223.973 185.614L222.855 181.566L215.609 183.571Z" fill="#2F2E41"/>
<path d="M216.111 188.335C216.809 188.142 216.957 186.475 216.443 184.612C215.928 182.749 214.945 181.395 214.247 181.588C213.549 181.781 213.401 183.448 213.915 185.311C214.43 187.174 215.413 188.528 216.111 188.335Z" fill="#2F2E41"/>
<path d="M238.608 181.552C241.215 181.552 243.328 179.437 243.328 176.827C243.328 174.218 241.215 172.102 238.608 172.102C236.001 172.102 233.887 174.218 233.887 176.827C233.887 179.437 236.001 181.552 238.608 181.552Z" fill="white"/>
<path d="M240.117 176.315C240.986 176.315 241.691 175.61 241.691 174.74C241.691 173.87 240.986 173.165 240.117 173.165C239.248 173.165 238.544 173.87 238.544 174.74C238.544 175.61 239.248 176.315 240.117 176.315Z" fill="#3F3D56"/>
<path d="M250.93 194.248C256.041 193.992 259.956 189.207 259.673 183.56C259.391 177.912 255.019 173.542 249.908 173.798C244.797 174.054 243.995 178.07 244.277 183.718C244.56 189.365 245.819 194.504 250.93 194.248Z" fill="#CFCCE0"/>
<path d="M229.337 178.898C228.505 178.965 227.68 178.699 227.044 178.158C226.408 177.617 226.013 176.845 225.946 176.012C225.879 175.179 226.145 174.354 226.685 173.717C227.226 173.081 227.997 172.685 228.829 172.618C230.561 172.478 231.034 173.854 231.174 175.588C231.314 177.323 231.069 178.757 229.337 178.898Z" fill="white"/>
<path d="M233.298 175.383C233.81 171.599 233.263 168.402 232.077 168.241C230.89 168.08 229.513 171.016 229.001 174.8C228.489 178.583 229.035 181.78 230.222 181.941C231.408 182.102 232.785 179.166 233.298 175.383Z" fill="#2F2E41"/>
<path d="M232.027 168.764C233.174 168.764 234.105 167.832 234.105 166.683C234.105 165.534 233.174 164.603 232.027 164.603C230.879 164.603 229.948 165.534 229.948 166.683C229.948 167.832 230.879 168.764 232.027 168.764Z" fill="#FBAB7E"/>
<path d="M219.915 118.824C219.963 118.458 219.932 118.086 219.824 117.733C219.716 117.381 219.534 117.055 219.29 116.778C219.046 116.502 218.745 116.281 218.409 116.13C218.072 115.98 217.707 115.903 217.339 115.905H216.516C216.715 115.532 216.819 115.115 216.819 114.692C216.817 114.003 216.543 113.342 216.056 112.855C215.569 112.368 214.91 112.093 214.221 112.091H205.561C204.872 112.091 204.211 112.365 203.724 112.853C203.237 113.34 202.963 114.002 202.963 114.692C202.963 115.381 203.237 116.043 203.724 116.531C204.211 117.018 204.872 117.292 205.561 117.292H206.384C206.185 117.666 206.081 118.083 206.081 118.506C206.083 119.047 206.252 119.574 206.567 120.014C206.881 120.454 207.324 120.785 207.834 120.962C207.787 121.328 207.818 121.7 207.926 122.053C208.034 122.405 208.216 122.731 208.46 123.008C208.704 123.284 209.004 123.505 209.341 123.656C209.677 123.806 210.042 123.883 210.411 123.881H219.071C219.685 123.881 220.28 123.663 220.749 123.266C221.219 122.869 221.532 122.317 221.633 121.711C221.734 121.104 221.617 120.48 221.303 119.952C220.988 119.423 220.496 119.024 219.915 118.824V118.824Z" fill="#FBAB7E"/>
<path d="M103.71 137.614L103.522 137.426L102.507 138.442L102.695 138.63L103.71 137.614Z" fill="#3F3D56"/>
</g>
<defs>
<clipPath id="clip0_5_2188">
<rect width="308.772" height="199" fill="white" transform="translate(0.045105)"/>
</clipPath>
</defs>
</svg>
