<svg width="328" height="355" viewBox="0 0 328 355" fill="none" xmlns="http://www.w3.org/2000/svg">
<g clip-path="url(#clip0_5_1670)">
<path d="M74.4655 124.086L62.0329 132.594L191.512 338.586L203.945 330.078L74.4655 124.086Z" fill="#565561"/>
<path d="M44.8668 46.5652L73.6319 92.3284C74.1889 93.2146 74.3858 94.2955 74.1791 95.3331C73.9725 96.3708 73.3792 97.2802 72.5299 97.8615C71.6806 98.4427 70.6448 98.6481 69.6503 98.4325C68.6559 98.2168 67.7843 97.5978 67.2272 96.7116L34.1583 44.1013C29.6697 43.7102 25.158 44.4833 21.0251 46.3519L57.0551 103.673C57.6117 104.559 57.8083 105.64 57.6015 106.677C57.3947 107.715 56.8016 108.624 55.9524 109.205C55.1033 109.786 54.0677 109.992 53.0734 109.776C52.0791 109.561 51.2076 108.942 50.6504 108.056L14.6204 50.7351C11.3312 53.946 8.85396 57.9558 7.40934 62.4074L40.4783 115.018C41.0349 115.904 41.2315 116.985 41.0247 118.022C40.8179 119.059 40.2247 119.969 39.3756 120.55C38.5264 121.131 37.4909 121.336 36.4966 121.121C35.5023 120.905 34.6307 120.287 34.0736 119.401L5.30851 73.6377C4.5697 86.3976 8.55672 101.521 17.2946 115.423C33.5343 141.259 60.0245 153.084 76.4622 141.835C92.8998 130.585 93.0602 100.521 76.8205 74.6852C68.0826 60.7838 56.3773 50.9422 44.8668 46.5652Z" fill="#565561"/>
<path d="M130.209 95.9054H115.341V342.251H130.209V95.9054Z" fill="#565561"/>
<path d="M122.549 111.89C142.207 111.89 158.143 86.8423 158.143 55.9448C158.143 25.0473 142.207 0 122.549 0C102.892 0 86.9561 25.0473 86.9561 55.9448C86.9561 86.8423 102.892 111.89 122.549 111.89Z" fill="#565561"/>
<path d="M122.549 101.975C138.724 101.975 151.835 81.3668 151.835 55.9448C151.835 30.5229 138.724 9.91428 122.549 9.91428C106.375 9.91428 93.2637 30.5229 93.2637 55.9448C93.2637 81.3668 106.375 101.975 122.549 101.975Z" fill="#CCCCCC"/>
<path d="M164 354.89C254.575 354.89 328 350.494 328 345.071C328 339.649 254.575 335.253 164 335.253C73.4253 335.253 0 339.649 0 345.071C0 350.494 73.4253 354.89 164 354.89Z" fill="#E6E6E6"/>
<path d="M260.989 344.927C199.528 333.368 136.582 333.368 75.1211 344.927C74.1448 345.112 73.1416 345.07 72.1822 344.806C71.2229 344.542 70.3308 344.061 69.5689 343.398C68.807 342.735 68.1938 341.905 67.7728 340.968C67.3517 340.031 67.1329 339.008 67.1319 337.973V250.106H268.978V337.973C268.977 339.008 268.758 340.031 268.337 340.968C267.916 341.905 267.303 342.735 266.541 343.398C265.779 344.061 264.887 344.542 263.928 344.806C262.968 345.07 261.965 345.112 260.989 344.927Z" fill="white"/>
<path d="M250.505 185.229C245.845 185.225 241.216 186.033 236.811 187.62C230.385 173.078 220.118 160.75 207.214 152.083C194.309 143.415 179.303 138.769 163.957 138.688C148.611 138.607 133.56 143.095 120.573 151.626C107.585 160.157 97.1988 172.376 90.6328 186.85C84.1674 184.957 77.3608 184.714 70.7863 186.14C64.2119 187.566 58.0621 190.62 52.8552 195.044C47.6482 199.468 43.5366 205.134 40.8665 211.563C38.1965 217.992 37.0463 224.996 37.5128 231.986C37.9793 238.976 40.0489 245.746 43.5472 251.727C47.0455 257.708 51.87 262.724 57.6145 266.352C63.3589 269.981 69.8549 272.116 76.5553 272.577C83.2558 273.039 89.9643 271.813 96.1159 269.004C103.51 280.76 113.608 290.396 125.49 297.031C137.371 303.667 150.657 307.09 164.132 306.989C177.608 306.888 190.845 303.265 202.633 296.452C214.422 289.639 224.387 279.853 231.618 267.986C237.267 270.962 243.489 272.564 249.816 272.673C256.144 272.781 262.412 271.392 268.152 268.611C273.891 265.83 278.953 261.728 282.956 256.614C286.959 251.5 289.801 245.507 291.267 239.083C292.733 232.66 292.785 225.973 291.421 219.525C290.056 213.077 287.31 207.036 283.388 201.854C279.466 196.672 274.47 192.484 268.775 189.605C263.08 186.726 256.834 185.229 250.505 185.229Z" fill="white"/>
<path d="M83.3516 222.839H82.4506C82.4198 210.321 85.0749 197.954 90.2212 186.646L91.0356 187.049C85.9466 198.231 83.3211 210.46 83.3516 222.839Z" fill="#3F3D56"/>
<path d="M244.648 222.839H243.747C243.775 210.745 241.27 198.792 236.406 187.814L237.224 187.42C242.143 198.521 244.677 210.609 244.648 222.839Z" fill="#3F3D56"/>
<path d="M67.2405 290.993L67.0232 290.081C67.2775 290.015 92.8862 283.452 130.416 280.196C165.054 277.19 217.23 276.465 269.088 290.081L268.868 290.993C217.138 277.411 165.075 278.133 130.509 281.131C93.047 284.38 67.4942 290.928 67.2405 290.993Z" fill="#3F3D56"/>
<path d="M67.2405 303.687L67.0232 302.774C67.2775 302.708 92.8862 296.145 130.416 292.889C165.054 289.884 217.23 289.159 269.088 302.774L268.868 303.686C217.138 290.104 165.075 290.827 130.509 293.825C93.047 297.074 67.4942 303.621 67.2405 303.687Z" fill="#3F3D56"/>
<path d="M67.2405 316.38L67.0232 315.467C67.2775 315.402 92.8862 308.839 130.416 305.582C165.054 302.577 217.23 301.852 269.088 315.468L268.868 316.38C217.138 302.798 165.075 303.52 130.509 306.518C93.047 309.767 67.4942 316.314 67.2405 316.38Z" fill="#3F3D56"/>
<path d="M233.054 247.359L222.137 243.486L232.618 187.668L225.412 186.985C218.387 192.61 209.031 194.815 197.028 193.136L216.242 223.437L206.445 230.653L175.191 191.536C173.783 189.773 173.011 187.55 173.011 185.255C173.011 183.127 173.674 181.056 174.901 179.356C176.127 177.656 177.85 176.418 179.81 175.829L213.185 165.797L252.268 170.354C258.177 179.753 258.408 186.291 249.413 188.177L233.054 247.359Z" fill="#2F2E41"/>
<path d="M221.881 269.073C220.752 268.998 219.656 268.647 218.682 268.048C217.708 267.448 216.884 266.618 216.275 265.623C215.666 264.629 215.291 263.499 215.18 262.325C215.068 261.151 215.224 259.966 215.634 258.866L221.061 244.304C223.818 238.854 227.601 239.536 232.069 244.304L234.252 250.986C234.432 251.537 234.504 252.119 234.462 252.699C234.421 253.279 234.267 253.844 234.011 254.36L228.721 265.032C228.08 266.326 227.092 267.397 225.877 268.114C224.662 268.832 223.274 269.165 221.881 269.073Z" fill="#2F2E41"/>
<path d="M207.772 250.003C206.643 249.929 205.548 249.577 204.574 248.978C203.6 248.379 202.775 247.548 202.166 246.554C201.558 245.559 201.182 244.429 201.071 243.255C200.959 242.081 201.115 240.896 201.525 239.796L206.952 225.234C209.709 219.785 213.492 220.467 217.96 225.234L220.144 231.917C220.323 232.467 220.395 233.05 220.353 233.629C220.312 234.209 220.159 234.774 219.903 235.291L214.612 245.962C213.971 247.256 212.983 248.327 211.768 249.045C210.554 249.762 209.165 250.095 207.772 250.003Z" fill="#2F2E41"/>
<path d="M214.714 112.486C221.467 112.486 226.941 106.774 226.941 99.7278C226.941 92.6816 221.467 86.9696 214.714 86.9696C207.961 86.9696 202.487 92.6816 202.487 99.7278C202.487 106.774 207.961 112.486 214.714 112.486Z" fill="#FFB9B9"/>
<path d="M233.709 117.726L216.897 126.839L213.404 110.436L224.976 102.917L233.709 117.726Z" fill="#FFB9B9"/>
<path d="M254.015 172.632C237.239 167.345 222.018 164.605 211.002 168.759C214.799 157.613 207.791 140.593 200.085 123.194C203.41 118.659 208.711 116.902 214.714 116.131C221.281 121.107 225.861 117.913 229.343 110.208C236.936 109.89 244.254 112.696 251.395 117.498C245.812 136.156 246.817 154.528 254.015 172.632Z" fill="#3F3D56"/>
<path d="M210.784 171.493C208.135 173.122 205.69 175.867 203.36 179.239C199.423 176.724 195.958 173.861 193.229 170.456C191.319 168.041 190.016 165.167 189.439 162.095C188.862 159.022 189.03 155.847 189.926 152.859L197.388 127.556C198.008 125.455 199.211 123.593 200.847 122.206L201.832 121.371L211.657 140.736L201.832 159.874C203.078 163.36 206.749 167.386 210.784 171.493Z" fill="#3F3D56"/>
<path d="M214.166 190.785C213.275 191.208 212.302 191.41 211.323 191.374C210.345 191.337 209.388 191.064 208.529 190.575C207.669 190.086 206.93 189.395 206.371 188.557C205.811 187.719 205.446 186.756 205.305 185.746L203.681 174.145L209.358 170.956L216.562 180.797C217.138 181.583 217.536 182.495 217.728 183.463C217.919 184.432 217.899 185.434 217.669 186.393C217.439 187.353 217.004 188.246 216.398 189.006C215.791 189.766 215.028 190.374 214.166 190.785Z" fill="#FFB9B9"/>
<path d="M227.05 99.1695L224.962 99.2342L219.171 90.6745C211.751 91.475 205.671 94.8389 200.525 99.9916L200.004 96.3624C199.506 92.9015 200.298 89.3732 202.218 86.5033C204.137 83.6334 207.038 81.6401 210.322 80.9334H210.322C212.048 80.5622 213.827 80.5576 215.554 80.9199C217.281 81.2822 218.921 82.0039 220.375 83.042C221.829 84.0801 223.067 85.4132 224.016 86.9618C224.965 88.5105 225.606 90.2427 225.899 92.0553L227.05 99.1695Z" fill="#2F2E41"/>
<path d="M203.571 179.244C203.165 178.314 202.972 177.299 203.006 176.278C203.041 175.257 203.303 174.259 203.772 173.362C204.24 172.465 204.902 171.694 205.706 171.11C206.509 170.526 207.431 170.145 208.4 169.998L219.517 168.303L222.574 174.227L213.142 181.744C212.389 182.345 211.516 182.761 210.587 182.961C209.659 183.16 208.699 183.139 207.779 182.899C206.86 182.659 206.004 182.205 205.275 181.573C204.547 180.94 203.964 180.144 203.571 179.244Z" fill="#FFB9B9"/>
<path d="M256.133 168.692C245.556 169.549 234.008 172.99 221.919 177.872C221.769 174.127 220.467 170.533 218.207 167.62C229.187 164.602 239.151 161.061 245.281 155.545L241.57 126.383L249.648 116.815L251.042 117.573C252.199 118.201 253.217 119.075 254.029 120.14C254.842 121.204 255.431 122.435 255.758 123.752C259.169 137.597 260.684 150.862 259.643 163.345C259.777 164.529 259.496 165.723 258.85 166.706C258.205 167.69 257.239 168.395 256.133 168.692Z" fill="#3F3D56"/>
<path d="M43.2013 342.303C33.3648 348.723 23.5282 348.72 13.6916 342.295C13.3802 342.095 13.1273 341.81 12.9604 341.47C12.7935 341.131 12.719 340.75 12.7449 340.369L15.8142 298.734H40.6397L44.1463 340.355C44.1766 340.739 44.1043 341.124 43.9375 341.468C43.7707 341.812 43.5159 342.101 43.2013 342.303Z" fill="#3F3D56"/>
<path d="M28.1125 303.915C35.0311 303.915 40.6397 301.807 40.6397 299.205C40.6397 296.604 35.0311 294.496 28.1125 294.496C21.1939 294.496 15.5852 296.604 15.5852 299.205C15.5852 301.807 21.1939 303.915 28.1125 303.915Z" fill="#3F3D56"/>
<path d="M37.9315 297.616C31.4038 302.407 25.0846 302.407 18.9738 297.616V290.08H37.9315V297.616Z" fill="white"/>
<path d="M28.4527 293.848C33.6877 293.848 37.9315 292.161 37.9315 290.08C37.9315 287.999 33.6877 286.312 28.4527 286.312C23.2177 286.312 18.9738 287.999 18.9738 290.08C18.9738 292.161 23.2177 293.848 28.4527 293.848Z" fill="white"/>
<path d="M28.904 290.08C29.4026 290.08 29.8068 289.869 29.8068 289.609C29.8068 289.349 29.4026 289.138 28.904 289.138C28.4055 289.138 28.0013 289.349 28.0013 289.609C28.0013 289.869 28.4055 290.08 28.904 290.08Z" fill="#E6E6E6"/>
<path d="M33.1667 290.08C33.6653 290.08 34.0695 289.869 34.0695 289.609C34.0695 289.349 33.6653 289.138 33.1667 289.138C32.6681 289.138 32.264 289.349 32.264 289.609C32.264 289.869 32.6681 290.08 33.1667 290.08Z" fill="#E6E6E6"/>
<path d="M31.0354 291.192C31.5339 291.192 31.9381 290.981 31.9381 290.721C31.9381 290.461 31.5339 290.25 31.0354 290.25C30.5368 290.25 30.1326 290.461 30.1326 290.721C30.1326 290.981 30.5368 291.192 31.0354 291.192Z" fill="#E6E6E6"/>
<path d="M22.51 291.192C23.0086 291.192 23.4127 290.981 23.4127 290.721C23.4127 290.461 23.0086 290.25 22.51 290.25C22.0114 290.25 21.6072 290.461 21.6072 290.721C21.6072 290.981 22.0114 291.192 22.51 291.192Z" fill="#E6E6E6"/>
<path d="M24.6413 290.08C25.1399 290.08 25.5441 289.869 25.5441 289.609C25.5441 289.349 25.1399 289.138 24.6413 289.138C24.1428 289.138 23.7386 289.349 23.7386 289.609C23.7386 289.869 24.1428 290.08 24.6413 290.08Z" fill="#E6E6E6"/>
<path d="M26.7727 291.748C27.2713 291.748 27.6755 291.537 27.6755 291.277C27.6755 291.017 27.2713 290.806 26.7727 290.806C26.2741 290.806 25.87 291.017 25.87 291.277C25.87 291.537 26.2741 291.748 26.7727 291.748Z" fill="#E6E6E6"/>
<path d="M315.784 342.303C305.947 348.723 296.111 348.72 286.274 342.295C285.963 342.095 285.71 341.81 285.543 341.47C285.376 341.131 285.301 340.75 285.327 340.369L288.397 298.734H313.222L316.729 340.355C316.759 340.739 316.687 341.124 316.52 341.468C316.353 341.812 316.098 342.101 315.784 342.303Z" fill="#3F3D56"/>
<path d="M300.695 303.915C307.614 303.915 313.222 301.807 313.222 299.205C313.222 296.604 307.614 294.496 300.695 294.496C293.776 294.496 288.168 296.604 288.168 299.205C288.168 301.807 293.776 303.915 300.695 303.915Z" fill="#3F3D56"/>
<path d="M310.514 297.616C303.986 302.407 297.667 302.407 291.556 297.616V290.08H310.514V297.616Z" fill="white"/>
<path d="M301.035 293.848C306.27 293.848 310.514 292.161 310.514 290.08C310.514 287.999 306.27 286.312 301.035 286.312C295.8 286.312 291.556 287.999 291.556 290.08C291.556 292.161 295.8 293.848 301.035 293.848Z" fill="white"/>
<path d="M301.486 290.08C301.985 290.08 302.389 289.869 302.389 289.609C302.389 289.349 301.985 289.138 301.486 289.138C300.988 289.138 300.584 289.349 300.584 289.609C300.584 289.869 300.988 290.08 301.486 290.08Z" fill="#E6E6E6"/>
<path d="M305.749 290.08C306.248 290.08 306.652 289.869 306.652 289.609C306.652 289.349 306.248 289.138 305.749 289.138C305.251 289.138 304.846 289.349 304.846 289.609C304.846 289.869 305.251 290.08 305.749 290.08Z" fill="#E6E6E6"/>
<path d="M303.618 291.192C304.116 291.192 304.521 290.981 304.521 290.721C304.521 290.461 304.116 290.25 303.618 290.25C303.119 290.25 302.715 290.461 302.715 290.721C302.715 290.981 303.119 291.192 303.618 291.192Z" fill="#E6E6E6"/>
<path d="M295.092 291.192C295.591 291.192 295.995 290.981 295.995 290.721C295.995 290.461 295.591 290.25 295.092 290.25C294.594 290.25 294.19 290.461 294.19 290.721C294.19 290.981 294.594 291.192 295.092 291.192Z" fill="#E6E6E6"/>
<path d="M297.224 290.08C297.722 290.08 298.127 289.869 298.127 289.609C298.127 289.349 297.722 289.138 297.224 289.138C296.725 289.138 296.321 289.349 296.321 289.609C296.321 289.869 296.725 290.08 297.224 290.08Z" fill="#E6E6E6"/>
<path d="M299.355 291.748C299.854 291.748 300.258 291.537 300.258 291.277C300.258 291.017 299.854 290.806 299.355 290.806C298.857 290.806 298.452 291.017 298.452 291.277C298.452 291.537 298.857 291.748 299.355 291.748Z" fill="#E6E6E6"/>
</g>
<defs>
<clipPath id="clip0_5_1670">
<rect width="328" height="354.89" fill="white"/>
</clipPath>
</defs>
</svg>
