<svg width="535" height="414" viewBox="0 0 535 414" fill="none" xmlns="http://www.w3.org/2000/svg">
<g clip-path="url(#clip0_7_1176)">
<path d="M348.337 409.371L248.152 242.652C248.124 242.244 247.987 241.849 247.754 241.501C247.521 241.154 247.198 240.865 246.815 240.659C246.376 240.427 245.874 240.315 245.368 240.337C245.352 240.336 245.336 240.336 245.319 240.336C245.303 240.336 245.287 240.336 245.27 240.337C244.585 240.307 243.914 240.523 243.397 240.94C242.88 241.357 242.558 241.941 242.498 242.572L136.317 409.371C136.14 409.654 136.025 409.966 135.979 410.289C135.932 410.613 135.956 410.942 136.047 411.257C136.139 411.573 136.297 411.868 136.512 412.128C136.727 412.387 136.996 412.604 137.302 412.767C137.608 412.931 137.947 413.036 138.297 413.079C138.648 413.122 139.004 413.1 139.346 413.015C139.688 412.931 140.008 412.785 140.289 412.586C140.569 412.387 140.805 412.139 140.981 411.856L245.248 248.066L343.673 411.856C343.85 412.139 344.085 412.387 344.366 412.586C344.646 412.785 344.966 412.931 345.308 413.015C345.65 413.1 346.006 413.122 346.357 413.079C346.708 413.036 347.046 412.931 347.352 412.767C347.659 412.604 347.927 412.387 348.142 412.128C348.358 411.868 348.516 411.573 348.607 411.257C348.698 410.942 348.722 410.613 348.675 410.289C348.629 409.966 348.514 409.654 348.337 409.371Z" fill="#3F3D56"/>
<path d="M228.718 380.766L240.043 378.368L235.41 336.913L218.697 340.452L228.718 380.766Z" fill="#FFB6B6"/>
<path d="M237.474 360.74L221.358 364.152L216.205 354.858L215.914 354.528C213.628 351.939 212.359 348.711 212.314 345.371L198.92 312.668L197.824 312.188C196.977 311.816 196.226 311.281 195.62 310.62C195.014 309.958 194.569 309.185 194.312 308.352C194.056 307.519 193.996 306.645 194.134 305.789C194.273 304.932 194.609 304.113 195.118 303.386L193.7 299.924L153.688 299.992L153.648 299.981L104.513 287.26L109.672 258.874L123.494 266.899C128.048 266.626 206.065 262.205 213.272 278.343C219.691 292.713 228.939 317.265 235.568 335.33C235.898 336.141 236.309 336.923 236.795 337.664C237.826 339.13 238.432 340.816 238.553 342.56C238.631 343.319 238.788 344.069 239.021 344.801C241.776 352.402 237.579 360.539 237.536 360.621L237.474 360.74Z" fill="#2F2E41"/>
<path d="M224.893 377.3L228.575 376.521L241.608 368.082L250.653 371.845L250.654 371.845C255.008 370.923 259.58 371.636 263.365 373.825C267.149 376.015 269.837 379.502 270.836 383.521L270.958 384.013L228.782 392.945L224.893 377.3Z" fill="#2F2E41"/>
<path d="M57.6958 378.231C58.8471 366.665 66.1877 355.084 77.9611 350.982C73.6792 362.979 74.1329 375.988 79.242 387.706C81.2301 392.218 83.9504 397.046 82.39 401.7C81.4191 404.596 78.8765 406.864 75.9968 408.321C73.1169 409.778 69.8906 410.527 66.7046 411.262L66.0899 411.763C60.6273 401.299 56.5445 389.798 57.6958 378.231Z" fill="#F0F0F0"/>
<path d="M78.0868 351.196C71.404 358.571 67.4087 367.702 66.6684 377.292C66.4693 379.354 66.6236 381.432 67.1256 383.449C67.6834 385.4 68.7969 387.177 70.3506 388.596C71.7704 389.946 73.3922 391.176 74.4317 392.821C74.9503 393.67 75.2685 394.611 75.3654 395.582C75.4623 396.553 75.3358 397.532 74.9941 398.454C74.2076 400.774 72.5651 402.694 70.8881 404.52C69.0262 406.547 67.0575 408.626 66.3278 411.263C66.2394 411.582 65.7075 411.437 65.7958 411.118C67.0653 406.531 71.7553 403.808 73.8923 399.647C74.8894 397.705 75.2587 395.475 74.1914 393.488C73.2581 391.751 71.5869 390.482 70.1365 389.126C68.5989 387.762 67.4464 386.071 66.7799 384.202C66.1683 382.214 65.9275 380.145 66.068 378.083C66.3039 373.436 67.33 368.853 69.1086 364.5C71.1087 359.522 74.0166 354.896 77.7066 350.823C77.9351 350.571 78.3138 350.946 78.0868 351.196L78.0868 351.196Z" fill="white"/>
<path d="M66.7099 374.191C64.9835 373.858 63.4416 372.969 62.3596 371.684C61.2776 370.398 60.7259 368.8 60.8029 367.173C60.8068 367.107 60.8383 367.045 60.8909 366.999C60.9435 366.954 61.0131 366.93 61.0851 366.931C61.157 366.932 61.2256 366.959 61.2764 367.006C61.3273 367.053 61.3564 367.116 61.3576 367.182C61.2828 368.697 61.7969 370.186 62.8072 371.381C63.8174 372.576 65.2572 373.399 66.8668 373.7C67.2165 373.766 67.0576 374.256 66.7099 374.191H66.7099Z" fill="white"/>
<path d="M69.533 387.999C72.5675 386.203 74.7569 383.416 75.6644 380.196C75.754 379.876 76.2859 380.022 76.1964 380.34C75.2452 383.69 72.9605 386.586 69.7983 388.449C69.4967 388.626 69.2331 388.176 69.533 387.999H69.533Z" fill="white"/>
<path d="M71.6399 359.991C72.2787 360.249 72.9768 360.356 73.6715 360.302C74.3662 360.249 75.0357 360.037 75.6198 359.686C75.9188 359.506 76.1821 359.956 75.885 360.136C75.2377 360.521 74.498 360.754 73.7307 360.814C72.9633 360.875 72.1916 360.761 71.483 360.482C71.4138 360.461 71.3559 360.417 71.3211 360.358C71.2863 360.299 71.2771 360.23 71.2954 360.164C71.3166 360.1 71.3646 360.045 71.4291 360.013C71.4936 359.98 71.5694 359.973 71.6399 359.991H71.6399Z" fill="white"/>
<path d="M114.962 370.483C114.779 370.601 114.596 370.719 114.412 370.841C111.958 372.437 109.649 374.215 107.507 376.156C107.338 376.303 107.17 376.455 107.007 376.607C101.9 381.334 97.7884 386.896 94.8809 393.009C93.7264 395.442 92.7742 397.953 92.0324 400.52C91.0082 404.065 90.2033 407.983 88.0341 410.922C87.8115 411.231 87.5684 411.527 87.3061 411.808L66.7994 412.416C66.7521 412.396 66.7047 412.38 66.6571 412.36L65.8395 412.419C65.8677 412.284 65.9002 412.145 65.9284 412.01C65.9444 411.932 65.965 411.853 65.9811 411.775C65.9932 411.723 66.0056 411.67 66.0133 411.623C66.0172 411.605 66.0214 411.588 66.0255 411.575C66.0333 411.527 66.0459 411.483 66.0538 411.44C66.2327 410.661 66.4179 409.882 66.6093 409.102C66.6092 409.098 66.6092 409.098 66.6136 409.093C68.0107 403.141 70.1678 397.363 73.0398 391.879C73.1279 391.717 73.2156 391.55 73.3131 391.387C74.6468 388.958 76.1934 386.634 77.9375 384.437C78.8966 383.237 79.921 382.083 81.0066 380.979C83.8176 378.131 87.0965 375.708 90.7232 373.8C97.9534 369.998 106.421 368.372 114.357 370.329C114.56 370.379 114.759 370.429 114.962 370.483Z" fill="#F0F0F0"/>
<path d="M114.924 370.725C104.778 372.9 95.6318 377.97 88.7851 385.216C87.2812 386.751 86.049 388.496 85.1337 390.386C84.3066 392.254 84.0364 394.291 84.3512 396.288C84.6042 398.155 85.0972 400.038 84.854 401.929C84.714 402.895 84.3543 403.823 83.7984 404.653C83.2424 405.482 82.5029 406.193 81.6283 406.74C79.4875 408.154 76.9236 408.775 74.3935 409.301C71.5842 409.885 68.6563 410.451 66.3539 412.15C66.075 412.356 65.7451 411.945 66.0236 411.739C70.0294 408.782 75.5504 409.214 79.9708 407.079C82.0335 406.083 83.7834 404.507 84.2271 402.328C84.6151 400.422 84.1085 398.48 83.8347 396.592C83.4967 394.648 83.6794 392.658 84.3669 390.795C85.1749 388.868 86.3323 387.082 87.7895 385.514C91.009 381.935 94.8182 378.845 99.0776 376.358C103.922 373.495 109.261 371.418 114.864 370.216C115.211 370.142 115.269 370.651 114.924 370.725V370.725Z" fill="white"/>
<path d="M90.841 382.763C89.6798 381.537 89.0284 379.971 89.003 378.343C88.9776 376.716 89.5798 375.133 90.7022 373.877C90.9303 373.624 91.3675 373.939 91.1392 374.193C90.0917 375.36 89.5308 376.835 89.5578 378.35C89.5848 379.866 90.198 381.323 91.2865 382.458C91.5228 382.705 91.0758 383.008 90.841 382.763V382.763Z" fill="white"/>
<path d="M84.0878 395.357C87.6828 395.609 91.2484 394.6 94.0738 392.533C94.3535 392.328 94.6835 392.74 94.4041 392.945C91.4596 395.091 87.7467 396.133 84.0063 395.863C83.6498 395.837 83.7332 395.331 84.0878 395.357V395.357Z" fill="white"/>
<path d="M104.04 374.165C104.382 374.725 104.87 375.199 105.459 375.542C106.048 375.886 106.721 376.089 107.416 376.133C107.773 376.155 107.689 376.661 107.335 376.639C106.567 376.587 105.824 376.362 105.172 375.984C104.52 375.606 103.978 375.086 103.594 374.47C103.553 374.415 103.535 374.347 103.546 374.28C103.557 374.214 103.595 374.153 103.652 374.112C103.711 374.072 103.785 374.055 103.857 374.065C103.93 374.075 103.996 374.111 104.04 374.165H104.04Z" fill="white"/>
<path d="M393.205 378.231C392.054 366.665 384.713 355.084 372.94 350.982C377.222 362.979 376.768 375.988 371.659 387.706C369.671 392.218 366.951 397.046 368.511 401.7C369.482 404.596 372.025 406.864 374.904 408.321C377.784 409.778 381.01 410.527 384.196 411.262L384.811 411.763C390.274 401.299 394.357 389.798 393.205 378.231Z" fill="#F0F0F0"/>
<path d="M372.814 351.196C379.497 358.571 383.492 367.702 384.233 377.292C384.432 379.354 384.277 381.432 383.775 383.449C383.218 385.4 382.104 387.177 380.55 388.596C379.131 389.946 377.509 391.176 376.469 392.821C375.951 393.67 375.633 394.611 375.536 395.582C375.439 396.553 375.565 397.532 375.907 398.454C376.693 400.774 378.336 402.694 380.013 404.52C381.875 406.547 383.844 408.626 384.573 411.263C384.662 411.582 385.193 411.437 385.105 411.118C383.836 406.531 379.146 403.808 377.009 399.647C376.012 397.705 375.642 395.475 376.71 393.488C377.643 391.751 379.314 390.482 380.765 389.126C382.302 387.762 383.455 386.071 384.121 384.202C384.733 382.214 384.974 380.145 384.833 378.083C384.597 373.436 383.571 368.853 381.792 364.5C379.792 359.522 376.884 354.896 373.194 350.823C372.966 350.571 372.587 350.946 372.814 351.196L372.814 351.196Z" fill="white"/>
<path d="M384.191 374.191C385.918 373.858 387.459 372.969 388.541 371.684C389.624 370.398 390.175 368.8 390.098 367.173C390.094 367.107 390.063 367.045 390.01 366.999C389.958 366.954 389.888 366.93 389.816 366.931C389.744 366.932 389.675 366.959 389.625 367.006C389.574 367.053 389.545 367.116 389.543 367.183C389.618 368.697 389.104 370.186 388.094 371.381C387.084 372.576 385.644 373.399 384.034 373.7C383.685 373.766 383.844 374.256 384.191 374.191Z" fill="white"/>
<path d="M381.368 387.999C378.333 386.203 376.144 383.416 375.237 380.196C375.147 379.876 374.615 380.022 374.705 380.34C375.656 383.69 377.94 386.586 381.103 388.449C381.404 388.626 381.668 388.176 381.368 387.999H381.368Z" fill="white"/>
<path d="M379.261 359.991C378.622 360.249 377.924 360.356 377.229 360.302C376.535 360.249 375.865 360.037 375.281 359.686C374.982 359.506 374.719 359.956 375.016 360.136C375.663 360.521 376.403 360.754 377.17 360.814C377.938 360.875 378.709 360.761 379.418 360.482C379.487 360.461 379.545 360.417 379.58 360.358C379.615 360.299 379.624 360.23 379.606 360.164C379.584 360.1 379.536 360.045 379.472 360.013C379.407 359.98 379.332 359.973 379.261 359.991H379.261Z" fill="white"/>
<path d="M335.939 370.483C336.122 370.601 336.305 370.719 336.489 370.841C338.943 372.437 341.252 374.215 343.394 376.156C343.563 376.303 343.731 376.455 343.894 376.607C349.001 381.334 353.113 386.896 356.02 393.009C357.175 395.442 358.127 397.953 358.869 400.52C359.893 404.065 360.698 407.983 362.867 410.922C363.09 411.231 363.333 411.527 363.595 411.808L384.102 412.416C384.149 412.396 384.196 412.38 384.244 412.36L385.062 412.419C385.033 412.284 385.001 412.145 384.973 412.01C384.957 411.932 384.936 411.853 384.92 411.775C384.908 411.723 384.896 411.671 384.888 411.623C384.884 411.605 384.88 411.588 384.876 411.575C384.868 411.527 384.855 411.483 384.847 411.44C384.668 410.661 384.483 409.882 384.292 409.102C384.292 409.098 384.292 409.098 384.287 409.093C382.89 403.141 380.733 397.363 377.861 391.88C377.773 391.717 377.685 391.55 377.588 391.387C376.254 388.958 374.708 386.634 372.964 384.437C372.004 383.237 370.98 382.083 369.894 380.979C367.083 378.131 363.805 375.708 360.178 373.8C352.948 369.998 344.48 368.372 336.544 370.329C336.341 370.379 336.142 370.429 335.939 370.483Z" fill="#F0F0F0"/>
<path d="M335.977 370.725C346.123 372.9 355.269 377.97 362.116 385.216C363.62 386.751 364.852 388.496 365.767 390.386C366.594 392.254 366.865 394.291 366.55 396.288C366.297 398.155 365.804 400.038 366.047 401.929C366.187 402.895 366.547 403.823 367.103 404.653C367.659 405.482 368.398 406.193 369.273 406.74C371.414 408.154 373.977 408.775 376.508 409.301C379.317 409.885 382.245 410.451 384.547 412.15C384.826 412.356 385.156 411.945 384.877 411.739C380.872 408.782 375.351 409.214 370.93 407.079C368.868 406.083 367.118 404.507 366.674 402.328C366.286 400.422 366.792 398.48 367.066 396.592C367.404 394.648 367.222 392.658 366.534 390.795C365.726 388.868 364.569 387.082 363.112 385.514C359.892 381.935 356.083 378.845 351.823 376.358C346.979 373.495 341.64 371.418 336.037 370.216C335.69 370.142 335.632 370.651 335.977 370.725V370.725Z" fill="white"/>
<path d="M360.06 382.763C361.221 381.537 361.873 379.971 361.898 378.343C361.924 376.716 361.321 375.133 360.199 373.877C359.971 373.624 359.534 373.939 359.762 374.193C360.809 375.36 361.37 376.835 361.343 378.35C361.316 379.866 360.703 381.323 359.615 382.458C359.378 382.705 359.825 383.008 360.06 382.763V382.763Z" fill="white"/>
<path d="M366.813 395.357C363.218 395.609 359.653 394.6 356.827 392.533C356.547 392.328 356.217 392.74 356.497 392.945C359.441 395.091 363.154 396.133 366.895 395.863C367.251 395.837 367.168 395.331 366.813 395.357V395.357Z" fill="white"/>
<path d="M346.861 374.165C346.519 374.725 346.031 375.199 345.442 375.542C344.853 375.886 344.18 376.089 343.485 376.133C343.128 376.155 343.212 376.661 343.566 376.639C344.334 376.587 345.077 376.362 345.729 375.984C346.381 375.606 346.923 375.086 347.307 374.47C347.348 374.415 347.366 374.347 347.355 374.28C347.344 374.214 347.306 374.153 347.249 374.112C347.19 374.072 347.116 374.055 347.044 374.065C346.971 374.075 346.905 374.111 346.861 374.165H346.861Z" fill="white"/>
<path d="M535 413.343C535 413.517 534.924 413.684 534.791 413.807C534.657 413.93 534.477 414 534.288 414H0.90807C0.719202 414 0.538066 413.931 0.404515 413.807C0.270965 413.684 0.195938 413.517 0.195938 413.343C0.195938 413.168 0.270965 413.001 0.404515 412.878C0.538066 412.755 0.719202 412.685 0.90807 412.685H534.288C534.477 412.686 534.657 412.755 534.791 412.878C534.924 413.002 535 413.169 535 413.343Z" fill="#3F3D56"/>
<path d="M343.761 159.076C345.248 159.076 346.454 157.963 346.454 156.59C346.454 155.217 345.248 154.105 343.761 154.105C342.274 154.105 341.068 155.217 341.068 156.59C341.068 157.963 342.274 159.076 343.761 159.076Z" fill="#3F3D56"/>
<path d="M310.04 175.736L346.345 154.683C346.673 154.493 347.04 154.366 347.423 154.31C347.806 154.254 348.198 154.27 348.574 154.358C348.95 154.445 349.303 154.602 349.612 154.819C349.92 155.036 350.178 155.309 350.369 155.62C350.56 155.932 350.681 156.276 350.724 156.631C350.767 156.987 350.732 157.347 350.62 157.69C350.508 158.033 350.322 158.351 350.074 158.626C349.825 158.9 349.518 159.126 349.172 159.288L310.951 177.22C310.739 177.319 310.494 177.34 310.266 177.276C310.038 177.213 309.845 177.071 309.728 176.88C309.61 176.688 309.577 176.463 309.635 176.25C309.694 176.037 309.839 175.853 310.04 175.736V175.736Z" fill="#E4E4E4"/>
<path d="M237.205 221.066C236.919 220.674 236.77 220.21 236.777 219.737C236.785 219.265 236.948 218.805 237.246 218.42C237.861 217.661 238.679 217.062 239.62 216.683C241.563 215.771 243.655 215.16 245.813 214.877C247.453 214.662 249.243 214.593 250.515 213.614C251.778 212.642 252.483 210.823 254.12 210.671C255.703 210.524 256.92 212.124 258.507 212.223C260.464 212.345 261.745 210.232 263.649 209.798C264.923 209.508 266.233 210.02 267.429 210.521L274.602 213.524L278.279 215.064C279.563 215.602 281.012 216.326 281.254 217.608C281.587 219.37 279.464 220.614 277.649 221.239C264.687 225.654 250.443 225.656 237.48 221.244" fill="#FBAB7E"/>
<path d="M248.012 253.527C300.066 253.527 342.265 247.963 342.265 241.099C342.265 234.235 300.066 228.671 248.012 228.671C195.958 228.671 153.76 234.235 153.76 241.099C153.76 247.963 195.958 253.527 248.012 253.527Z" fill="#3F3D56"/>
<path d="M439.21 318.151H374.58C371.605 318.151 369.194 320.377 369.194 323.122C369.194 325.868 371.605 328.094 374.58 328.094H439.21C442.185 328.094 444.596 325.868 444.596 323.122C444.596 320.377 442.185 318.151 439.21 318.151Z" fill="#3F3D56"/>
<path d="M470.532 229.522L449.186 323.117L454.745 347.072L465.242 392.282V412.602C465.243 412.63 465.241 412.658 465.236 412.685C465.232 413.134 465.143 413.579 464.972 414H456.535C456.364 413.579 456.275 413.134 456.271 412.685C456.267 412.658 456.265 412.63 456.266 412.602V393.154L446.739 352.121L444.812 343.835L441.083 327.779L440.006 323.128V323.122L441.071 318.461L441.891 314.865L461.747 227.821C461.868 227.288 462.101 226.782 462.433 226.332C462.766 225.883 463.191 225.498 463.684 225.2C464.178 224.902 464.73 224.697 465.31 224.596C465.89 224.496 466.485 224.501 467.062 224.613C467.639 224.725 468.187 224.941 468.674 225.248C469.161 225.555 469.577 225.948 469.899 226.404C470.221 226.86 470.443 227.37 470.552 227.905C470.66 228.44 470.654 228.989 470.532 229.522L470.532 229.522Z" fill="#3F3D56"/>
<path d="M379.068 323.122V412.603C379.069 412.63 379.067 412.658 379.062 412.685C379.059 413.134 378.969 413.579 378.799 414H370.361C370.19 413.579 370.101 413.134 370.098 412.685C370.093 412.658 370.091 412.63 370.092 412.603V323.122C370.092 322.024 370.565 320.97 371.406 320.193C372.248 319.416 373.39 318.98 374.58 318.98C375.77 318.98 376.912 319.416 377.754 320.193C378.595 320.97 379.068 322.024 379.068 323.122Z" fill="#3F3D56"/>
<path d="M385.352 308.209H428.439C432.724 308.209 436.834 309.78 439.864 312.577C442.894 315.374 444.596 319.167 444.596 323.122H369.194C369.194 319.167 370.896 315.374 373.927 312.577C376.957 309.78 381.066 308.209 385.352 308.209Z" fill="#3F3D56"/>
<path d="M449.982 352.121H374.58C373.39 352.121 372.248 351.684 371.406 350.907C370.565 350.13 370.092 349.077 370.092 347.978C370.092 346.879 370.565 345.826 371.406 345.049C372.248 344.272 373.39 343.835 374.58 343.835H449.982C451.172 343.835 452.314 344.272 453.156 345.049C453.997 345.826 454.47 346.879 454.47 347.978C454.47 349.077 453.997 350.13 453.156 350.907C452.314 351.684 451.172 352.121 449.982 352.121Z" fill="#3F3D56"/>
<path d="M99.2481 328.244H175.303C178.278 328.244 180.689 326.019 180.689 323.273V321.767C180.689 319.021 178.278 316.796 175.303 316.796H99.2481C96.2736 316.796 93.8622 319.021 93.8622 321.767V323.273C93.8622 326.019 96.2736 328.244 99.2481 328.244Z" fill="#3F3D56"/>
<path d="M98.4647 322.587L97.0882 327.823L92.0375 347L89.8594 355.286L79.7457 393.718V410.393C79.7484 411.21 79.4858 412.008 78.9918 412.685C78.6035 413.233 78.0754 413.685 77.454 414H73.0613C72.4399 413.685 71.9118 413.233 71.5235 412.685C71.0294 412.008 70.7667 411.21 70.7693 410.393V392.724L82.0079 350.027L89.261 322.454L64.6655 214.609C64.5438 214.076 64.5369 213.527 64.6453 212.992C64.7537 212.458 64.9752 211.948 65.2972 211.492C65.6191 211.037 66.0353 210.644 66.5218 210.337C67.0082 210.03 67.5555 209.814 68.1324 209.702C68.7092 209.59 69.3043 209.585 69.8835 209.685C70.4627 209.786 71.0148 209.991 71.5081 210.289C72.0015 210.586 72.4264 210.971 72.7586 211.42C73.0909 211.869 73.3239 212.375 73.4444 212.907L96.1789 312.567L97.2261 317.163L98.4466 322.52L98.4647 322.587Z" fill="#3F3D56"/>
<path d="M178.977 322.52V410.393C178.98 411.21 178.717 412.008 178.223 412.685C177.835 413.233 177.307 413.685 176.685 414H172.287C171.668 413.683 171.143 413.232 170.755 412.685C170.261 412.008 169.998 411.21 170.001 410.393V322.52C170.001 321.422 170.474 320.368 171.316 319.591C172.157 318.814 173.299 318.378 174.489 318.378C175.68 318.378 176.821 318.814 177.663 319.591C178.505 320.368 178.977 321.422 178.977 322.52Z" fill="#3F3D56"/>
<path d="M180.689 322.52H93.8622V320.26C93.8622 318.302 94.2801 316.363 95.0921 314.553C95.9041 312.744 97.0943 311.1 98.5947 309.715C100.095 308.33 101.876 307.232 103.837 306.482C105.797 305.733 107.898 305.347 110.02 305.347H164.531C168.817 305.347 172.926 306.918 175.956 309.715C178.987 312.512 180.689 316.305 180.689 320.26V322.52H180.689Z" fill="#3F3D56"/>
<path d="M174.487 355.284H87.6603C86.47 355.284 85.3284 354.848 84.4867 354.071C83.645 353.294 83.1721 352.24 83.1721 351.141C83.1721 350.043 83.645 348.989 84.4867 348.212C85.3284 347.435 86.47 346.999 87.6603 346.999H174.487C175.677 346.999 176.819 347.435 177.661 348.212C178.502 348.989 178.975 350.043 178.975 351.141C178.975 352.24 178.502 353.294 177.661 354.071C176.819 354.848 175.677 355.284 174.487 355.284Z" fill="#3F3D56"/>
<path d="M286.073 391.421L276.64 387.257L289.598 350.863L303.521 357.008L286.073 391.421Z" fill="#9E616A"/>
<path d="M350.003 388.124L339.859 390.434L325.162 354.616L340.134 351.207L350.003 388.124Z" fill="#9E616A"/>
<path d="M311.125 233.238C312.47 235.255 314.616 236.706 317.105 237.282C319.594 237.859 322.229 237.514 324.447 236.322C324.893 236.073 325.315 235.791 325.711 235.477L355.534 251.274L354.239 235.058L326.117 222.543C324.586 221.124 322.589 220.214 320.439 219.956C318.288 219.697 316.105 220.105 314.232 221.114C313.154 221.712 312.216 222.502 311.474 223.44C310.731 224.377 310.2 225.442 309.91 226.572C309.621 227.701 309.579 228.873 309.788 230.018C309.996 231.163 310.451 232.257 311.125 233.238Z" fill="#9E616A"/>
<path d="M342.712 245.325L347.984 248.291L371.66 261.617C373.216 262.515 374.947 263.121 376.757 263.401C378.566 263.681 380.417 263.629 382.205 263.248C383.992 262.868 385.681 262.165 387.174 261.182C388.667 260.198 389.936 258.953 390.907 257.516C392.66 254.851 393.281 251.68 392.648 248.616L382.125 200.091C381.737 198.187 380.907 196.382 379.693 194.8C378.479 193.218 376.909 191.897 375.09 190.927C373.272 189.957 371.249 189.36 369.158 189.179C367.067 188.997 364.958 189.234 362.976 189.874C359.643 190.955 356.882 193.166 355.254 196.06C353.626 198.953 353.254 202.31 354.212 205.447L365.216 239.885L348.349 232.626L342.712 245.325Z" fill="#E6E6E6"/>
<path d="M330.248 378.087L314.016 348.04L314.018 347.971L315.621 292.86C315.641 292.37 315.684 291.877 315.748 291.393C316.032 289.183 316.788 287.047 317.975 285.11C319.161 283.173 320.754 281.474 322.659 280.111C324.484 278.793 326.575 277.823 328.81 277.259C331.045 276.695 333.38 276.547 335.677 276.825L382.092 282.369L383.701 276.294L384.001 276.193L428.473 261.149L428.729 261.535C434.553 270.282 438.625 287.754 439.734 292.901L439.75 292.975C439.774 293.084 439.788 293.149 439.792 293.168C442.082 301.951 432.622 316.5 423.198 318.687C403.348 323.357 385.596 319.714 365.04 315.496C357.669 313.982 350.051 312.419 341.66 311.067L341.909 315.625C342.114 319.133 342.903 322.592 344.25 325.878C345.746 329.922 346.928 333.117 344.429 339.778L343.221 343C343.847 344.599 344.063 346.311 343.851 348.001C343.639 349.691 343.004 351.312 341.997 352.737L341.754 353.08L352.458 378.081L330.248 378.087Z" fill="#2F2E41"/>
<path d="M303.579 364.799L284.222 363.138L291.08 342.896C292.495 329.679 296.061 316.735 301.657 304.499L311.01 284.039C311.032 283.584 311.073 283.125 311.134 282.676C311.417 280.467 312.173 278.331 313.36 276.394C314.546 274.457 316.139 272.757 318.044 271.394C319.87 270.077 321.961 269.108 324.195 268.544C326.43 267.98 328.765 267.832 331.062 268.109L377.408 273.645L379.426 258.007L423.91 252.513L424.114 252.819C431.889 264.495 436.826 273.637 439.649 281.587C439.79 281.992 439.916 282.406 440.024 282.818C442.329 291.66 436.575 300.625 427.197 302.801C403.299 308.425 374.561 308.269 336.777 302.307L318.49 342.474C316.743 346.31 314.579 349.974 312.032 353.408L303.579 364.799Z" fill="#2F2E41"/>
<path d="M371.096 162.025C383.479 162.025 393.517 152.553 393.517 140.869C393.517 129.184 383.479 119.712 371.096 119.712C358.713 119.712 348.674 129.184 348.674 140.869C348.674 152.553 358.713 162.025 371.096 162.025Z" fill="#9E616A"/>
<path d="M377.57 274.383L374.353 263.745L373.562 258.498L368.938 258.64L359.863 239.306L356.338 234.208C355.619 233.51 354.968 232.838 354.384 232.193C350.712 228.361 347.767 223.985 345.674 219.247C344.208 215.844 343.347 212.244 343.124 208.587C342.466 197.784 347.4 186.355 358.208 173.648C358.031 173.199 357.913 172.731 357.856 172.255C357.663 170.712 358.138 169.16 359.177 167.938C360.217 166.716 361.738 165.922 363.408 165.73L373.832 164.649C374.643 164.565 375.464 164.63 376.247 164.84C377.03 165.051 377.76 165.403 378.394 165.877C379.057 166.367 379.607 166.974 380.012 167.662C380.418 168.35 380.671 169.105 380.757 169.884C380.897 171.09 380.64 172.306 380.02 173.375C385.333 173.998 390.339 176.022 394.438 179.205C398.536 182.388 401.552 186.594 403.125 191.32C409.363 202.068 414.334 213.401 417.955 225.127C418.668 227.424 418.351 229.79 418.043 232.078C417.759 234.192 417.466 236.378 417.96 238.557C418.462 240.773 419.669 242.996 420.948 245.349C422.413 248.044 423.927 250.832 424.337 253.673L424.366 253.872L377.57 274.383Z" fill="#E4E4E4"/>
<path opacity="0.2" d="M345.951 219.143C348.034 223.852 350.963 228.204 354.614 232.016C355.239 232.705 355.899 233.382 356.59 234.06L360.137 239.197C373.212 230.151 383.805 194.535 383.805 194.535L369.053 191.886L345.951 219.143Z" fill="black"/>
<path d="M337.02 164.001C338.312 166.049 338.687 168.482 338.065 170.781C337.443 173.08 335.874 175.065 333.691 176.313C333.243 176.56 332.774 176.773 332.288 176.948L333.332 208.672L318.448 200.024L319.738 171.224C319.105 169.308 319.177 167.252 319.943 165.377C320.709 163.502 322.125 161.914 323.972 160.861C325.047 160.26 326.242 159.865 327.486 159.698C328.73 159.53 329.998 159.595 331.214 159.888C332.431 160.181 333.571 160.696 334.568 161.402C335.565 162.109 336.399 162.992 337.02 164.001Z" fill="#9E616A"/>
<path d="M334.64 196.697L318.272 198.846L318.976 230.131C319.017 232.363 319.675 234.548 320.889 236.479C322.102 238.41 323.831 240.022 325.909 241.163C328.449 242.542 331.406 243.122 334.333 242.815C337.261 242.508 340.002 241.332 342.142 239.462L380.785 205.155C383.504 202.774 385.131 199.522 385.332 196.068C385.533 192.614 384.292 189.22 381.865 186.584C380.664 185.272 379.189 184.196 377.529 183.42C375.869 182.643 374.056 182.183 372.199 182.066C370.342 181.948 368.479 182.176 366.72 182.736C364.96 183.297 363.34 184.177 361.957 185.326C361.575 185.641 361.212 185.975 360.869 186.326L335.352 213.42L334.64 196.697Z" fill="#E6E6E6"/>
<path d="M197.74 400.765L209.357 400.764L214.885 359.402L197.738 359.403L197.74 400.765Z" fill="#FFB6B6"/>
<path d="M131.887 162.639C144.693 162.639 155.075 153.057 155.075 141.236C155.075 129.416 144.693 119.834 131.887 119.834C119.08 119.834 108.698 129.416 108.698 141.236C108.698 153.057 119.08 162.639 131.887 162.639Z" fill="#FFB6B6"/>
<path d="M213.149 388.023H196.697L192.503 382.834L191.368 377.945L190.39 377.072C189.065 375.897 188.208 374.344 187.958 372.664C187.708 370.984 188.081 369.275 189.015 367.814L177.092 316.468C173.969 316.214 138.751 313.308 114.269 309.309C108.004 308.285 103.113 305.474 99.7303 300.954C91.4195 289.846 94.9796 271.872 95.0165 271.692L95.0575 271.492L95.2771 271.469L152.46 265.545L152.537 265.579C154.434 266.408 199.095 285.978 206.394 292.714C209.689 295.756 217.042 313.829 218.688 333.043C218.983 336.485 217.922 339.99 216.896 343.38C215.936 346.552 214.943 349.832 215.139 352.933C215.442 357.717 215.728 362.736 215.992 367.849C216.034 368.664 216.699 369.507 217.342 370.323C218.014 371.175 218.648 371.979 218.689 372.821C219.08 380.987 213.297 387.85 213.239 387.918L213.149 388.023Z" fill="#2F2E41"/>
<path d="M216.895 198.242C215.65 197.928 214.345 197.869 213.072 198.071C211.799 198.272 210.59 198.729 209.529 199.409C208.468 200.088 207.581 200.975 206.932 202.005C206.282 203.035 205.885 204.184 205.769 205.371L186.502 210.929L187.306 222.559L214.395 214.358C216.568 214.406 218.685 213.717 220.345 212.421C222.005 211.125 223.092 209.312 223.4 207.325C223.709 205.339 223.217 203.317 222.018 201.643C220.819 199.969 218.996 198.759 216.895 198.242V198.242Z" fill="#FFB6B6"/>
<path d="M204.325 217.488L189.925 222.518L189.557 223.178C188.674 224.758 187.147 225.951 185.312 226.492C183.477 227.034 181.484 226.88 179.771 226.066L147.405 237.372C147.405 237.372 132.951 224.022 122.661 212.107L126.168 192.196C126.98 187.577 128.707 183.134 131.261 179.091C152.365 183.363 164.48 210.593 164.48 210.593L202.515 203.894L204.325 217.488Z" fill="#FBAB7E"/>
<path d="M128.591 161.495C122.786 162.942 116.386 161.018 111.856 157.369C107.326 153.719 104.492 148.548 102.859 143.206C101.663 139.294 101.096 134.952 102.983 131.279C104.87 127.606 109.949 125.129 113.868 126.984C111.45 124.384 112.658 120.085 115.481 117.861C118.305 115.637 122.181 115 125.873 114.651C131.232 114.146 136.767 114.089 141.866 115.691C146.965 117.294 151.598 120.797 153.193 125.545C154.823 126.245 156.659 126.427 158.413 126.062C160.166 125.696 161.739 124.804 162.885 123.525C163.18 124.994 162.943 126.512 162.21 127.844C161.477 129.175 160.288 130.247 158.829 130.893L166.641 128.555C167.985 131.18 165.631 134.429 162.62 135.269C159.609 136.11 156.36 135.191 153.503 133.976C150.646 132.762 147.877 131.227 144.774 130.753C141.67 130.279 138.025 131.2 136.59 133.783C135.838 135.136 135.799 136.721 135.362 138.187C134.926 139.653 133.82 141.173 132.178 141.293C131.14 141.369 130.124 140.859 129.09 140.963C127.807 141.092 126.825 142.165 126.483 143.314C126.226 144.484 126.223 145.69 126.474 146.861L128.459 160.862" fill="#2F2E41"/>
<path d="M99.8636 303.511C99.8592 303.511 99.8548 303.511 99.8505 303.51L99.6672 303.481L99.6141 303.317C98.9475 301.247 98.0991 299.129 97.2787 297.08C96.0704 294.242 95.0502 291.339 94.2237 288.388C93.5733 285.566 93.1223 282.708 92.8735 279.831C92.6447 277.743 92.408 275.584 92.0056 273.459C91.8269 272.515 92.5041 271.621 93.159 270.757C93.7662 269.956 94.3397 269.199 94.2194 268.482C94.0963 267.75 93.2165 266.946 92.3656 266.168C91.433 265.316 90.4686 264.434 90.3321 263.506C88.4733 250.846 87.6081 238.079 87.7433 225.304C87.9354 207.629 88.8009 195.581 90.3155 189.495C94.3883 173.13 113.205 170.144 116.15 169.775C116.464 169.004 116.946 168.301 117.567 167.709C118.188 167.117 118.934 166.65 119.759 166.336C120.584 166.022 121.47 165.868 122.363 165.884C123.255 165.899 124.134 166.084 124.946 166.427L138.315 172.076C141.027 173.226 143.454 174.878 145.445 176.931C147.436 178.983 148.948 181.391 149.888 184.005L151.874 189.594L152.868 227.109L147.355 253.527L158.127 268.44C100.718 297.532 100.048 303.511 99.8636 303.511Z" fill="#FBAB7E"/>
<path d="M191.488 396.597L195.265 396.597L210.013 391.061L217.917 396.596H217.918C222.385 396.596 226.669 398.234 229.827 401.149C232.986 404.065 234.76 408.018 234.761 412.141V412.646L191.488 412.648L191.488 396.597Z" fill="#2F2E41"/>
<path d="M221.72 225.013C220.606 224.409 219.362 224.039 218.077 223.927C216.791 223.815 215.494 223.965 214.278 224.365C213.062 224.766 211.956 225.408 211.037 226.246C210.119 227.084 209.411 228.098 208.963 229.216L188.792 229.942L186.075 238.613L214.75 239.968C216.834 240.538 219.073 240.383 221.042 239.531C223.011 238.68 224.573 237.191 225.432 235.348C226.291 233.504 226.387 231.434 225.703 229.529C225.019 227.624 223.602 226.017 221.72 225.013Z" fill="#FFB6B6"/>
<path d="M205.151 240.904L184.432 240.665L181.809 240.632L139.655 240.142C139.655 240.142 128.208 230.062 118.24 219.684L119.637 210.357C121 201.204 125.92 192.819 133.48 186.763C147.757 195.568 156.036 212.996 156.036 212.996L169.917 218.729C179.686 219.132 189.206 221.706 197.667 226.23L202.232 228.671L205.151 240.904Z" fill="#FBAB7E"/>
<path d="M357.404 405.767L350.51 407.337L347.673 401.61L346.128 408.335L327.844 412.5C326.967 412.7 326.045 412.636 325.211 412.317C324.377 411.999 323.675 411.442 323.207 410.729C322.74 410.016 322.532 409.184 322.613 408.355C322.694 407.525 323.061 406.741 323.659 406.117L335.772 393.483L334.148 387.41L349.732 384.758L357.404 405.767Z" fill="#2F2E41"/>
<path d="M284.371 407.73L277.797 405.254L279.157 399.083L273.618 403.679L256.182 397.11C255.346 396.795 254.641 396.242 254.17 395.531C253.699 394.821 253.486 393.989 253.563 393.159C253.64 392.329 254.003 391.543 254.598 390.917C255.193 390.29 255.989 389.856 256.871 389.676L274.72 386.046L277.281 380.255L291.57 386.579L284.371 407.73Z" fill="#2F2E41"/>
<path d="M261.477 238.89H256.091C250.3 238.884 244.748 236.758 240.653 232.978C236.558 229.199 234.255 224.074 234.248 218.729V218.453H283.319V218.729C283.313 224.074 281.01 229.199 276.915 232.978C272.82 236.758 267.268 238.884 261.477 238.89Z" fill="#E4E4E4"/>
<path d="M256.091 211.272C256.091 212.645 253.398 213.758 253.398 213.758C253.398 213.758 250.705 212.645 250.705 211.272C250.705 209.9 253.398 208.787 253.398 208.787C253.398 208.787 256.091 209.9 256.091 211.272Z" fill="#3F3D56"/>
<path d="M272.249 211.272C272.249 212.645 269.556 213.758 269.556 213.758C269.556 213.758 266.863 212.645 266.863 211.272C266.863 209.9 269.556 208.787 269.556 208.787C269.556 208.787 272.249 209.9 272.249 211.272Z" fill="#3F3D56"/>
<path d="M261.477 216.243C261.477 217.616 258.784 218.729 258.784 218.729C258.784 218.729 256.091 217.616 256.091 216.243C256.091 214.871 258.784 213.758 258.784 213.758C258.784 213.758 261.477 214.871 261.477 216.243Z" fill="#3F3D56"/>
<path d="M242.626 206.025C244.114 206.025 245.319 204.912 245.319 203.54C245.319 202.167 244.114 201.054 242.626 201.054C241.139 201.054 239.933 202.167 239.933 203.54C239.933 204.912 241.139 206.025 242.626 206.025Z" fill="#3F3D56"/>
<path d="M203.462 198.198L245.934 203.612C246.318 203.661 246.688 203.781 247.02 203.966C247.352 204.15 247.641 204.395 247.868 204.685C248.095 204.975 248.256 205.305 248.341 205.654C248.427 206.003 248.434 206.365 248.364 206.717C248.293 207.069 248.146 207.404 247.932 207.703C247.717 208.001 247.439 208.256 247.115 208.452C246.79 208.648 246.426 208.782 246.044 208.844C245.662 208.907 245.271 208.898 244.893 208.817L203.126 199.876C202.894 199.826 202.692 199.696 202.561 199.512C202.431 199.328 202.382 199.105 202.425 198.889C202.469 198.673 202.6 198.48 202.793 198.352C202.986 198.223 203.226 198.168 203.462 198.198Z" fill="#E4E4E4"/>
<path d="M255.073 74.6843V0H249.687V74.6843C242.328 75.3041 235.486 78.4401 230.504 83.4769C225.521 88.5137 222.758 95.0875 222.758 101.908V109.365H241.608C241.608 112.001 242.743 114.53 244.763 116.395C246.783 118.259 249.523 119.307 252.38 119.307C255.237 119.307 257.976 118.259 259.997 116.395C262.017 114.53 263.152 112.001 263.152 109.365H282.002V101.908C282.001 95.0875 279.238 88.5137 274.256 83.4769C269.274 78.4401 262.432 75.3041 255.073 74.6843Z" fill="#F0F0F0"/>
<path d="M324.416 56.0132V0H320.376V56.0132C314.857 56.478 309.726 58.8301 305.989 62.6077C302.252 66.3853 300.18 71.3156 300.179 76.4309V82.0234H314.317C314.317 84.001 315.168 85.8977 316.683 87.2961C318.199 88.6945 320.253 89.4801 322.396 89.4801C324.539 89.4801 326.594 88.6945 328.109 87.2961C329.624 85.8977 330.475 84.001 330.475 82.0234H344.613V76.4309C344.612 71.3156 342.54 66.3853 338.803 62.6077C335.066 58.8301 329.935 56.478 324.416 56.0132Z" fill="#F0F0F0"/>
<path d="M187.974 56.0132V0H183.934V56.0132C178.415 56.478 173.284 58.8301 169.547 62.6077C165.81 66.3853 163.738 71.3156 163.737 76.4309V82.0234H177.875C177.875 84.001 178.727 85.8977 180.242 87.2961C181.757 88.6945 183.812 89.4801 185.954 89.4801C188.097 89.4801 190.152 88.6945 191.667 87.2961C193.182 85.8977 194.033 84.001 194.033 82.0234H208.171V76.4309C208.17 71.3156 206.098 66.3853 202.361 62.6077C198.625 58.8301 193.493 56.478 187.974 56.0132Z" fill="#F0F0F0"/>
<path d="M431.094 131.693C427.282 127.591 425.471 122.148 422.424 117.49C419.377 112.832 414.075 108.663 408.474 109.747C404.613 110.494 401.629 113.639 400.118 117.145C398.608 120.651 398.324 124.517 398.06 128.305C398.153 120.521 392.597 112.975 384.943 110.491C377.29 108.007 368.13 110.778 363.321 117.031C361.222 115.236 358.482 114.214 355.621 114.158C352.76 114.103 349.977 115.018 347.798 116.731C343.497 120.279 342.545 127.034 345.708 131.56C348.872 136.087 355.723 137.773 360.751 135.262L362.529 136.772C361.528 140.001 363.468 143.817 366.73 145.032C369.375 146.018 373.108 145.854 374.098 148.416C374.79 150.206 373.497 152.117 372.122 153.492C370.747 154.868 369.114 156.288 368.949 158.191C368.7 161.063 371.915 163.075 374.838 163.681C381.886 165.142 389.706 162.129 393.768 156.389C393.847 156.278 393.932 156.167 394.024 156.056C396.303 153.366 397.964 150.275 398.905 146.973C399.846 143.67 400.048 140.225 399.498 136.848C399.27 135.521 399.5 134.534 400.491 134.22C404.775 132.862 416.778 135.712 420.41 138.289C424.043 140.865 426.951 144.275 430.45 147.017C433.949 149.76 438.408 151.876 442.851 151.129C446.409 150.531 449.436 148.146 451.472 145.27C453.508 142.394 454.679 139.042 455.729 135.711C447.861 139.906 437.093 138.15 431.094 131.693Z" fill="#2F2E41"/>
</g>
<defs>
<clipPath id="clip0_7_1176">
<rect width="534.804" height="414" fill="white" transform="translate(0.195679)"/>
</clipPath>
</defs>
</svg>
