<svg width="143" height="80" viewBox="0 0 143 80" fill="none" xmlns="http://www.w3.org/2000/svg">
<path d="M16.7044 38.7921C16.8447 38.7417 17.0098 38.753 17.1995 38.8259C17.3961 38.8906 17.5769 38.9907 17.7419 39.126C17.9315 39.2816 18.0648 39.4461 18.1416 39.6195C18.2103 39.7862 18.1895 39.9347 18.0793 40.065L14.7951 43.9511C14.5679 44.22 14.3078 44.3791 14.0148 44.4284C13.7217 44.4777 13.4474 44.3974 13.1918 44.1877L7.3657 39.4077C6.73897 38.8935 6.15404 38.5447 5.61091 38.3612C5.61122 38.0304 5.66926 37.7469 5.78503 37.5108C5.89943 37.2597 6.11499 36.9468 6.43171 36.5721L9.42674 33.0281C9.50248 32.9385 9.59879 32.9072 9.71568 32.9341C9.83257 32.961 9.95699 33.0286 10.0889 33.1369C10.2786 33.2925 10.438 33.4922 10.567 33.7361C10.6961 33.9799 10.7378 34.1866 10.6923 34.3562C9.48401 34.9928 8.42686 35.8223 7.52082 36.8448L10.4524 39.25L12.6935 36.5982C12.8764 36.6792 13.0338 36.7739 13.1657 36.8821C13.3224 37.0107 13.4578 37.1562 13.5718 37.3187L11.341 39.9584L14.5942 42.6274C15.0321 42.0762 15.4605 41.4206 15.8794 40.6606C16.29 39.8938 16.565 39.271 16.7044 38.7921Z" fill="white"/>
<path d="M29.4749 28.5521C29.8494 28.8149 30.1908 28.9682 30.4993 29.0121C30.4804 29.4321 30.2562 29.809 29.8268 30.143C29.5657 30.3459 29.2992 30.4653 29.0273 30.5012C28.7638 30.5304 28.5276 30.4574 28.3188 30.282L26.07 28.6259L23.2154 30.8456L24.0889 32.7806C24.2033 33.0429 24.3206 33.249 24.4406 33.3989C24.5806 33.5737 24.7336 33.6709 24.8996 33.6904C24.7863 33.8731 24.6723 34.0293 24.5575 34.1591C24.4579 34.2906 24.3155 34.4284 24.1302 34.5724C23.8102 34.8212 23.5311 34.9504 23.2928 34.9601C23.063 34.9631 22.8514 34.844 22.658 34.6025C22.498 34.4027 22.326 34.0771 22.1421 33.6257L18.779 24.3853C19.1221 23.8753 19.5252 23.4403 19.9883 23.0802C20.4936 22.6873 20.9359 22.6339 21.3152 22.9198L29.4749 28.5521ZM25.1199 27.9259L20.3264 24.398L22.7326 29.7821L25.1199 27.9259Z" fill="white"/>
<path d="M39.4383 24.6468C38.3129 25.186 37.3695 25.4074 36.6082 25.3109C35.8422 25.2048 35.3105 24.8504 35.0131 24.2478C34.862 23.9417 34.8307 23.6492 34.9191 23.3704C35.0027 23.0819 35.2513 22.8386 35.665 22.6405C35.8381 22.5575 35.9823 22.5002 36.0976 22.4687C36.1301 22.6068 36.1794 22.7429 36.2455 22.8768C36.2927 22.9725 36.359 23.0826 36.4443 23.2073C36.7382 23.6342 37.141 23.9202 37.6527 24.0653C38.1644 24.2105 38.7377 24.1309 39.3726 23.8268C39.844 23.6009 40.1722 23.2899 40.3573 22.8938C40.5377 22.488 40.5075 22.0412 40.2668 21.5534C40.0402 21.0943 39.6974 20.7854 39.2386 20.6268C38.7846 20.454 38.0857 20.3394 37.142 20.283C36.2415 20.2177 35.5161 20.1335 34.9657 20.0306C34.4107 19.918 33.9233 19.7258 33.5036 19.4538C33.0888 19.1676 32.7516 18.7615 32.492 18.2354C32.0671 17.3745 32.0706 16.5863 32.5026 15.8709C32.9394 15.1412 33.6532 14.539 34.644 14.0643C35.5675 13.6219 36.379 13.4105 37.0786 13.4301C37.7781 13.4498 38.2624 13.7322 38.5315 14.2774C38.659 14.5357 38.6858 14.783 38.6122 15.0194C38.5434 15.2415 38.3382 15.4404 37.9967 15.6158C37.9629 15.6438 37.8979 15.6809 37.8017 15.727C37.7151 15.7684 37.5998 15.8119 37.4557 15.8573C37.3191 15.5324 37.1438 15.2734 36.9296 15.0804C36.6968 14.8016 36.3938 14.6334 36.0204 14.5757C35.6423 14.5085 35.2176 14.5878 34.7462 14.8137C34.3614 14.998 34.0719 15.255 33.8778 15.5845C33.6932 15.9095 33.7095 16.292 33.9266 16.732C34.0777 17.0381 34.2796 17.2784 34.5323 17.453C34.7849 17.6276 35.129 17.7585 35.5645 17.8455C35.9999 17.9326 36.5913 17.9981 37.3386 18.0422C38.0716 18.0813 38.7012 18.1522 39.2276 18.2548C39.7493 18.3479 40.2392 18.533 40.6971 18.8103C41.1551 19.0876 41.5163 19.4941 41.7807 20.0298C42.0403 20.5559 42.1368 21.101 42.0703 21.665C42.0086 22.215 41.7578 22.755 41.3177 23.2852C40.8825 23.8012 40.256 24.2551 39.4383 24.6468Z" fill="white"/>
<path d="M54.2249 14.7761L54.686 16.6564C54.8791 17.4437 55.1377 18.0729 55.4619 18.544C55.3757 18.6851 55.2402 18.827 55.0556 18.9696C54.8709 19.1123 54.654 19.2132 54.405 19.2725C54.0626 19.354 53.7595 19.3275 53.4959 19.1929C53.2322 19.0583 53.0611 18.8304 52.9823 18.5093L52.1859 15.2615C52.0362 15.1436 51.875 14.9791 51.7025 14.768L48.1429 10.665C47.8104 10.2946 47.4711 10.008 47.1249 9.80536C47.2424 9.61291 47.4105 9.42489 47.629 9.24129C47.8451 9.04732 48.1087 8.91329 48.42 8.83918C48.7936 8.75025 49.1018 8.77556 49.3447 8.9151C49.5876 9.05464 49.8442 9.29506 50.1146 9.63638L53.2746 13.5879L54.1367 8.97492C54.1924 8.70947 54.1949 8.47315 54.1441 8.26596C54.1187 8.16236 54.0738 8.06888 54.0094 7.98553C53.9529 7.88934 53.8859 7.81758 53.8084 7.77024C54.097 7.55899 54.4644 7.40025 54.9106 7.29403C55.2219 7.21992 55.4757 7.24722 55.672 7.37592C55.8658 7.49426 55.9996 7.68169 56.0735 7.93822C56.1116 8.09361 56.1119 8.29638 56.0744 8.54653C56.0447 8.78385 55.9852 9.03375 55.8958 9.29625L54.2249 14.7761Z" fill="white"/>
<path d="M77.0847 14.8304C77.0788 15.641 77.1752 16.3137 77.374 16.8485C77.2558 16.965 77.0897 17.0705 76.8757 17.1649C76.6617 17.2594 76.4267 17.3058 76.1707 17.304C75.84 17.3016 75.5687 17.2037 75.3568 17.0102C75.1449 16.8167 75.0401 16.5546 75.0425 16.2239L75.0845 8.27204L72.262 15.7402C71.8342 15.8866 71.4603 15.9586 71.1404 15.9563C70.8524 15.9543 70.5861 15.8991 70.3415 15.7907C69.8267 14.7096 69.3023 13.4899 68.7682 12.1314C68.2341 10.7729 67.7531 9.44151 67.3253 8.13711L67.293 14.761C67.2861 15.6997 67.382 16.4417 67.5807 16.9871C67.4088 17.1566 67.1629 17.2402 66.8429 17.2379C66.3736 17.2346 66.1409 16.9556 66.145 16.401L66.2056 8.08118C66.2126 7.12121 66.1806 6.40097 66.1094 5.92045C66.292 5.7404 66.778 5.65318 67.5673 5.65876C67.8233 5.66057 68.0364 5.69408 68.2066 5.75929C68.3768 5.8245 68.5254 5.92155 68.6525 6.05045C69.9917 9.64402 70.9858 12.2858 71.6348 13.9758C72.9625 10.3691 73.9207 7.68245 74.5096 5.91591C74.884 5.77989 75.3271 5.71369 75.8391 5.71731C76.1485 5.7195 76.4308 5.7695 76.6861 5.86731C76.9521 5.95453 77.106 6.05696 77.1478 6.17459L77.0847 14.8304Z" fill="white"/>
<path d="M92.3451 18.0825C92.4511 18.1854 92.5117 18.3375 92.5267 18.5389C92.5522 18.7429 92.5387 18.9483 92.4864 19.1551C92.4262 19.3929 92.3338 19.5844 92.2091 19.7295C92.087 19.8643 91.943 19.9113 91.7773 19.8706L86.8361 18.6572C86.4943 18.5733 86.2381 18.4115 86.0677 18.172C85.8972 17.9324 85.8525 17.6524 85.9336 17.3318L87.7816 10.0259C87.9804 9.23997 88.0468 8.56433 87.9808 7.99894C88.2817 7.85318 88.5643 7.77979 88.8286 7.7788C89.1059 7.77001 89.4828 7.82412 89.9593 7.94113L94.4654 9.04767C94.5794 9.07565 94.6492 9.14771 94.6748 9.26384C94.7005 9.37997 94.6924 9.52076 94.6505 9.68621C94.5903 9.92406 94.4771 10.1543 94.3107 10.3771C94.1443 10.5998 93.9743 10.7283 93.8006 10.7626C92.7038 9.96603 91.4964 9.38945 90.1783 9.03282L89.2484 12.709L92.6202 13.537C92.6249 13.7359 92.6064 13.918 92.5645 14.0835C92.5148 14.28 92.4405 14.4649 92.3416 14.6383L88.9854 13.8142L87.9534 17.8937C88.6424 18.0409 89.4221 18.1335 90.2927 18.1716C91.1658 18.1993 91.85 18.1696 92.3451 18.0825Z" fill="white"/>
<path d="M107.303 24.8848C107.225 25.3323 107.233 25.7026 107.326 25.9956C106.934 26.1627 106.493 26.1288 106.003 25.8937C105.704 25.7509 105.48 25.5666 105.33 25.3408C105.189 25.1197 105.154 24.878 105.224 24.6159L105.764 21.8943L102.503 20.3319L101.113 21.9547C100.923 22.1711 100.786 22.3654 100.701 22.5376C100.602 22.7385 100.579 22.9169 100.633 23.0728C100.417 23.0522 100.225 23.0194 100.057 22.9743C99.8939 22.9434 99.7065 22.8773 99.4949 22.7759C99.1294 22.6008 98.8907 22.4096 98.7789 22.2023C98.6767 21.9996 98.6941 21.7595 98.831 21.4821C98.9443 21.2526 99.1673 20.9573 99.5001 20.5963L106.485 13.5647C107.099 13.646 107.671 13.8134 108.2 14.0669C108.777 14.3434 109.017 14.7127 108.92 15.1747L107.303 24.8848ZM105.993 20.7443L107.142 14.944L103.265 19.4377L105.993 20.7443Z" fill="white"/>
<path d="M115.401 30.3415C115.958 30.7547 116.585 31.1215 117.284 31.4416C117.991 31.7682 118.59 31.9724 119.083 32.0541C119.132 32.199 119.119 32.3704 119.044 32.5684C118.978 32.7729 118.875 32.9631 118.736 33.1389C118.578 33.3399 118.404 33.4823 118.216 33.5663C118.036 33.6568 117.878 33.6501 117.742 33.5463L113.996 30.6757C113.716 30.4616 113.547 30.2111 113.488 29.9242C113.429 29.6372 113.502 29.364 113.707 29.1044L118.544 22.9752C119.046 22.3388 119.382 21.7497 119.552 21.2077C119.718 21.187 119.911 21.2006 120.131 21.2485C120.36 21.3029 120.58 21.4111 120.792 21.5733C121.071 21.7874 121.236 22.0347 121.287 22.3151C121.345 22.6021 121.272 22.8753 121.068 23.1349L115.401 30.3415Z" fill="white"/>
<path d="M125.786 41.709C124.974 40.7616 124.519 39.912 124.422 39.16C124.334 38.4011 124.547 37.8068 125.064 37.3768C125.326 37.1584 125.605 37.0579 125.901 37.0753C126.205 37.0858 126.507 37.2651 126.805 37.6133C126.93 37.7591 127.023 37.8833 127.083 37.986C126.955 38.0505 126.834 38.1304 126.719 38.226C126.637 38.2942 126.546 38.3842 126.445 38.496C126.1 38.8802 125.921 39.3348 125.907 39.8596C125.894 40.3844 126.116 40.914 126.574 41.4484C126.915 41.8452 127.302 42.0844 127.738 42.166C128.181 42.2409 128.612 42.1043 129.03 41.7562C129.424 41.4286 129.64 41.0261 129.681 40.5486C129.736 40.0724 129.672 39.3758 129.49 38.4589C129.328 37.5811 129.228 36.8664 129.19 36.3148C129.161 35.7563 129.227 35.2434 129.388 34.7761C129.564 34.3101 129.878 33.8894 130.329 33.514C131.067 32.8998 131.841 32.7132 132.652 32.9541C133.478 33.1964 134.248 33.7345 134.963 34.5685C135.63 35.3458 136.042 36.0717 136.199 36.746C136.355 37.4204 136.2 37.9521 135.733 38.3411C135.512 38.5254 135.276 38.6107 135.025 38.5972C134.79 38.5849 134.543 38.4365 134.285 38.1518C134.249 38.1262 134.196 38.0729 134.127 37.992C134.064 37.9191 133.993 37.8192 133.912 37.6922C134.196 37.4831 134.406 37.2528 134.542 37.0012C134.757 36.7113 134.845 36.3806 134.808 36.0093C134.779 35.6312 134.594 35.2437 134.254 34.847C133.976 34.5231 133.651 34.3079 133.279 34.2015C132.914 34.1032 132.542 34.211 132.165 34.5249C131.903 34.7433 131.718 34.9945 131.61 35.2784C131.502 35.5624 131.461 35.9233 131.485 36.3611C131.509 36.799 131.594 37.3809 131.738 38.1068C131.885 38.8179 131.973 39.4377 132.005 39.9663C132.045 40.4881 131.987 41.0016 131.83 41.5069C131.673 42.0122 131.365 42.4559 130.906 42.8381C130.455 43.2134 129.945 43.4372 129.375 43.5095C128.819 43.5831 128.226 43.4731 127.595 43.1797C126.979 42.8875 126.376 42.3973 125.786 41.709Z" fill="white"/>
<path d="M80.5711 59.2949C81.2863 59.3048 81.996 59.1545 82.6584 58.8527C83.3208 58.551 83.9224 58.1039 84.4278 57.538L89.4808 51.8877C89.8133 51.5136 90 51.0076 90 50.4801C90 49.9527 89.8133 49.4466 89.4808 49.0726C89.3148 48.8854 89.1173 48.7369 88.8997 48.6355C88.6822 48.5342 88.4488 48.482 88.2131 48.482C87.9774 48.482 87.744 48.5342 87.5264 48.6355C87.3088 48.7369 87.1113 48.8854 86.9454 49.0726L81.8388 54.7029C81.6728 54.89 81.4753 55.0385 81.2577 55.1399C81.0402 55.2412 80.8068 55.2934 80.5711 55.2934C80.3354 55.2934 80.102 55.2412 79.8844 55.1399C79.6668 55.0385 79.4694 54.89 79.3034 54.7029L85.6241 47.655C85.7906 47.4688 85.9226 47.2478 86.0127 47.0046C86.1028 46.7614 86.1492 46.5007 86.1492 46.2374C86.1492 45.9742 86.1028 45.7135 86.0127 45.4703C85.9226 45.227 85.7906 45.006 85.6241 44.8199C85.4576 44.6337 85.26 44.4861 85.0424 44.3853C84.8249 44.2846 84.5918 44.2327 84.3564 44.2327C84.1209 44.2327 83.8878 44.2846 83.6703 44.3853C83.4528 44.4861 83.2551 44.6337 83.0887 44.8199L76.7858 51.8877C76.4532 51.5136 76.2666 51.0076 76.2666 50.4801C76.2666 49.9527 76.4532 49.4466 76.7858 49.0726L81.8388 43.4223C82.0053 43.2361 82.1373 43.0151 82.2274 42.7719C82.3175 42.5287 82.3639 42.268 82.3639 42.0047C82.3639 41.7415 82.3175 41.4808 82.2274 41.2376C82.1373 40.9943 82.0053 40.7733 81.8388 40.5872C81.6723 40.401 81.4747 40.2533 81.2572 40.1526C81.0396 40.0519 80.8065 40 80.5711 40C80.3356 40 80.1025 40.0519 79.885 40.1526C79.6675 40.2533 79.4698 40.401 79.3034 40.5872L74.2504 46.2374C73.2473 47.3605 72.6838 48.8829 72.6838 50.4701C72.6838 52.0574 73.2473 53.5798 74.2504 54.7029L71.9292 57.2784L57.163 40.707L56.9845 40.5872C56.8932 40.4981 56.791 40.4242 56.6809 40.3676L56.3595 40.2278L56.1453 40.0681H56.0203H55.6632C55.5567 40.049 55.4483 40.049 55.3418 40.0681C55.2337 40.1121 55.1316 40.1725 55.0383 40.2478L54.7526 40.4474H54.6276L54.5205 40.6471C54.4449 40.7525 54.3791 40.8662 54.3241 40.9865C54.2718 41.1082 54.2299 41.2352 54.1991 41.3658C54.1991 41.3658 54.1991 41.5056 54.1991 41.5855C53.7658 44.9625 54.042 48.4059 55.0059 51.6428C55.9698 54.8796 57.5948 57.8209 59.752 60.2333L64.4658 65.4843L54.8061 76.2657C54.6388 76.4513 54.506 76.6721 54.4153 76.9154C54.3247 77.1587 54.278 77.4197 54.278 77.6833C54.278 77.9468 54.3247 78.2078 54.4153 78.4511C54.506 78.6944 54.6388 78.9152 54.8061 79.1008C54.973 79.2859 55.1708 79.4323 55.3884 79.5316C55.6059 79.631 55.8389 79.6813 56.0739 79.6798C56.3088 79.6813 56.5418 79.631 56.7593 79.5316C56.9769 79.4323 57.1747 79.2859 57.3416 79.1008L68.1796 67.1614L73.2326 61.5111L76.8037 57.518C77.7999 58.6441 79.1546 59.283 80.5711 59.2949ZM66.9119 62.9287L62.216 57.6578C59.6421 54.7403 58.0305 50.9319 57.6451 46.8564L69.4473 60.0337L66.9119 62.9287ZM78.0535 64.0667C77.7173 63.6881 77.2603 63.4744 76.7832 63.4725C76.306 63.4706 75.8477 63.6808 75.5092 64.0567C75.1706 64.4327 74.9794 64.9437 74.9777 65.4772C74.9761 66.0108 75.164 66.5232 75.5002 66.9018L86.749 79.4802C87.09 79.8272 87.5379 80.0132 87.9988 79.9993C88.2338 80.0008 88.4667 79.9504 88.6843 79.8511C88.9018 79.7517 89.0997 79.6053 89.2665 79.4203C89.4339 79.2347 89.5667 79.0138 89.6574 78.7705C89.748 78.5272 89.7947 78.2663 89.7947 78.0027C89.7947 77.7391 89.748 77.4782 89.6574 77.2349C89.5667 76.9916 89.4339 76.7708 89.2665 76.5852L78.0535 64.0667Z" fill="white"/>
</svg>
