<svg width="228" height="173" viewBox="0 0 228 173" fill="none" xmlns="http://www.w3.org/2000/svg">
<g clip-path="url(#clip0_5_2389)">
<path d="M218.732 44.662C219.036 45.0565 220.141 44.6546 222.337 43.8348C224.007 43.2116 224.264 42.9848 224.423 42.8222C224.982 42.2506 225.128 41.6496 225.681 38.9942C226.674 34.2283 226.704 33.755 227.214 32.7436C227.39 32.3954 227.833 31.5646 227.725 31.4617C227.614 31.3559 227.134 32.2213 226.247 32.5483C225.383 32.867 224.994 32.3565 224.256 32.4865C223.302 32.6546 222.735 33.7221 221.845 35.4501C221.057 36.9803 220.958 37.5959 219.853 40.6364C219.54 41.4977 219.289 42.1643 219.095 42.6912C216.926 45.0759 214.775 47.4921 212.644 49.9293C212.685 49.8552 212.724 49.7854 212.757 49.7247C213.701 48.0169 213.83 47.1014 213.816 46.4154C213.794 45.3039 213.343 44.4573 212.443 42.8095C211.561 41.1948 210.725 40.1293 209.718 38.8579C208.398 37.1913 207.738 36.358 207.475 36.4128C205.598 36.8042 205.096 51.8651 207.458 54.5587C207.126 54.8377 206.852 55.13 206.653 55.4175C204.631 52.7725 201.167 49.8174 197.33 49.4536C194.964 49.2292 193.659 50.1039 193.253 50.4043C191.376 51.7928 190.261 54.5718 190.821 55.356C191.343 56.0872 192.853 54.4249 195.81 54.5164C197.874 54.5803 199.486 55.4624 200.443 55.9861C202.45 57.0846 203.185 58.1646 204.665 58.9044C203.971 59.5781 203.421 60.4188 203.076 61.203C202.956 61.3482 202.837 61.4942 202.718 61.6396C201.191 60.6256 199.471 59.8817 197.668 59.7108C195.302 59.4865 193.997 60.3611 193.591 60.6615C192.326 61.5973 191.41 63.1631 191.116 64.3258C190.925 64.3712 190.747 64.423 190.585 64.4789C190.011 62.9525 188.305 61.3428 186.719 60.5316C183.989 59.1352 180.442 59.5053 180.062 60.8333C180.05 60.8755 180.047 60.9173 180.042 60.9591C180.341 58.1138 180.747 55.2884 181.255 52.4835C181.272 52.5635 181.294 52.6446 181.323 52.7298C181.997 54.7244 183.818 56.6389 186.301 57.6321C188.25 58.4116 189.066 58.0076 189.273 57.8947C189.471 57.7869 190.327 57.3543 190.536 56.494C190.925 54.8992 188.545 50.1859 187.044 51.7669C182.221 56.8463 181.559 52.7333 181.338 52.0409C181.748 49.8234 182.22 47.6186 182.749 45.4264C182.758 45.4398 182.766 45.453 182.776 45.4665C183.829 46.972 185.857 48.0327 188.24 48.0796C190.11 48.1164 190.722 47.4996 190.874 47.334C191.02 47.1758 191.659 46.5214 191.637 45.7083C191.598 44.2009 189.321 42.9732 187.5 42.7603C185.822 42.5641 184.015 43.1695 183.118 43.936C183.535 42.2944 183.983 40.6598 184.462 39.0323C185.686 39.6217 187.421 39.5425 189.126 38.6449C190.531 37.9047 190.805 37.1939 190.87 37.0077C190.932 36.8299 191.214 36.0799 190.958 35.4824C190.482 34.3746 188.422 34.3934 187.001 34.9821C186.416 35.2246 185.86 35.5976 185.383 36.0194C186.23 33.3519 187.154 30.7034 188.148 28.0744L187.152 27.7811C185.883 31.1395 184.776 34.5416 183.825 37.9814C183.707 36.9726 183.411 35.8979 183.02 35.0247C181.873 32.4574 179.423 30.5313 178.594 31.1562C178.428 31.2812 178.358 31.4848 178.295 31.7272C177.787 33.6776 178.17 36.3729 179.508 38.8494C180.558 40.793 181.366 41.0659 181.577 41.1276C181.755 41.1797 182.442 41.4031 183.006 41.1153C182.626 42.6478 182.275 44.1868 181.955 45.7328C181.57 44.6062 180.811 43.4059 180.009 42.5758C178.158 40.6619 175.285 39.896 174.7 40.8288C174.584 41.0154 174.58 41.2349 174.595 41.4879C174.713 43.5233 175.888 45.8791 177.889 47.6279C179.46 49.0004 180.298 48.9143 180.514 48.8832C180.641 48.8649 181.024 48.8199 181.393 48.6231C181.05 50.5015 180.75 52.3889 180.491 54.2844C179.973 52.164 178.212 49.5187 176.551 50.3603C173.602 51.8536 170.136 49.5598 169.755 50.5628C169.656 50.8239 169.738 51.093 169.833 51.385C170.597 53.7349 172.706 56.0118 175.603 57.2209C177.877 58.1698 178.839 57.7112 179.083 57.5826C179.245 57.4974 179.78 57.2343 180.178 56.7459C179.892 59.1815 179.672 61.6294 179.518 64.088C178.903 62.5066 177.172 60.8406 175.551 59.9816C172.707 58.4749 168.988 58.8049 168.575 60.1895C168.493 60.4665 168.558 60.7336 168.655 61.0334C169.439 63.4454 171.605 65.7823 174.578 67.0233C176.912 67.9974 177.899 67.5266 178.15 67.3946C178.333 67.2983 178.98 66.9796 179.393 66.3744C179.34 67.511 179.3 68.6495 179.274 69.7902C179.266 70.1151 179.262 70.4399 179.257 70.7648C179.223 70.8287 179.194 70.8939 179.175 70.9622C179.095 71.2409 179.149 71.509 179.243 71.8019C179.241 72.0082 179.24 72.2145 179.238 72.4208C178.718 71.8652 178.098 71.0299 177.351 69.8394C176.678 68.7653 176.038 69.5535 175.627 70.468C174.983 70.299 174.369 70.4036 173.886 70.9354C170.645 74.5014 167.011 72.6095 166.96 73.6727C166.945 73.9795 167.085 74.2235 167.26 74.4881C168.675 76.6173 171.452 78.1706 174.752 78.3343C177.341 78.4628 178.206 77.6337 178.423 77.4108C178.499 77.3324 178.67 77.1633 178.854 76.9254C179.003 77.065 179.147 77.1915 179.292 77.307C179.349 79.3483 179.451 81.3872 179.602 83.4224C179.479 83.4354 179.361 83.4592 179.274 83.4697C178.019 83.6203 177.597 81.6265 175.702 80.898C175.073 80.6562 173.86 80.3922 173.222 80.898C173.13 80.9709 172.816 81.2449 172.329 81.4825C172.041 81.623 171.821 81.6881 171.733 81.7163C170.956 81.9668 170.236 82.6543 169.749 83.119C168.834 83.9927 168.376 84.4295 168.161 85.2231C168.094 85.4728 167.904 86.1754 168.161 86.8596C168.283 87.1829 168.566 87.6638 169.65 88.1454C170.294 88.4317 172.173 89.2665 174.412 88.3792C174.922 88.1772 174.533 88.2495 176.496 87.0934C178.04 86.1838 178.943 85.749 179.075 84.8724C179.122 84.5643 179.075 84.1885 179.274 84.0542C179.384 83.9795 179.518 84.0158 179.651 84.0724C179.781 85.7086 179.943 87.3421 180.14 88.9724H178.373C176.027 88.9724 173.922 90.511 172.88 92.9878L166.27 108.698C165.853 109.69 165.632 110.799 165.632 111.906V152.304C165.632 156.287 168.382 159.528 171.763 159.528H187.191C190.572 159.528 193.323 156.287 193.323 152.304V115.105C193.323 114.199 193.18 113.311 192.899 112.466L186.599 93.5568C185.835 91.2635 184.181 89.6413 182.202 89.139C182.837 88.2528 183.472 87.3674 184.113 86.4847C184.919 86.9431 185.806 87.3195 186.76 87.5836C189.283 88.2824 190.265 87.6594 190.513 87.4882C190.75 87.3247 191.778 86.6602 191.952 85.5518C191.971 85.4331 191.978 85.3129 191.977 85.1919C194.561 87.6672 195.91 88.8872 196.895 88.4804C197.742 88.1307 198.225 86.9845 198.502 85.9561C198.791 86.0033 199.098 86.0518 199.424 86.1032C202.964 86.66 204.748 86.9183 205.43 85.9305C206.374 84.5635 205.478 81.9275 205.231 81.201C204.694 79.6219 203.868 78.6612 203.355 78.0767C202.689 77.3177 200.79 75.1545 197.8 74.866C197.15 74.8032 196.566 74.8514 195.971 74.998C195.764 74.7747 195.545 74.5558 195.305 74.348C194.846 73.9519 194.392 73.6585 193.905 73.4293C194.653 72.4634 195.403 71.5006 196.157 70.5418C196.276 70.6057 196.39 70.6675 196.494 70.7245C198.964 72.0758 199.506 73.3991 201.881 74.0958C202.959 74.4118 204.179 74.7697 204.481 74.2317C205.017 73.276 202.74 69.3438 199.221 66.6833C199.458 66.3873 199.696 66.0923 199.934 65.7971C200.256 65.9561 200.539 66.1111 200.781 66.2433C203.25 67.5947 203.793 68.918 206.168 69.6146C207.245 69.9306 208.465 70.2885 208.767 69.7505C209.246 68.8978 207.485 65.6745 204.6 63.0997C205.392 62.8033 206.443 62.4747 207.804 62.5169C209.867 62.5808 211.479 63.4628 212.436 63.9865C214.906 65.3379 215.449 66.6612 217.824 67.3578C218.901 67.6739 220.121 68.0317 220.423 67.4937C221.221 66.073 215.803 58.0684 209.324 57.454C208.821 57.4063 208.368 57.4103 207.96 57.4459C207.903 57.3357 207.842 57.2225 207.777 57.1074C209.97 57.1904 214.252 56.4519 217.896 59.4664C218.947 60.3356 220.988 62.3804 224.405 64.0603C225.497 64.5972 226.046 64.8612 226.197 64.6407C226.738 63.8515 222.237 57.3563 215.905 54.1565C213.394 52.8878 211.843 52.7678 210.739 52.96C210.909 52.7316 211.075 52.4958 211.235 52.2591C213.7 49.4098 216.197 46.5903 218.717 43.8088C218.595 44.2531 218.599 44.4896 218.732 44.662V44.662ZM187.088 80.1245C184.303 79.0623 180.93 79.633 180.051 80.8416C179.927 79.7704 179.819 78.6977 179.73 77.6228C180.999 78.4577 182.323 78.6813 184.835 79.0764C185.904 79.2447 186.811 79.3848 187.578 79.4724C187.681 79.8014 187.791 80.0974 187.919 80.3807C187.933 80.4136 187.949 80.4448 187.964 80.4772L187.942 80.5071C187.656 80.361 187.369 80.232 187.088 80.1245ZM179.688 65.7333C179.767 65.4228 179.769 65.0921 179.708 64.7513C179.795 63.5164 179.903 62.2853 180.031 61.0579C180.028 61.2458 180.079 61.4338 180.147 61.6376C180.922 63.9287 183.014 66.1277 185.866 67.2685C186.398 67.4814 186.854 67.6155 187.247 67.6975C187.074 68.0526 186.942 68.3985 186.854 68.7186C185.882 67.7984 184.63 67.1293 183.21 67.8392C182.824 68.0323 182.594 68.7391 182.395 69.5842C181.083 69.6108 179.987 69.9333 179.465 70.4788C179.468 70.2513 179.467 70.0242 179.472 69.7963C179.502 68.4974 179.556 67.2027 179.633 65.912C179.653 65.8542 179.672 65.7948 179.688 65.7333H179.688ZM179.469 72.4143C179.525 72.5507 179.587 72.6864 179.652 72.8217C179.593 72.7711 179.534 72.7166 179.472 72.6577C179.471 72.5766 179.47 72.4954 179.469 72.4143ZM181.709 89.0392C181.556 89.0155 181.402 88.9984 181.246 88.988C180.887 86.8878 180.556 84.789 180.278 82.6862C181.008 84.0507 182.199 85.3 183.716 86.2474C183.043 87.1757 182.375 88.107 181.709 89.0392ZM193.464 73.2433C192.514 72.8839 191.399 72.7119 189.857 72.5009C189.466 71.8607 189.063 71.3892 188.765 71.05C188.604 70.8662 188.356 70.5016 188.035 70.0751C188.867 69.7607 190.108 69.2005 191.861 69.2548C193.455 69.3042 194.777 69.8411 195.739 70.3244C194.977 71.2936 194.22 72.267 193.464 73.2433ZM198.847 66.4083C197.913 65.7438 196.901 65.1749 195.836 64.775C195.939 64.7739 196.041 64.7703 196.148 64.7737C197.469 64.8146 198.604 65.191 199.502 65.594C199.283 65.8653 199.065 66.1363 198.847 66.4083Z" fill="#E6E6E6"/>
<path d="M93.8278 57.1235L111.546 51.0137L116.041 57.1235C116.041 57.1235 132.29 59.4146 137.043 72.1432C141.797 84.8718 159.731 149.533 159.731 149.533L136.071 153.988L103.227 122.676C103.227 122.676 92.8555 117.069 93.8278 103.58C94.3833 95.8735 92.7879 86.3381 91.3178 79.5788C90.1114 74.0317 91.347 68.1411 94.5841 63.8696L94.5841 63.8696L93.8278 57.1235Z" fill="#FBAB7E"/>
<path d="M1.1383 169.621C-0.00612783 167.496 -0.141282 164.87 0.776835 162.597L14.4202 128.824C15.4384 126.303 17.6274 124.674 19.9967 124.674H192.323C194.626 124.674 196.722 126.167 197.792 128.571L212.416 161.413C213.427 163.683 213.36 166.35 212.238 168.546C211.116 170.742 209.147 172.059 206.971 172.07L6.37765 173H6.35254C4.22606 173 2.27809 171.739 1.1383 169.621H1.1383Z" fill="white"/>
<path d="M1.1383 169.621C-0.00612783 167.496 -0.141282 164.87 0.776835 162.597L14.4202 128.824C15.4384 126.303 17.6274 124.674 19.9967 124.674H192.323C194.626 124.674 196.722 126.167 197.792 128.571L212.416 161.413C213.427 163.683 213.36 166.35 212.238 168.546C211.116 170.742 209.147 172.059 206.971 172.07L6.37765 173H6.35254C4.22606 173 2.27809 171.739 1.1383 169.621H1.1383ZM19.9967 125.438C17.8761 125.438 15.9169 126.896 15.0056 129.152L1.36219 162.925C0.540397 164.96 0.661307 167.31 1.68567 169.212C2.70592 171.107 4.4492 172.236 6.35264 172.236H6.37512L206.969 171.306C208.916 171.297 210.678 170.118 211.683 168.152C212.687 166.186 212.747 163.8 211.842 161.768L197.218 128.925C196.26 126.774 194.385 125.438 192.323 125.438H19.9967H19.9967Z" fill="#3F3D56"/>
<path d="M39.9187 69.5244C37.5283 65.7694 33.9461 64.1787 31.918 65.9714C29.8898 67.7642 30.1839 72.2607 32.5757 76.0168C33.5136 77.5326 34.746 78.7617 36.1698 79.6014L46.4688 95.3611L52.643 89.5094L41.8345 74.5944C41.5488 72.7484 40.8919 71.0099 39.9187 69.5244V69.5244Z" fill="#FFB6B6"/>
<path d="M96.197 58.6835C96.197 58.6835 108.906 65.1968 108.855 72.1216C108.803 79.0465 85.4108 125 85.4108 125C85.4108 125 75.3623 132.515 71.9468 128.193C68.5314 123.872 40.1278 89.271 40.1278 89.271L47.866 78.3823L75.9646 107.211L96.197 58.6835Z" fill="#FBAB7E"/>
<path d="M127.616 145.488L131.29 159.235L88.2904 162.29L91.9637 146.761L127.616 145.488Z" fill="#E6E6E6"/>
<path d="M80.3188 144.022L83.9921 157.769L40.9927 160.824L44.6661 145.295L80.3188 144.022Z" fill="#E6E6E6"/>
<path d="M186.365 134.637L190.038 148.384L147.039 151.439L150.712 135.91L186.365 134.637Z" fill="#E6E6E6"/>
<path d="M101.523 135.055L90.3788 128.598C90.3024 128.554 90.2182 128.532 90.1331 128.534L64.4128 129.188L56.5859 94.5575C56.5665 94.4715 56.5093 94.4044 56.4362 94.382L46.9697 91.4725C46.8128 91.4243 46.6708 91.5952 46.7151 91.779L56.0985 130.723C56.1138 130.787 56.1498 130.84 56.1987 130.872L65.8472 137.16C65.9216 137.209 66.0012 137.196 66.0617 137.15L66.1132 137.219C66.2175 137.36 66.3697 137.438 66.528 137.432L101.304 136.241C101.857 136.223 102.02 135.343 101.523 135.055H101.523Z" fill="#3F3D56"/>
<path d="M90.5457 125.403C86.5627 125.513 83.3824 128.024 83.4422 131.01C83.502 133.996 86.7791 136.327 90.7634 136.217C92.3556 136.198 93.9208 135.731 95.3281 134.853L112.199 134.136L111.745 124.816L95.1611 126.512C93.7199 125.714 92.1373 125.333 90.5457 125.403Z" fill="#FFB6B6"/>
<path d="M115.76 65.1425C115.76 65.1425 127.644 56.7416 132.398 60.8147C137.151 64.8879 155.302 114.02 155.302 114.02C155.302 114.02 154.654 128.022 149.684 128.786C144.714 129.549 104.308 136.677 104.308 136.677L101.283 122.93L130.237 113.002L115.76 65.1425Z" fill="#FBAB7E"/>
<path d="M43.4356 156.776C58.6037 156.776 70.8999 152.536 70.8999 147.306C70.8999 142.076 58.6037 137.836 43.4356 137.836C28.2674 137.836 15.9713 142.076 15.9713 147.306C15.9713 152.536 28.2674 156.776 43.4356 156.776Z" fill="#3F3D56"/>
<path d="M70.7932 146.515C70.7932 150.437 58.9385 152.436 43.7704 152.436C28.6022 152.436 16.0275 150.437 16.0275 146.515C16.0275 142.592 28.6022 138.23 43.7704 138.23C58.9385 138.23 70.7932 142.592 70.7932 146.515Z" fill="#2F2E41"/>
<path d="M22.5024 139.217L18.1483 141.979C18.1483 141.979 18.4832 150.66 26.1866 150.265C33.89 149.871 37.2262 148.292 37.0653 147.306C36.9044 146.319 37.2393 141.19 34.225 141.979C31.2106 142.768 26.8565 143.557 26.8565 143.557L22.5024 139.217Z" fill="#FBAB7E"/>
<path d="M36.9852 146.077C36.4267 147.051 33.0324 148.336 26.1866 148.687C20.4895 148.979 18.824 144.309 18.3421 141.856L18.1483 141.979C18.1483 141.979 18.4832 150.66 26.1866 150.265C33.89 149.871 37.2261 148.292 37.0653 147.306C37.028 147.077 37.0171 146.625 36.9852 146.077Z" fill="#3F3D56"/>
<path d="M36.9044 140.401L32.5503 143.163C32.5503 143.163 32.8853 151.844 40.5887 151.449C48.2921 151.055 51.6282 149.476 51.4673 148.49C51.3064 147.503 51.6414 142.374 48.627 143.163C45.6126 143.952 41.2585 144.741 41.2585 144.741L36.9044 140.401Z" fill="#FBAB7E"/>
<path d="M51.3872 147.261C50.8287 148.235 47.4345 149.52 40.5887 149.871C34.8916 150.163 33.2261 145.493 32.7441 143.04L32.5503 143.163C32.5503 143.163 32.8853 151.844 40.5887 151.449C48.2921 151.055 51.6281 149.476 51.4674 148.49C51.4301 148.261 51.4191 147.809 51.3872 147.261Z" fill="#3F3D56"/>
<path d="M40.2537 132.114L35.8996 134.876C35.8996 134.876 36.2346 143.557 43.938 143.163C51.6414 142.768 54.9775 141.19 54.8166 140.203C54.6558 139.217 54.9907 134.087 51.9763 134.876C48.9619 135.665 44.6078 136.454 44.6078 136.454L40.2537 132.114Z" fill="#FBAB7E"/>
<path d="M54.7365 138.974C54.178 139.948 50.7838 141.234 43.938 141.584C38.2409 141.876 36.5754 137.207 36.0934 134.753L35.8996 134.876C35.8996 134.876 36.2346 143.557 43.938 143.163C51.6414 142.768 54.9774 141.19 54.8167 140.203C54.7794 139.975 54.7684 139.522 54.7365 138.974Z" fill="#3F3D56"/>
<path d="M54.9907 137.638L50.6366 140.401C50.6366 140.401 50.9715 149.082 58.6749 148.687C66.3783 148.293 69.7145 146.714 69.5536 145.728C69.3927 144.741 69.7277 139.611 66.7133 140.401C63.6989 141.19 59.3448 141.979 59.3448 141.979L54.9907 137.638Z" fill="#FBAB7E"/>
<path d="M69.4735 144.499C68.915 145.473 65.5207 146.758 58.6749 147.109C52.9778 147.401 51.3123 142.731 50.8304 140.278L50.6366 140.401C50.6366 140.401 50.9715 149.082 58.6749 148.687C66.3783 148.293 69.7144 146.714 69.5536 145.728C69.5164 145.499 69.5054 145.047 69.4735 144.499Z" fill="#3F3D56"/>
<path d="M25.3551 56.5321L19.0829 60.5111C19.0829 60.5111 19.5654 73.0166 30.6623 72.4481C41.7593 71.8797 46.565 69.606 46.3333 68.1849C46.1015 66.7638 46.584 59.3743 42.2417 60.5111C37.8995 61.648 31.6273 62.7848 31.6273 62.7848L25.3551 56.5321V56.5321Z" fill="#FBAB7E"/>
<path d="M46.2179 66.4144C45.4134 67.8177 40.5239 69.6693 30.6623 70.1744C22.4556 70.5948 20.0564 63.8682 19.3621 60.334L19.0829 60.5111C19.0829 60.5111 19.5654 73.0166 30.6623 72.4482C41.7593 71.8797 46.5649 69.606 46.3334 68.1849C46.2796 67.8557 46.2639 67.2042 46.2179 66.4144Z" fill="#3F3D56"/>
<path d="M96.7859 50.9291C105.519 50.9291 112.598 42.5884 112.598 32.2996C112.598 22.0107 105.519 13.67 96.7859 13.67C88.0528 13.67 80.9733 22.0107 80.9733 32.2996C80.9733 42.5884 88.0528 50.9291 96.7859 50.9291Z" fill="#FFB6B6"/>
<path d="M100.512 37.6832L96.2069 31.3662L93.6576 22.3234C93.6576 22.3234 77.5706 29.3439 81.0753 19.2221C84.5799 9.10029 95.6518 5.17605 104.027 11.2632L107.708 14.617C107.708 14.617 99.5671 7.53363 103.728 4.07205C107.888 0.610474 106.893 -1.18204 109.55 0.865405C112.207 2.91285 111.183 4.98137 113.869 3.16779C116.555 1.3542 122.425 -1.37672 121.852 1.11233C121.278 3.60138 127.979 8.95308 126.022 12.1134C124.065 15.2738 126.646 20.7066 122.467 19.8314C118.289 18.9562 121.011 25.8161 117.095 23.4586C117.095 23.4586 120.519 27.5292 118.425 31.1905C116.33 34.8518 112.724 36.6578 113.597 41.3598C114.469 46.0619 104.87 48.3641 104.87 48.3641L104.257 34.3742C104.257 34.3742 101.627 32.383 100.512 37.6833L100.512 37.6832Z" fill="#2F2E41"/>
</g>
<defs>
<clipPath id="clip0_5_2389">
<rect width="227.569" height="173" fill="white" transform="translate(0.172913)"/>
</clipPath>
</defs>
</svg>
